<svg width="24" height="24" viewBox="0 0 24 24" fill="none" xmlns="http://www.w3.org/2000/svg">
<g clip-path="url(#clip0_289_12529)">
<path d="M0 12V6C0 2.68629 2.68629 0 6 0H12H18C21.3137 0 24 2.68629 24 6V12V18C24 21.3137 21.3137 24 18 24H12H6C2.68629 24 0 21.3137 0 18V12Z" fill="#038E3B"/>
<path fill-rule="evenodd" clip-rule="evenodd" d="M22.684 12C22.684 14.8015 21.5572 17.4882 19.5514 19.4691C17.5457 21.45 14.8253 22.5629 11.9887 22.5629C9.15217 22.5629 6.43179 21.45 4.42603 19.4691C2.42028 17.4882 1.29346 14.8015 1.29346 12C1.29346 9.19856 2.42028 6.51185 4.42603 4.53093C6.43179 2.55 9.15217 1.43713 11.9887 1.43713C14.8253 1.43713 17.5457 2.55 19.5514 4.53093C21.5572 6.51185 22.684 9.19856 22.684 12Z" fill="#3A3734"/>
<path fill-rule="evenodd" clip-rule="evenodd" d="M17.2054 5.22449L17.0916 5.23199V5.34457L17.2281 5.33706L17.2054 5.22449Z" fill="#3A3734"/>
<path fill-rule="evenodd" clip-rule="evenodd" d="M10.088 3.44173L9.99968 3.44797L9.99338 3.54784H10.1006L10.088 3.44173Z" fill="#3A3734"/>
<path fill-rule="evenodd" clip-rule="evenodd" d="M5.29146 6.6996L5.20315 6.70585L5.19684 6.80572H5.30408L5.29146 6.6996Z" fill="#3A3734"/>
<path fill-rule="evenodd" clip-rule="evenodd" d="M20.1635 7.22839L19.6781 7.71623L19.3216 7.68621L19.1471 7.41602L19.0182 7.34097L19.003 7.27342L18.9044 7.26592L18.8968 7.04827L18.6996 6.92068L18.5858 6.62047L18.0928 6.3803L17.4178 5.61476L17.304 5.5247L17.2205 5.5322L17.1523 5.62977L16.8716 5.58474L16.9096 5.17945V5.11941L15.9084 5.12692L15.8098 4.83421L16.1814 4.47396L16.1359 4.84172L17.1371 4.90176L17.4405 5.02935L17.5164 5.31455L17.7515 5.65229L18.6389 6.3803L18.8741 6.47787L19.0713 6.59795L18.9651 6.86063L19.1926 6.9507L19.2002 7.1008L19.5036 7.28843L19.3823 7.40852L19.3898 7.49108L19.6553 7.46856L19.9435 7.16835L20.1635 7.22839Z" fill="#997B3D"/>
<path fill-rule="evenodd" clip-rule="evenodd" d="M19.1699 7.79129L19.0409 7.8063L19.0485 8.00143L19.2078 7.97892L19.1699 7.79129Z" fill="#997B3D"/>
<path fill-rule="evenodd" clip-rule="evenodd" d="M18.9727 5.04436L19.3064 5.41212L19.0789 5.56222L18.9575 5.41212L18.9651 5.2395L18.7755 5.11191L18.9727 5.04436Z" fill="#997B3D"/>
<path fill-rule="evenodd" clip-rule="evenodd" d="M17.2594 3.51455L16.6002 4.61314L16.4441 4.59598L17.005 3.52027L17.2594 3.51455Z" fill="#997B3D"/>
<path fill-rule="evenodd" clip-rule="evenodd" d="M16.5251 3.22273L16.0798 4.30988L15.8138 4.58453L15.5594 4.57309L15.4032 4.43004L15.3685 4.18973L14.0501 4.14395L13.5644 3.88647L13.3967 3.56604L13.4661 3.27423L13.362 3.31429L13.1596 3.5546L12.8416 3.99518L12.5929 3.88647L12.5177 3.7892L12.5235 3.25707L12.7548 2.99958L12.7317 3.38295L12.8069 3.63471L13.1249 3.33717L13.414 3.02819L13.5644 2.96525L13.6627 2.90803L13.761 3.03391L13.6858 3.26279L13.7147 3.49738L13.7899 3.63471L13.9171 3.7377L14.0848 3.83497L14.2467 3.88647L14.6746 3.93224L14.9059 3.99518L15.1372 3.94369L15.3685 3.90363L15.4437 3.72626L15.5594 3.40011L15.7039 3.14835L15.8196 3.0053L15.9873 2.97097L16.0162 3.17696L15.9121 3.24562L15.8312 3.50311L15.6982 3.75487L15.6172 4.09246L15.6635 4.24122L15.8658 4.27555L15.941 4.06384L16.1665 3.43444L16.2591 3.2399L16.4499 3.1598L16.5251 3.22273Z" fill="#997B3D"/>
<path fill-rule="evenodd" clip-rule="evenodd" d="M14.9291 3.01103L14.7672 3.18268L14.3566 3.20557L14.2756 3.07397L14.3566 2.91376L14.478 3.0053H14.7035L14.7903 2.91376L14.958 2.9252L14.9291 3.01103Z" fill="#997B3D"/>
<path fill-rule="evenodd" clip-rule="evenodd" d="M12.258 2.26199L12.3464 2.93612L12.3716 3.51039L12.176 3.34809L12.1634 2.22453L12.258 2.26199Z" fill="#997B3D"/>
<path fill-rule="evenodd" clip-rule="evenodd" d="M11.7471 2.23078L11.8859 2.37434L11.9868 2.94861L12.0183 3.44797L11.9616 3.57905L11.8228 3.78504L11.5831 3.86618L11.2424 3.96605L11.0216 4.10338L10.845 4.20325L10.6999 4.38427L10.4097 4.45293L10.2836 4.2407L10.3908 3.90363L10.4665 3.94733L10.4602 4.13459L10.6431 4.11586L10.8765 3.97854L11.0216 3.8537L11.2487 3.76631L11.6335 3.64147L11.7786 3.52911L11.7912 3.20453L11.7218 2.89867L11.6209 2.54912L11.5768 2.33689L11.7408 2.20581L11.7471 2.23078Z" fill="#997B3D"/>
<path fill-rule="evenodd" clip-rule="evenodd" d="M10.3593 3.15459L10.5548 2.9923L10.7756 2.90491L11.2235 3.02351L11.6651 3.07969L11.6335 3.27319L11.3181 3.3793L11.0153 3.50414L10.7441 3.62899L10.334 3.71013L10.1889 3.86618L9.89875 3.87242L9.70319 3.97229L9.52656 4.00975L9.45717 4.22822L9.12284 4.57777L8.96513 4.70261L8.57401 4.81497L8.34692 4.80248L8.24599 4.70261L8.09459 4.55904L8.06304 4.22198L8.17659 4.27191L8.22075 4.38427L8.37846 4.45917L8.69387 4.4779L8.93359 4.34057L9.09129 4.21573L9.25531 4.09089L9.31839 3.97854L9.22377 3.75383L9.24269 3.50414L9.30577 3.45421L9.38147 3.46045L9.43194 3.6165L9.58334 3.66644L9.79151 3.6602L9.8609 3.34185L9.97445 3.26071L10.1448 3.28567L10.2899 3.3793L10.599 3.40427L10.7567 3.39179L10.7819 3.32313L10.7945 3.24822L10.3971 3.25446L10.3593 3.15459Z" fill="#997B3D"/>
<path fill-rule="evenodd" clip-rule="evenodd" d="M11.1289 2.53039L10.8324 2.59281L10.8198 2.71765L11.1604 2.7239L11.1289 2.53039Z" fill="#997B3D"/>
<path fill-rule="evenodd" clip-rule="evenodd" d="M9.57703 2.443L9.67165 2.76135L9.56441 2.81128L9.46348 2.64275L9.49502 2.43052L9.57703 2.443Z" fill="#997B3D"/>
<path fill-rule="evenodd" clip-rule="evenodd" d="M8.73803 3.03599L8.90835 3.07969L8.95251 3.27943L8.83265 3.37306L8.59925 3.28567L8.61186 3.13587L8.73803 3.03599Z" fill="#997B3D"/>
<path fill-rule="evenodd" clip-rule="evenodd" d="M8.13244 3.01994L8.70649 4.05166L8.6362 4.22554L8.49561 4.09803L8.03871 3.40249L8.13244 3.01994Z" fill="#997B3D"/>
<path fill-rule="evenodd" clip-rule="evenodd" d="M7.27721 3.2402L7.81612 4.04007L7.89813 4.23714L7.90985 4.82834L7.64039 5.10656L7.28893 5.62821L7.17178 5.91802L6.98433 6.03394L6.78517 5.9412L6.73831 5.62821L6.86718 5.61662L6.92575 5.69776L7.07805 5.66299L7.17178 5.43114L7.37094 5.0486L7.76926 4.64286L7.80441 4.4342L7.28893 3.71548L7.18349 3.49523L7.27721 3.2402Z" fill="#997B3D"/>
<path fill-rule="evenodd" clip-rule="evenodd" d="M6.36342 4.85153L6.422 4.5849L6.56258 4.4342L6.84375 4.37624L7.05462 4.32987L7.40609 4.21395L7.47638 4.48057L7.27721 4.70083L6.92575 5.1877L6.57429 5.40796L6.36342 5.38477L6.28141 5.51229L6.22284 5.80209L6.08225 6.02235L5.55506 6.50923L5.43791 6.60196L5.55506 6.72948V6.93814L5.44962 7.01928L5.14502 7.00769L5.07473 6.91495L5.03958 7.32069L5.06301 7.71482L5.01615 7.93508L4.77013 8.17851L4.61783 8.15533L4.38352 8.06259L4.2898 7.79597L4.30151 7.69164L4.45381 7.73801L4.47725 7.84234H4.65298L4.78185 7.71482L4.8287 7.16998V6.85699L4.91071 6.43967L5.18017 6.3933L5.3559 6.25419L5.68393 6.03394L5.91823 5.72095L6.0471 5.53547L6.16426 5.16452L6.28141 5.15293L6.36342 5.19929L6.45714 5.15293L6.69145 4.96745L6.87889 4.81675L6.9609 4.66605L6.82032 4.68924L6.66802 4.77038L6.55086 4.82834L6.36342 4.85153Z" fill="#997B3D"/>
<path fill-rule="evenodd" clip-rule="evenodd" d="M6.85546 3.80822L6.56258 4.13281L6.6563 4.27191L6.79688 4.24873L7.00776 3.94733L6.91404 3.81981L6.85546 3.80822Z" fill="#997B3D"/>
<path fill-rule="evenodd" clip-rule="evenodd" d="M5.28561 5.02541L5.27389 5.26885L5.09816 5.38477L5.03958 5.24566L5.0513 5.11815L5.2036 5.01382L5.28561 5.02541Z" fill="#997B3D"/>
<path fill-rule="evenodd" clip-rule="evenodd" d="M6.25798 6.12668L6.38685 5.97598L6.56258 5.98757L6.58601 6.16146L6.52744 6.26578L6.38685 6.32375L6.26969 6.20783L6.25798 6.12668Z" fill="#997B3D"/>
<path fill-rule="evenodd" clip-rule="evenodd" d="M6.03539 6.2426L6.15254 6.23101L6.25798 6.30056L6.28141 6.43967L6.25798 6.52082L6.08225 6.53241L6.02367 6.3933L6.03539 6.2426Z" fill="#997B3D"/>
<path fill-rule="evenodd" clip-rule="evenodd" d="M20.3473 12.3834L20.6133 12.2117L20.8215 12.3147L20.8562 12.5665L20.8678 12.864L20.9719 13.0128L21.1106 12.7954L21.3188 12.761L21.4923 12.9556L21.608 13.1501L21.6773 13.4019L21.6542 13.7109L21.5386 13.7795L21.4113 13.9626L21.1453 13.9855L20.9603 13.9283L20.9834 14.6607L20.914 15.3588L20.7753 15.6677L20.5902 15.9538L20.5208 16.0454L20.648 16.2628L20.7984 16.5489L20.81 17.0181L20.7521 17.2126L20.463 17.5788L20.2201 17.636L20.0235 17.5674L19.85 17.4644L19.7344 17.3156L19.6881 17.1669H19.85L19.9194 17.2584L20.1854 17.2698L20.2895 17.1669L20.4283 17.1096L20.5324 16.9265L20.5555 16.6977L20.5093 16.3887L20.3936 16.1255L20.3011 15.9653L20.2201 15.8165L20.3127 15.7249L20.3936 15.5304L20.5324 15.2786L20.5787 15.004L20.7753 14.6836V14.5691L20.7984 14.4776L20.7753 14.3517L20.7984 14.2373L20.7753 14.1343L20.81 14.0427L20.7753 13.9626L20.7174 13.8596L20.544 13.7452L20.2548 13.6651L20.1045 13.5163L20.0351 13.3676H20.0929L20.2548 13.4705L20.4861 13.585L20.6133 13.6765L20.8793 13.6994L21.0413 13.791L21.1222 13.7223L21.2726 13.6422L21.3651 13.5392L21.3766 13.3561L21.3651 13.1616L21.2147 13.2417L21.1916 13.482L21.0297 13.5392L20.9372 13.4248L20.8678 13.2874L20.8215 13.1501L20.8331 12.9785L20.6249 12.8068L20.544 12.7496L20.4052 12.6924L20.3242 12.5207L20.3473 12.3834Z" fill="#997B3D"/>
<path fill-rule="evenodd" clip-rule="evenodd" d="M21.7236 12.9098L21.8393 12.8526L21.9896 12.8984L22.0359 13.0586L21.8855 13.1387L21.712 13.0815L21.6773 12.967L21.7236 12.9098Z" fill="#997B3D"/>
<path fill-rule="evenodd" clip-rule="evenodd" d="M21.3882 14.4776L21.3535 14.7179L21.2263 14.8667V15.0154L21.3998 15.0269L21.4923 14.798L21.527 14.5234L21.3882 14.4776Z" fill="#997B3D"/>
<path fill-rule="evenodd" clip-rule="evenodd" d="M19.5725 15.3702L19.4337 15.313L19.3412 15.4617L19.2602 15.5419L19.214 15.7593L19.3296 15.8508L19.399 15.7249L19.5147 15.6563L19.584 15.5647L19.5725 15.3702Z" fill="#997B3D"/>
<path fill-rule="evenodd" clip-rule="evenodd" d="M20.6584 12.4604L20.5701 12.4666L20.5638 12.5665H20.671L20.6584 12.4604Z" fill="#3A3734"/>
<path fill-rule="evenodd" clip-rule="evenodd" d="M18.7215 16.4967L19.2368 16.8873L19.6754 17.4515L19.785 17.6576L19.6863 17.7661L19.5328 17.5708L19.2916 17.3647L19.0943 17.1694L18.9188 16.9741L18.8092 16.8114L18.7215 16.4967Z" fill="#997B3D"/>
<path fill-rule="evenodd" clip-rule="evenodd" d="M18.5241 16.8331L19.1381 17.4623L19.2149 17.625L19.2807 18.0265L19.2039 18.2651L18.8421 18.2868L18.7215 18.6991L18.4802 18.8836L18.3487 19.0354L18.2061 19.209L18.0746 19.4911L17.9101 19.7298L17.4167 20.218L17.033 20.4241L16.5834 20.4567L16.1887 20.218L16.0681 19.9576L15.9036 19.6755L15.783 19.4477L15.7282 19.1656L15.8269 19.1222L15.9365 19.3718L16.2435 19.8708L16.4518 20.0878L16.6931 20.1638L16.9562 20.0444L17.4167 19.784L17.8772 19.3284L18.1294 18.9486L18.1623 18.8619L17.8334 18.7859V18.4279L17.932 18.2326L18.1732 18.1675L18.3816 18.2218L18.4583 18.4279L18.5789 18.2651L18.6557 18.2218L18.6666 17.9722L19.1052 17.9505L19.1162 17.7552L18.9408 17.5382L18.5899 17.2236L18.5241 16.8331Z" fill="#997B3D"/>
<path fill-rule="evenodd" clip-rule="evenodd" d="M17.351 18.4496L16.9233 19.0246L16.6821 19.4152L16.7369 19.5562L16.9233 19.3175L17.044 19.1765L17.1646 18.992L17.2961 18.8185L17.4058 18.5906L17.351 18.4496Z" fill="#997B3D"/>
<path fill-rule="evenodd" clip-rule="evenodd" d="M18.1732 17.3972L18.4035 17.4081L18.4254 17.6033L18.1732 17.625V17.3972Z" fill="#997B3D"/>
<path fill-rule="evenodd" clip-rule="evenodd" d="M17.9265 17.6305L18.1568 17.6413L18.1787 17.8366L17.9265 17.8583V17.6305Z" fill="#997B3D"/>
<path fill-rule="evenodd" clip-rule="evenodd" d="M15.5418 19.9576L15.6953 19.8925L15.9256 20.0661L16.0462 20.3373L15.9913 20.652L16.0133 21.0425L15.7501 21.2921L15.6076 21.2595V21.1076L15.7282 21.0208L15.8159 20.8798L15.9146 20.6628L15.5089 20.576L15.487 20.2506L15.5418 19.9576Z" fill="#997B3D"/>
<path fill-rule="evenodd" clip-rule="evenodd" d="M15.1252 19.9902V20.2072L15.1909 20.7388L15.0923 21.2595L14.9826 21.444L14.6427 21.7477L14.0726 21.726L13.8752 21.5742L13.7875 21.3246L13.8314 20.9666L13.8752 20.6628L14.0068 20.5543L14.1055 20.6845L13.9958 20.8798L14.0397 21.0208L14.1384 21.2487L14.3467 21.3789H14.5002L14.7085 21.2161L14.9717 20.9991L15.0155 20.7822L14.9936 20.576L14.9168 20.359L14.9936 20.0444L15.1252 19.9902Z" fill="#997B3D"/>
<path fill-rule="evenodd" clip-rule="evenodd" d="M14.3357 20.4567L14.4892 20.3807L14.6318 20.4241L14.7304 20.652L14.5769 20.7713L14.3576 20.7171L14.3357 20.4567Z" fill="#997B3D"/>
<path fill-rule="evenodd" clip-rule="evenodd" d="M13.5834 19.8805L13.6042 21.0444L13.5212 21.2034L13.3917 21.4751L13.1844 21.6648L12.972 21.7007L12.7388 21.6289L12.6973 21.5674L12.5885 21.5777L12.4434 21.8033L12.3502 21.8955L11.8993 21.9571L11.9149 21.8084L12.0548 21.6905L12.2154 21.6033L12.3346 21.4546L12.5004 21.4136L12.5678 21.2649L12.6092 21.0905L12.6352 20.8393L12.7543 20.7778L12.7751 20.947V21.1469L12.915 21.2751L13.0445 21.3777L13.1896 21.3623L13.2725 21.2187L13.3969 20.988L13.3865 20.747L13.3658 20.4701V19.9933L13.5834 19.8805Z" fill="#997B3D"/>
<path fill-rule="evenodd" clip-rule="evenodd" d="M11.8579 20.5265L12.0652 20.6291L12.1274 20.8291L12.1429 21.0598L12.0393 21.2854L11.9564 21.5007L11.8372 21.634L11.718 21.7725L11.4745 21.8391L11.2983 21.8955L11.2309 21.7366L11.3501 21.6135L11.5107 21.5982L11.6817 21.4495L11.8527 21.3726L11.8838 21.2239L11.7128 21.2392L11.5626 21.1828L11.5522 20.8598L11.6455 20.7727L11.6973 20.6137L11.8579 20.5265Z" fill="#997B3D"/>
<path fill-rule="evenodd" clip-rule="evenodd" d="M11.3657 20.0548L11.2517 20.5317L11.0081 21.0136L10.889 21.27L10.6869 21.4648L10.5314 21.6648L10.3967 21.752L10.2412 21.8545L9.78524 21.8904L9.54169 21.7366L9.41215 21.593L9.38106 21.4751L9.39142 21.0239L9.5676 20.8803L9.64014 21.0803L9.66087 21.2495L9.87333 21.4546L10.2568 21.511L10.521 21.3674L10.7387 21.1469L10.8579 20.7829L11.003 20.3061L11.0962 20.0548L11.2828 19.983L11.3657 20.0548Z" fill="#997B3D"/>
<path fill-rule="evenodd" clip-rule="evenodd" d="M10.6713 20.0189L10.5417 20.5317L10.2619 20.9367L10.1065 21.0854L10.1479 20.788L10.2878 20.4086L10.4692 19.9933L10.6402 19.9318L10.6713 20.0189Z" fill="#997B3D"/>
<path fill-rule="evenodd" clip-rule="evenodd" d="M10.2286 20.0508L9.88974 20.2149L9.34182 20.272L8.93088 20.2577L9.03182 20.3861L9.34182 20.6358L9.0967 20.7927L8.42622 20.8997L8.03691 20.9069L7.47458 20.7856L7.14294 20.6572L6.6527 20.4146L5.93175 19.8225L5.80198 19.5086L5.86687 19.1448L5.98222 18.9593L6.09036 18.7739L6.29944 18.6383L6.19129 18.4885L5.93896 18.3173L5.95338 18.1532L5.99664 17.8964L5.78035 17.8536L5.76593 18.1889L5.44872 18.2246L5.2036 18.2174L5.1315 18.1104L4.68452 18.1176L4.64126 18.2816L4.6701 18.5456L4.75661 18.6383L4.9008 18.7525L5.07383 18.888L5.03057 19.0021L4.86475 18.9879L4.65568 18.8595L4.37451 18.7525L4.24474 18.5741L4.22311 18.139L4.39614 18.0391L4.54754 18.0462L4.61242 17.9963H5.03778L5.22523 18.0391L5.49918 18.1033L5.5136 18.0106L5.45593 17.9107L5.32616 17.8465L5.29011 17.7752L5.37662 17.6681H5.62175L5.67942 17.8108L5.91012 17.6967L6.12641 17.7252L6.21292 17.818L6.28502 18.0605L6.20571 18.1461L6.31385 18.3673L6.4292 18.4172L6.59502 18.3173L6.70316 18.2246L6.8834 18.1675L6.91224 18.2816L6.77526 18.3744L6.63107 18.5099L6.47246 18.6811L6.37153 18.8095L6.26339 18.8737L6.23455 19.102V19.366L6.30665 19.5372L6.83293 20.0651L7.04922 20.1863L7.20783 20.2934L7.48178 20.4146L7.88551 20.543L8.36134 20.6643L8.72902 20.6358L8.61367 20.5002L8.46948 20.3219L8.54878 20.1792L8.75786 20.1293L9.06065 20.0223L9.46438 20.0365L9.60857 20.0294L10.1421 19.9581L10.2214 20.0223L10.2286 20.0508Z" fill="#997B3D"/>
<path fill-rule="evenodd" clip-rule="evenodd" d="M9.26973 19.473L9.42834 19.5657V19.7298L9.33461 19.8439L9.06786 19.7298L9.07507 19.6371L9.17601 19.4944L9.26973 19.473Z" fill="#997B3D"/>
<path fill-rule="evenodd" clip-rule="evenodd" d="M5.82361 18.5385H5.98222L6.0471 18.5955L5.97501 18.7382H5.84524L5.76593 18.6669L5.82361 18.5385Z" fill="#997B3D"/>
<path fill-rule="evenodd" clip-rule="evenodd" d="M5.56407 18.7025H5.72268L5.78035 18.7453L5.77314 18.8809L5.65779 18.9522L5.49918 18.8666L5.56407 18.7025Z" fill="#997B3D"/>
<path fill-rule="evenodd" clip-rule="evenodd" d="M5.07383 18.3458H5.40546V18.5884L5.05941 18.5955L5.07383 18.3458Z" fill="#997B3D"/>
<path fill-rule="evenodd" clip-rule="evenodd" d="M11.8927 20.8548L11.8044 20.861L11.7981 20.9609H11.9053L11.8927 20.8548Z" fill="#3A3734"/>
<path fill-rule="evenodd" clip-rule="evenodd" d="M15.7823 20.2603L15.6939 20.2665L15.6876 20.3664H15.7949L15.7823 20.2603Z" fill="#3A3734"/>
<path fill-rule="evenodd" clip-rule="evenodd" d="M5.49738 17.4327L4.72116 17.8281L4.52711 17.8055L4.64126 17.6699L5.07503 17.4327L5.40606 17.3311L5.49738 17.4327Z" fill="#997B3D"/>
<path fill-rule="evenodd" clip-rule="evenodd" d="M5.5887 16.9132L5.10928 17.2181L4.57277 17.2859L4.24174 17.252L4.12759 17.0713L4.15042 16.8228L3.93353 16.6308L3.55684 16.2693L3.28288 16.1338L3.06599 16.0096L2.81487 15.8853L2.6094 15.7498L2.65506 15.6029L2.74638 15.6142L2.95185 15.7611L3.28288 15.874L3.59109 15.9983L3.8308 16.2016L4.02485 16.3484L4.15042 16.4839H4.27598L4.35589 16.2806L4.52711 16.258L4.80107 16.3371L4.92663 16.4614L4.94947 16.755L4.83531 16.8454L4.50428 16.9357L4.5956 17.1165L4.78966 17.1391L5.06361 16.947L5.33757 16.8567L5.5887 16.9132Z" fill="#997B3D"/>
<path fill-rule="evenodd" clip-rule="evenodd" d="M4.21891 15.6707L4.17325 15.2528L3.97919 15.1285L3.75089 14.9026L3.44269 14.3379L3.30571 13.9313L3.26005 13.3665L3.29429 13.0164L3.3742 12.9147L3.27146 12.8018L3.12307 12.621L2.95185 12.5533L2.84911 12.4742L2.72355 12.5194L2.86053 12.6888L2.95185 12.8131V12.9486L2.88336 13.0503L2.84911 13.4908L2.95185 13.8635L2.89477 13.9877L2.95185 14.1459L3.06599 14.3492L3.19156 14.5864L3.43127 14.9478L3.55684 15.0721L3.81938 15.2867L3.8308 15.4448L3.79655 15.5465L3.94495 15.6368L4.00202 15.7272L4.21891 15.6707Z" fill="#997B3D"/>
<path fill-rule="evenodd" clip-rule="evenodd" d="M3.15732 15.3544L3.47693 15.3657V15.5916H3.13448L3.15732 15.3544Z" fill="#997B3D"/>
<path fill-rule="evenodd" clip-rule="evenodd" d="M3.89929 13.8861L4.03627 14.0216L4.11617 14.2136L3.97919 14.304L3.88787 14.1572L3.89929 13.8861Z" fill="#997B3D"/>
<path fill-rule="evenodd" clip-rule="evenodd" d="M2.92902 14.6767L2.76921 14.5638L2.6094 14.6654L2.64365 14.8462L2.84911 14.9139L2.92902 14.6767Z" fill="#997B3D"/>
<path fill-rule="evenodd" clip-rule="evenodd" d="M2.74638 14.3322L2.58657 14.2193L2.42676 14.3209L2.461 14.5017L2.66647 14.5694L2.74638 14.3322Z" fill="#997B3D"/>
<path fill-rule="evenodd" clip-rule="evenodd" d="M3.81938 12.4064L3.95636 12.5533L3.88787 12.7001L3.94495 12.8356L4.08193 12.926L3.96778 13.118H3.79655L3.78514 12.8921L3.65958 12.6775L3.67099 12.4742L3.81938 12.4064Z" fill="#997B3D"/>
<path fill-rule="evenodd" clip-rule="evenodd" d="M17.2054 5.22449L17.0916 5.23199V5.34457L17.2281 5.33706L17.2054 5.22449Z" stroke="#5D5D43" stroke-width="0.0598445"/>
<path fill-rule="evenodd" clip-rule="evenodd" d="M10.088 3.44173L9.99968 3.44797L9.99338 3.54784H10.1006L10.088 3.44173Z" stroke="#5D5D43" stroke-width="0.0598445"/>
<path fill-rule="evenodd" clip-rule="evenodd" d="M5.29146 6.6996L5.20315 6.70585L5.19684 6.80572H5.30408L5.29146 6.6996Z" stroke="#5D5D43" stroke-width="0.0598445"/>
<path fill-rule="evenodd" clip-rule="evenodd" d="M20.1635 7.22839L19.6781 7.71623L19.3216 7.68621L19.1471 7.41602L19.0182 7.34097L19.003 7.27342L18.9044 7.26592L18.8968 7.04827L18.6996 6.92068L18.5858 6.62047L18.0928 6.3803L17.4178 5.61476L17.304 5.5247L17.2205 5.5322L17.1523 5.62977L16.8716 5.58474L16.9096 5.17945V5.11941L15.9084 5.12692L15.8098 4.83421L16.1814 4.47396L16.1359 4.84172L17.1371 4.90176L17.4405 5.02935L17.5164 5.31455L17.7515 5.65229L18.6389 6.3803L18.8741 6.47787L19.0713 6.59795L18.9651 6.86063L19.1926 6.9507L19.2002 7.1008L19.5036 7.28843L19.3823 7.40852L19.3898 7.49108L19.6553 7.46856L19.9435 7.16835L20.1635 7.22839Z" stroke="#5D5D43" stroke-width="0.0598445"/>
<path fill-rule="evenodd" clip-rule="evenodd" d="M19.1699 7.79129L19.0409 7.8063L19.0485 8.00143L19.2078 7.97892L19.1699 7.79129Z" stroke="#5D5D43" stroke-width="0.0598445"/>
<path fill-rule="evenodd" clip-rule="evenodd" d="M18.9727 5.04436L19.3064 5.41212L19.0789 5.56222L18.9575 5.41212L18.9651 5.2395L18.7755 5.11191L18.9727 5.04436Z" stroke="#5D5D43" stroke-width="0.0598445"/>
<path fill-rule="evenodd" clip-rule="evenodd" d="M17.2594 3.51455L16.6002 4.61314L16.4441 4.59598L17.005 3.52027L17.2594 3.51455Z" stroke="#5D5D43" stroke-width="0.0598445"/>
<path fill-rule="evenodd" clip-rule="evenodd" d="M16.5251 3.22273L16.0798 4.30988L15.8138 4.58453L15.5594 4.57309L15.4032 4.43004L15.3685 4.18973L14.0501 4.14395L13.5644 3.88647L13.3967 3.56604L13.4661 3.27423L13.362 3.31429L13.1596 3.5546L12.8416 3.99518L12.5929 3.88647L12.5177 3.7892L12.5235 3.25707L12.7548 2.99958L12.7317 3.38295L12.8069 3.63471L13.1249 3.33717L13.414 3.02819L13.5644 2.96525L13.6627 2.90803L13.761 3.03391L13.6858 3.26279L13.7147 3.49738L13.7899 3.63471L13.9171 3.7377L14.0848 3.83497L14.2467 3.88647L14.6746 3.93224L14.9059 3.99518L15.1372 3.94369L15.3685 3.90363L15.4437 3.72626L15.5594 3.40011L15.7039 3.14835L15.8196 3.0053L15.9873 2.97097L16.0162 3.17696L15.9121 3.24562L15.8312 3.50311L15.6982 3.75487L15.6172 4.09246L15.6635 4.24122L15.8658 4.27555L15.941 4.06384L16.1665 3.43444L16.2591 3.2399L16.4499 3.1598L16.5251 3.22273Z" stroke="#5D5D43" stroke-width="0.0598445"/>
<path fill-rule="evenodd" clip-rule="evenodd" d="M14.9291 3.01103L14.7672 3.18268L14.3566 3.20557L14.2756 3.07397L14.3566 2.91376L14.478 3.0053H14.7035L14.7903 2.91376L14.958 2.9252L14.9291 3.01103Z" stroke="#5D5D43" stroke-width="0.0598445"/>
<path fill-rule="evenodd" clip-rule="evenodd" d="M12.258 2.26199L12.3464 2.93612L12.3716 3.51039L12.176 3.34809L12.1634 2.22453L12.258 2.26199Z" stroke="#5D5D43" stroke-width="0.0598445"/>
<path fill-rule="evenodd" clip-rule="evenodd" d="M11.7471 2.23078L11.8859 2.37434L11.9868 2.94861L12.0183 3.44797L11.9616 3.57905L11.8228 3.78504L11.5831 3.86618L11.2424 3.96605L11.0216 4.10338L10.845 4.20325L10.6999 4.38427L10.4097 4.45293L10.2836 4.2407L10.3908 3.90363L10.4665 3.94733L10.4602 4.13459L10.6431 4.11586L10.8765 3.97854L11.0216 3.8537L11.2487 3.76631L11.6335 3.64147L11.7786 3.52911L11.7912 3.20453L11.7218 2.89867L11.6209 2.54912L11.5768 2.33689L11.7408 2.20581L11.7471 2.23078Z" stroke="#5D5D43" stroke-width="0.0598445"/>
<path fill-rule="evenodd" clip-rule="evenodd" d="M10.3593 3.15459L10.5548 2.9923L10.7756 2.90491L11.2235 3.02351L11.6651 3.07969L11.6335 3.27319L11.3181 3.3793L11.0153 3.50414L10.7441 3.62899L10.334 3.71013L10.1889 3.86618L9.89875 3.87242L9.70319 3.97229L9.52656 4.00975L9.45717 4.22822L9.12284 4.57777L8.96513 4.70261L8.57401 4.81497L8.34692 4.80248L8.24599 4.70261L8.09459 4.55904L8.06304 4.22198L8.17659 4.27191L8.22075 4.38427L8.37846 4.45917L8.69387 4.4779L8.93359 4.34057L9.09129 4.21573L9.25531 4.09089L9.31839 3.97854L9.22377 3.75383L9.24269 3.50414L9.30577 3.45421L9.38147 3.46045L9.43194 3.6165L9.58334 3.66644L9.79151 3.6602L9.8609 3.34185L9.97445 3.26071L10.1448 3.28567L10.2899 3.3793L10.599 3.40427L10.7567 3.39179L10.7819 3.32313L10.7945 3.24822L10.3971 3.25446L10.3593 3.15459Z" stroke="#5D5D43" stroke-width="0.0598445"/>
<path fill-rule="evenodd" clip-rule="evenodd" d="M11.1289 2.53039L10.8324 2.59281L10.8198 2.71765L11.1604 2.7239L11.1289 2.53039Z" stroke="#5D5D43" stroke-width="0.0598445"/>
<path fill-rule="evenodd" clip-rule="evenodd" d="M9.57703 2.443L9.67165 2.76135L9.56441 2.81128L9.46348 2.64275L9.49502 2.43052L9.57703 2.443Z" stroke="#5D5D43" stroke-width="0.0598445"/>
<path fill-rule="evenodd" clip-rule="evenodd" d="M8.73803 3.03599L8.90835 3.07969L8.95251 3.27943L8.83265 3.37306L8.59925 3.28567L8.61186 3.13587L8.73803 3.03599Z" stroke="#5D5D43" stroke-width="0.0598445"/>
<path fill-rule="evenodd" clip-rule="evenodd" d="M8.13244 3.01994L8.70649 4.05166L8.6362 4.22554L8.49561 4.09803L8.03871 3.40249L8.13244 3.01994Z" stroke="#5D5D43" stroke-width="0.0598445"/>
<path fill-rule="evenodd" clip-rule="evenodd" d="M7.27721 3.2402L7.81612 4.04007L7.89813 4.23714L7.90985 4.82834L7.64039 5.10656L7.28893 5.62821L7.17178 5.91802L6.98433 6.03394L6.78517 5.9412L6.73831 5.62821L6.86718 5.61662L6.92575 5.69776L7.07805 5.66299L7.17178 5.43114L7.37094 5.0486L7.76926 4.64286L7.80441 4.4342L7.28893 3.71548L7.18349 3.49523L7.27721 3.2402Z" stroke="#5D5D43" stroke-width="0.0598445"/>
<path fill-rule="evenodd" clip-rule="evenodd" d="M6.36342 4.85153L6.422 4.5849L6.56258 4.4342L6.84375 4.37624L7.05462 4.32987L7.40609 4.21395L7.47638 4.48057L7.27721 4.70083L6.92575 5.1877L6.57429 5.40796L6.36342 5.38477L6.28141 5.51229L6.22284 5.80209L6.08225 6.02235L5.55506 6.50923L5.43791 6.60196L5.55506 6.72948V6.93814L5.44962 7.01928L5.14502 7.00769L5.07473 6.91495L5.03958 7.32069L5.06301 7.71482L5.01615 7.93508L4.77013 8.17851L4.61783 8.15533L4.38352 8.06259L4.2898 7.79597L4.30151 7.69164L4.45381 7.73801L4.47725 7.84234H4.65298L4.78185 7.71482L4.8287 7.16998V6.85699L4.91071 6.43967L5.18017 6.3933L5.3559 6.25419L5.68393 6.03394L5.91823 5.72095L6.0471 5.53547L6.16426 5.16452L6.28141 5.15293L6.36342 5.19929L6.45714 5.15293L6.69145 4.96745L6.87889 4.81675L6.9609 4.66605L6.82032 4.68924L6.66802 4.77038L6.55086 4.82834L6.36342 4.85153Z" stroke="#5D5D43" stroke-width="0.0598445"/>
<path fill-rule="evenodd" clip-rule="evenodd" d="M6.85546 3.80822L6.56258 4.13281L6.6563 4.27191L6.79688 4.24873L7.00776 3.94733L6.91404 3.81981L6.85546 3.80822Z" stroke="#5D5D43" stroke-width="0.0598445"/>
<path fill-rule="evenodd" clip-rule="evenodd" d="M5.28561 5.02541L5.27389 5.26885L5.09816 5.38477L5.03958 5.24566L5.0513 5.11815L5.2036 5.01382L5.28561 5.02541Z" stroke="#5D5D43" stroke-width="0.0598445"/>
<path fill-rule="evenodd" clip-rule="evenodd" d="M6.25798 6.12668L6.38685 5.97598L6.56258 5.98757L6.58601 6.16146L6.52744 6.26578L6.38685 6.32375L6.26969 6.20783L6.25798 6.12668Z" stroke="#5D5D43" stroke-width="0.0598445"/>
<path fill-rule="evenodd" clip-rule="evenodd" d="M6.03539 6.2426L6.15254 6.23101L6.25798 6.30056L6.28141 6.43967L6.25798 6.52082L6.08225 6.53241L6.02367 6.3933L6.03539 6.2426Z" stroke="#5D5D43" stroke-width="0.0598445"/>
<path fill-rule="evenodd" clip-rule="evenodd" d="M20.3473 12.3834L20.6133 12.2117L20.8215 12.3147L20.8562 12.5665L20.8678 12.864L20.9719 13.0128L21.1106 12.7954L21.3188 12.761L21.4923 12.9556L21.608 13.1501L21.6773 13.4019L21.6542 13.7109L21.5386 13.7795L21.4113 13.9626L21.1453 13.9855L20.9603 13.9283L20.9834 14.6607L20.914 15.3588L20.7753 15.6677L20.5902 15.9538L20.5208 16.0454L20.648 16.2628L20.7984 16.5489L20.81 17.0181L20.7521 17.2126L20.463 17.5788L20.2201 17.636L20.0235 17.5674L19.85 17.4644L19.7344 17.3156L19.6881 17.1669H19.85L19.9194 17.2584L20.1854 17.2698L20.2895 17.1669L20.4283 17.1096L20.5324 16.9265L20.5555 16.6977L20.5093 16.3887L20.3936 16.1255L20.3011 15.9653L20.2201 15.8165L20.3127 15.7249L20.3936 15.5304L20.5324 15.2786L20.5787 15.004L20.7753 14.6836V14.5691L20.7984 14.4776L20.7753 14.3517L20.7984 14.2373L20.7753 14.1343L20.81 14.0427L20.7753 13.9626L20.7174 13.8596L20.544 13.7452L20.2548 13.6651L20.1045 13.5163L20.0351 13.3676H20.0929L20.2548 13.4705L20.4861 13.585L20.6133 13.6765L20.8793 13.6994L21.0413 13.791L21.1222 13.7223L21.2726 13.6422L21.3651 13.5392L21.3766 13.3561L21.3651 13.1616L21.2147 13.2417L21.1916 13.482L21.0297 13.5392L20.9372 13.4248L20.8678 13.2874L20.8215 13.1501L20.8331 12.9785L20.6249 12.8068L20.544 12.7496L20.4052 12.6924L20.3242 12.5207L20.3473 12.3834Z" stroke="#5D5D43" stroke-width="0.0598445"/>
<path fill-rule="evenodd" clip-rule="evenodd" d="M21.7236 12.9098L21.8393 12.8526L21.9896 12.8984L22.0359 13.0586L21.8855 13.1387L21.712 13.0815L21.6773 12.967L21.7236 12.9098Z" stroke="#5D5D43" stroke-width="0.0598445"/>
<path fill-rule="evenodd" clip-rule="evenodd" d="M21.3882 14.4776L21.3535 14.7179L21.2263 14.8667V15.0154L21.3998 15.0269L21.4923 14.798L21.527 14.5234L21.3882 14.4776Z" stroke="#5D5D43" stroke-width="0.0598445"/>
<path fill-rule="evenodd" clip-rule="evenodd" d="M19.5725 15.3702L19.4337 15.313L19.3412 15.4617L19.2602 15.5419L19.214 15.7593L19.3296 15.8508L19.399 15.7249L19.5147 15.6563L19.584 15.5647L19.5725 15.3702Z" stroke="#5D5D43" stroke-width="0.0598445"/>
<path fill-rule="evenodd" clip-rule="evenodd" d="M20.6584 12.4604L20.5701 12.4666L20.5638 12.5665H20.671L20.6584 12.4604Z" stroke="#5D5D43" stroke-width="0.0598445"/>
<path fill-rule="evenodd" clip-rule="evenodd" d="M18.7215 16.4967L19.2368 16.8873L19.6754 17.4515L19.785 17.6576L19.6863 17.7661L19.5328 17.5708L19.2916 17.3647L19.0943 17.1694L18.9188 16.9741L18.8092 16.8114L18.7215 16.4967Z" stroke="#5D5D43" stroke-width="0.0598445"/>
<path fill-rule="evenodd" clip-rule="evenodd" d="M18.5241 16.8331L19.1381 17.4623L19.2149 17.625L19.2807 18.0265L19.2039 18.2651L18.8421 18.2868L18.7215 18.6991L18.4802 18.8836L18.3487 19.0354L18.2061 19.209L18.0746 19.4911L17.9101 19.7298L17.4167 20.218L17.033 20.4241L16.5834 20.4567L16.1887 20.218L16.0681 19.9576L15.9036 19.6755L15.783 19.4477L15.7282 19.1656L15.8269 19.1222L15.9365 19.3718L16.2435 19.8708L16.4518 20.0878L16.6931 20.1638L16.9562 20.0444L17.4167 19.784L17.8772 19.3284L18.1294 18.9486L18.1623 18.8619L17.8334 18.7859V18.4279L17.932 18.2326L18.1732 18.1675L18.3816 18.2218L18.4583 18.4279L18.5789 18.2651L18.6557 18.2218L18.6666 17.9722L19.1052 17.9505L19.1162 17.7552L18.9408 17.5382L18.5899 17.2236L18.5241 16.8331Z" stroke="#5D5D43" stroke-width="0.0598445"/>
<path fill-rule="evenodd" clip-rule="evenodd" d="M17.351 18.4496L16.9233 19.0246L16.6821 19.4152L16.7369 19.5562L16.9233 19.3175L17.044 19.1765L17.1646 18.992L17.2961 18.8185L17.4058 18.5906L17.351 18.4496Z" stroke="#5D5D43" stroke-width="0.0598445"/>
<path fill-rule="evenodd" clip-rule="evenodd" d="M18.1732 17.3972L18.4035 17.4081L18.4254 17.6033L18.1732 17.625V17.3972Z" stroke="#5D5D43" stroke-width="0.0598445"/>
<path fill-rule="evenodd" clip-rule="evenodd" d="M17.9265 17.6305L18.1568 17.6413L18.1787 17.8366L17.9265 17.8583V17.6305Z" stroke="#5D5D43" stroke-width="0.0598445"/>
<path fill-rule="evenodd" clip-rule="evenodd" d="M15.5418 19.9576L15.6953 19.8925L15.9256 20.0661L16.0462 20.3373L15.9913 20.652L16.0133 21.0425L15.7501 21.2921L15.6076 21.2595V21.1076L15.7282 21.0208L15.8159 20.8798L15.9146 20.6628L15.5089 20.576L15.487 20.2506L15.5418 19.9576Z" stroke="#5D5D43" stroke-width="0.0598445"/>
<path fill-rule="evenodd" clip-rule="evenodd" d="M15.1252 19.9902V20.2072L15.1909 20.7388L15.0923 21.2595L14.9826 21.444L14.6427 21.7477L14.0726 21.726L13.8752 21.5742L13.7875 21.3246L13.8314 20.9666L13.8752 20.6628L14.0068 20.5543L14.1055 20.6845L13.9958 20.8798L14.0397 21.0208L14.1384 21.2487L14.3467 21.3789H14.5002L14.7085 21.2161L14.9717 20.9991L15.0155 20.7822L14.9936 20.576L14.9168 20.359L14.9936 20.0444L15.1252 19.9902Z" stroke="#5D5D43" stroke-width="0.0598445"/>
<path fill-rule="evenodd" clip-rule="evenodd" d="M14.3357 20.4567L14.4892 20.3807L14.6318 20.4241L14.7304 20.652L14.5769 20.7713L14.3576 20.7171L14.3357 20.4567Z" stroke="#5D5D43" stroke-width="0.0598445"/>
<path fill-rule="evenodd" clip-rule="evenodd" d="M13.5834 19.8805L13.6042 21.0444L13.5212 21.2034L13.3917 21.4751L13.1844 21.6648L12.972 21.7007L12.7388 21.6289L12.6973 21.5674L12.5885 21.5777L12.4434 21.8033L12.3502 21.8955L11.8993 21.9571L11.9149 21.8084L12.0548 21.6905L12.2154 21.6033L12.3346 21.4546L12.5004 21.4136L12.5678 21.2649L12.6092 21.0905L12.6352 20.8393L12.7543 20.7778L12.7751 20.947V21.1469L12.915 21.2751L13.0445 21.3777L13.1896 21.3623L13.2725 21.2187L13.3969 20.988L13.3865 20.747L13.3658 20.4701V19.9933L13.5834 19.8805Z" stroke="#5D5D43" stroke-width="0.0598445"/>
<path fill-rule="evenodd" clip-rule="evenodd" d="M11.8579 20.5265L12.0652 20.6291L12.1274 20.8291L12.1429 21.0598L12.0393 21.2854L11.9564 21.5007L11.8372 21.634L11.718 21.7725L11.4745 21.8391L11.2983 21.8955L11.2309 21.7366L11.3501 21.6135L11.5107 21.5982L11.6817 21.4495L11.8527 21.3726L11.8838 21.2239L11.7128 21.2392L11.5626 21.1828L11.5522 20.8598L11.6455 20.7727L11.6973 20.6137L11.8579 20.5265Z" stroke="#5D5D43" stroke-width="0.0598445"/>
<path fill-rule="evenodd" clip-rule="evenodd" d="M11.3657 20.0548L11.2517 20.5317L11.0081 21.0136L10.889 21.27L10.6869 21.4648L10.5314 21.6648L10.3967 21.752L10.2412 21.8545L9.78524 21.8904L9.54169 21.7366L9.41215 21.593L9.38106 21.4751L9.39142 21.0239L9.5676 20.8803L9.64014 21.0803L9.66087 21.2495L9.87333 21.4546L10.2568 21.511L10.521 21.3674L10.7387 21.1469L10.8579 20.7829L11.003 20.3061L11.0962 20.0548L11.2828 19.983L11.3657 20.0548Z" stroke="#5D5D43" stroke-width="0.0598445"/>
<path fill-rule="evenodd" clip-rule="evenodd" d="M10.6713 20.0189L10.5417 20.5317L10.2619 20.9367L10.1065 21.0854L10.1479 20.788L10.2878 20.4086L10.4692 19.9933L10.6402 19.9318L10.6713 20.0189Z" stroke="#5D5D43" stroke-width="0.0598445"/>
<path fill-rule="evenodd" clip-rule="evenodd" d="M10.2286 20.0508L9.88974 20.2149L9.34182 20.272L8.93088 20.2577L9.03182 20.3861L9.34182 20.6358L9.0967 20.7927L8.42622 20.8997L8.03691 20.9069L7.47458 20.7856L7.14294 20.6572L6.6527 20.4146L5.93175 19.8225L5.80198 19.5086L5.86687 19.1448L5.98222 18.9593L6.09036 18.7739L6.29944 18.6383L6.19129 18.4885L5.93896 18.3173L5.95338 18.1532L5.99664 17.8964L5.78035 17.8536L5.76593 18.1889L5.44872 18.2246L5.2036 18.2174L5.1315 18.1104L4.68452 18.1176L4.64126 18.2816L4.6701 18.5456L4.75661 18.6383L4.9008 18.7525L5.07383 18.888L5.03057 19.0021L4.86475 18.9879L4.65568 18.8595L4.37451 18.7525L4.24474 18.5741L4.22311 18.139L4.39614 18.0391L4.54754 18.0462L4.61242 17.9963H5.03778L5.22523 18.0391L5.49918 18.1033L5.5136 18.0106L5.45593 17.9107L5.32616 17.8465L5.29011 17.7752L5.37662 17.6681H5.62175L5.67942 17.8108L5.91012 17.6967L6.12641 17.7252L6.21292 17.818L6.28502 18.0605L6.20571 18.1461L6.31385 18.3673L6.4292 18.4172L6.59502 18.3173L6.70316 18.2246L6.8834 18.1675L6.91224 18.2816L6.77526 18.3744L6.63107 18.5099L6.47246 18.6811L6.37153 18.8095L6.26339 18.8737L6.23455 19.102V19.366L6.30665 19.5372L6.83293 20.0651L7.04922 20.1863L7.20783 20.2934L7.48178 20.4146L7.88551 20.543L8.36134 20.6643L8.72902 20.6358L8.61367 20.5002L8.46948 20.3219L8.54878 20.1792L8.75786 20.1293L9.06065 20.0223L9.46438 20.0365L9.60857 20.0294L10.1421 19.9581L10.2214 20.0223L10.2286 20.0508Z" stroke="#5D5D43" stroke-width="0.0598445"/>
<path fill-rule="evenodd" clip-rule="evenodd" d="M9.26973 19.473L9.42834 19.5657V19.7298L9.33461 19.8439L9.06786 19.7298L9.07507 19.6371L9.17601 19.4944L9.26973 19.473Z" stroke="#5D5D43" stroke-width="0.0598445"/>
<path fill-rule="evenodd" clip-rule="evenodd" d="M5.82361 18.5385H5.98222L6.0471 18.5955L5.97501 18.7382H5.84524L5.76593 18.6669L5.82361 18.5385Z" stroke="#5D5D43" stroke-width="0.0598445"/>
<path fill-rule="evenodd" clip-rule="evenodd" d="M5.56407 18.7025H5.72268L5.78035 18.7453L5.77314 18.8809L5.65779 18.9522L5.49918 18.8666L5.56407 18.7025Z" stroke="#5D5D43" stroke-width="0.0598445"/>
<path fill-rule="evenodd" clip-rule="evenodd" d="M5.07383 18.3458H5.40546V18.5884L5.05941 18.5955L5.07383 18.3458Z" stroke="#5D5D43" stroke-width="0.0598445"/>
<path fill-rule="evenodd" clip-rule="evenodd" d="M11.8927 20.8548L11.8044 20.861L11.7981 20.9609H11.9053L11.8927 20.8548Z" stroke="#5D5D43" stroke-width="0.0598445"/>
<path fill-rule="evenodd" clip-rule="evenodd" d="M15.7823 20.2603L15.6939 20.2665L15.6876 20.3664H15.7949L15.7823 20.2603Z" stroke="#5D5D43" stroke-width="0.0598445"/>
<path fill-rule="evenodd" clip-rule="evenodd" d="M5.49738 17.4327L4.72116 17.8281L4.52711 17.8055L4.64126 17.6699L5.07503 17.4327L5.40606 17.3311L5.49738 17.4327Z" stroke="#5D5D43" stroke-width="0.0598445"/>
<path fill-rule="evenodd" clip-rule="evenodd" d="M5.5887 16.9132L5.10928 17.2181L4.57277 17.2859L4.24174 17.252L4.12759 17.0713L4.15042 16.8228L3.93353 16.6308L3.55684 16.2693L3.28288 16.1338L3.06599 16.0096L2.81487 15.8853L2.6094 15.7498L2.65506 15.6029L2.74638 15.6142L2.95185 15.7611L3.28288 15.874L3.59109 15.9983L3.8308 16.2016L4.02485 16.3484L4.15042 16.4839H4.27598L4.35589 16.2806L4.52711 16.258L4.80107 16.3371L4.92663 16.4614L4.94947 16.755L4.83531 16.8454L4.50428 16.9357L4.5956 17.1165L4.78966 17.1391L5.06361 16.947L5.33757 16.8567L5.5887 16.9132Z" stroke="#5D5D43" stroke-width="0.0598445"/>
<path fill-rule="evenodd" clip-rule="evenodd" d="M4.21891 15.6707L4.17325 15.2528L3.97919 15.1285L3.75089 14.9026L3.44269 14.3379L3.30571 13.9313L3.26005 13.3665L3.29429 13.0164L3.3742 12.9147L3.27146 12.8018L3.12307 12.621L2.95185 12.5533L2.84911 12.4742L2.72355 12.5194L2.86053 12.6888L2.95185 12.8131V12.9486L2.88336 13.0503L2.84911 13.4908L2.95185 13.8635L2.89477 13.9877L2.95185 14.1459L3.06599 14.3492L3.19156 14.5864L3.43127 14.9478L3.55684 15.0721L3.81938 15.2867L3.8308 15.4448L3.79655 15.5465L3.94495 15.6368L4.00202 15.7272L4.21891 15.6707Z" stroke="#5D5D43" stroke-width="0.0598445"/>
<path fill-rule="evenodd" clip-rule="evenodd" d="M3.15732 15.3544L3.47693 15.3657V15.5916H3.13448L3.15732 15.3544Z" stroke="#5D5D43" stroke-width="0.0598445"/>
<path fill-rule="evenodd" clip-rule="evenodd" d="M3.89929 13.8861L4.03627 14.0216L4.11617 14.2136L3.97919 14.304L3.88787 14.1572L3.89929 13.8861Z" stroke="#5D5D43" stroke-width="0.0598445"/>
<path fill-rule="evenodd" clip-rule="evenodd" d="M2.92902 14.6767L2.76921 14.5638L2.6094 14.6654L2.64365 14.8462L2.84911 14.9139L2.92902 14.6767Z" stroke="#5D5D43" stroke-width="0.0598445"/>
<path fill-rule="evenodd" clip-rule="evenodd" d="M2.74638 14.3322L2.58657 14.2193L2.42676 14.3209L2.461 14.5017L2.66647 14.5694L2.74638 14.3322Z" stroke="#5D5D43" stroke-width="0.0598445"/>
<path fill-rule="evenodd" clip-rule="evenodd" d="M3.81938 12.4064L3.95636 12.5533L3.88787 12.7001L3.94495 12.8356L4.08193 12.926L3.96778 13.118H3.79655L3.78514 12.8921L3.65958 12.6775L3.67099 12.4742L3.81938 12.4064Z" stroke="#5D5D43" stroke-width="0.0598445"/>
<path fill-rule="evenodd" clip-rule="evenodd" d="M19.6413 12.0201C19.6413 12.9882 19.4449 13.9468 19.0634 14.8412C18.6819 15.7356 18.1227 16.5482 17.4177 17.2327C16.7127 17.9173 15.8758 18.4603 14.9547 18.8307C14.0336 19.2012 13.0464 19.3919 12.0494 19.3919C11.0524 19.3919 10.0652 19.2012 9.14412 18.8307C8.22303 18.4603 7.3861 17.9173 6.68113 17.2327C5.97616 16.5482 5.41695 15.7356 5.03542 14.8412C4.65389 13.9468 4.45752 12.9882 4.45752 12.0201C4.45752 11.0521 4.65389 10.0935 5.03542 9.19912C5.41695 8.30474 5.97616 7.49209 6.68113 6.80756C7.3861 6.12303 8.22303 5.58004 9.14412 5.20957C10.0652 4.83911 11.0524 4.64844 12.0494 4.64844C13.0464 4.64844 14.0336 4.83911 14.9547 5.20957C15.8758 5.58004 16.7127 6.12303 17.4177 6.80756C18.1227 7.49209 18.6819 8.30474 19.0634 9.19912C19.4449 10.0935 19.6413 11.0521 19.6413 12.0201Z" fill="white"/>
<path fill-rule="evenodd" clip-rule="evenodd" d="M11.9239 4.72542L5.57765 8.38397L5.52246 15.6738L12.0067 19.3323L18.4357 15.6738L18.5461 15.5919L18.5185 8.46588L12.0619 4.69812L11.9239 4.72542Z" stroke="black" stroke-width="0.119689"/>
<path fill-rule="evenodd" clip-rule="evenodd" d="M6.46045 9.01191V15.155L12.0065 18.404L17.663 15.1277L17.6078 8.9027L12.0341 5.7356L6.46045 9.01191Z" stroke="black" stroke-width="0.119689"/>
<path fill-rule="evenodd" clip-rule="evenodd" d="M5.66949 8.40217L11.9716 4.77092L11.9771 5.70467L6.47887 8.93912L5.66949 8.40217Z" fill="#F6F6EF"/>
<path fill-rule="evenodd" clip-rule="evenodd" d="M12.081 4.77075L12.0989 5.71694L17.5861 8.82077L18.3904 8.45821L12.081 4.77075Z" fill="#5D5D43"/>
<path fill-rule="evenodd" clip-rule="evenodd" d="M5.63426 8.50891L6.42212 9.02767L6.4104 15.0875L5.56104 15.5947L5.63426 8.50891Z" fill="#A43037"/>
<path fill-rule="evenodd" clip-rule="evenodd" d="M17.6596 8.89962L18.4609 8.53921L18.49 15.5166L17.7033 15.0553L17.6596 8.89962Z" fill="#A43037"/>
<path fill-rule="evenodd" clip-rule="evenodd" d="M6.42823 15.195L11.9705 18.4488L11.952 19.2532L5.64308 15.6794L6.42823 15.195Z" fill="#0370B6"/>
<path fill-rule="evenodd" clip-rule="evenodd" d="M17.6839 15.174L18.4418 15.6136L12.0476 19.2512L12.0563 18.4323L17.6839 15.174Z" fill="#3A3734"/>
<path d="M17.6629 15.1004L18.5183 15.5919M12.0065 18.404V19.305M17.5802 8.87542L18.4907 8.46588M12.0341 5.73562V4.69812M6.43276 15.1277L5.5498 15.6738M6.46039 8.98463L5.57743 8.41127" stroke="black" stroke-width="0.119689"/>
<path fill-rule="evenodd" clip-rule="evenodd" d="M6.51591 9.91294L7.04017 10.4317L7.23331 10.5955L7.37127 10.5409L7.39887 10.2952V9.88563H7.6472L7.86794 9.77643L8.0335 9.558L8.30942 9.47609L8.44738 9.25767L8.08868 8.82083L8.3646 8.62972L8.66812 8.41129L8.91645 8.27478L9.4683 8.4659L9.99256 8.71162L10.3789 8.82083L10.5996 9.14846L10.9031 9.39419L11.7585 9.36689L11.9516 8.95735L12.1724 8.82083L12.4759 8.90274L12.8898 8.76623H13.1657L13.6348 9.31228L13.7451 9.5307L14.1866 9.69452L14.5453 9.85833L14.7109 9.99485L15.3731 9.94024L15.7594 9.80373H16.1181L16.3388 10.1587L16.7527 10.3225H17.139L17.5805 10.3498V8.93004L12.0344 5.76294L6.51591 9.04047V9.91294Z" fill="#FDE100"/>
<path fill-rule="evenodd" clip-rule="evenodd" d="M6.51588 10.1587L6.57106 10.3225L7.01254 10.8139L7.26087 11.1689L7.48161 11.6057L7.78513 11.9606L8.17143 12.3702L8.22661 12.5886L8.30939 12.807L8.61291 12.9981L8.83364 13.162L9.05438 13.8172L9.21994 14.4998L9.96494 14.9912L10.0477 15.1551L10.1581 15.51L10.3236 15.7557L10.3788 15.9195L11.0686 16.1379L11.2894 16.2745L11.6757 16.6294L12.062 16.9297L12.1723 17.1208L11.924 17.3666V17.4485L12.1171 17.5031L12.1999 17.3393L12.5862 17.7215L12.975 17.7904L12.0056 18.3495L6.51465 15.1278L6.51588 10.1587Z" fill="#FDE100"/>
<path fill-rule="evenodd" clip-rule="evenodd" d="M11.6205 15.2096V15.5919L12.2275 16.7932L12.4759 16.8478L13.1657 16.2744L13.5244 16.1652L13.9383 15.8922L14.3522 15.5373L14.8488 15.2643L15.2075 15.0185L15.3731 14.5271L15.2075 14.0629L15.0144 13.7353L14.7385 13.6807L14.4349 13.9264L14.0762 14.0083L13.7451 14.2268L13.3588 14.7182L13.0277 15.2369L12.8622 14.9912L12.5311 14.8274H12.2827L11.9516 14.8001L11.7861 14.9639L11.6205 15.2096Z" fill="#FDE100"/>
<path fill-rule="evenodd" clip-rule="evenodd" d="M7.50924 10.186L7.61961 10.5682L7.92312 10.7593L8.64053 11.6876L8.88886 12.0971L9.35793 12.3429L9.63386 12.7251L9.68904 13.0527L9.8546 13.435L10.1029 13.6807L10.3789 13.7626L10.6272 13.9537L10.6824 14.1721L10.9307 14.3087L11.0687 14.6363L11.5929 15.2643L11.8964 14.8547L12.3931 14.8274L12.6991 14.9093L12.8885 15.0398L13.0277 15.2643L13.7175 14.2541L14.0223 14.0605L14.1986 13.9904L14.4349 13.9264L14.5453 13.829L14.7228 13.721L14.9748 13.7602L15.1008 13.9097L15.2232 14.1282L15.2784 14.2944L15.39 14.5401L15.7594 14.4179L16.0629 14.1994L16.2836 14.2268L16.4448 14.0189L16.4216 13.8991L16.7251 13.7626L16.7803 13.5715L16.8631 13.4077L16.9183 13.3258L17.0286 13.2712L17.0731 12.9647L16.9735 12.7251L17.2494 12.4794L17.3873 12.0698L17.5253 11.8514L17.4977 11.4692L17.1666 11.2508L17.0838 11.1143L16.5596 11.1416L16.5044 11.005H16.3664L16.1733 10.7593L16.0629 10.5136L15.9525 10.0495L15.8146 10.1041L15.6766 10.2952L15.5386 10.7047L15.4283 10.8958L15.1799 11.1143L14.6005 11.3054L14.3798 11.3873L14.3246 11.1416L14.2694 10.8139L14.1314 10.4863L14.0211 10.459L13.9383 10.732L14.0211 10.9777L13.9935 11.1143L13.6624 10.8412L13.5244 10.6228L13.414 10.1314L12.8622 9.85833L12.807 9.61261L12.3655 9.23037L12.4063 8.86361L12.1724 8.82083L11.9792 8.90396L11.7585 9.36689L10.9031 9.39419L10.446 8.90517L10.3237 8.7817L8.91645 8.22017L8.06108 8.82083L8.44738 9.25767L8.2806 9.47974L8.02154 9.53191L7.81398 9.80615L7.6472 9.88563H7.42646L7.50924 10.186Z" fill="#997B3D"/>
<path fill-rule="evenodd" clip-rule="evenodd" d="M7.42125 9.81371L7.619 10.5664L7.95978 10.7657L8.44206 11.4125L8.68682 11.7534L8.90149 12.0926L9.39871 12.3535L9.65666 12.7374L9.70192 13.0709L9.8733 13.4623L10.1143 13.6469L10.3743 13.7623L10.6342 13.9375L10.6775 14.1667L10.9807 14.3232L11.0993 14.6754L11.6135 15.2363L11.6341 15.6016L12.0749 16.4756L12.2199 16.8017L12.493 16.8371L13.1596 16.2893L13.5382 16.1495L13.96 15.8755L14.3254 15.5588L14.8697 15.2494L15.2388 14.9755L15.3632 14.5319L15.7925 14.3978L16.0693 14.1797L16.2803 14.2189L16.4121 13.9971L16.4253 13.8927L16.7153 13.7586L16.7964 13.4827L16.9131 13.3188L17.0185 13.2666L17.0581 13.0579V12.9144L16.9526 12.7318L17.2558 12.4709L17.3274 12.2211L17.414 11.9882L17.5157 11.8578L17.4762 11.4571L17.2954 11.336L17.1635 11.2447L17.0713 11.1143L16.5571 11.1738L16.5176 11.0229L16.3726 11.0099L16.2407 10.8534L16.1089 10.6446L16.0166 10.3446L15.947 10.0446L15.832 10.0968L15.6738 10.3055L15.5627 10.7266L15.4102 10.9186L15.2124 11.1012L14.3819 11.4012L14.2764 10.9651L14.2125 10.6951L14.1352 10.529L14.0391 10.4881L13.9807 10.7136L14.0504 11.0153L14.0128 11.1273L13.6061 10.8142L13.5345 10.6614L13.4855 10.5012L13.3857 10.1359L12.8527 9.89915L12.8169 9.66804L12.3405 9.24322L12.4007 8.87993L12.5099 8.89667L12.8527 8.77927L13.1822 8.75318L13.6568 9.32715L13.7603 9.52281L14.5137 9.83588L14.6814 9.97568L15.4366 9.91415L15.7793 9.79675H16.1089L16.3066 10.0968L16.7076 10.3092L16.8696 10.3148L17.2802 10.3279L17.5722 10.3446L17.5986 15.0929L12.9845 17.7931L12.5758 17.7279L12.2067 17.3496L12.1144 17.48L11.943 17.467L11.9167 17.3887L12.1672 17.1409L12.0935 16.9674L11.5739 16.5278L11.2312 16.2277L10.3743 15.9277L10.3215 15.719L10.1633 15.5233L9.96558 14.9755L9.23106 14.5132L8.84502 13.1623L8.32517 12.8248L8.19905 12.5231L8.17268 12.3796L7.53989 11.6752L7.42125 11.5056L7.24987 11.1273L6.67926 10.4527L6.56435 10.2924L6.5248 10.2142L6.53798 9.91415L7.21977 10.5683L7.36852 10.5403L7.42125 9.81371Z" fill="#0370B6"/>
<path fill-rule="evenodd" clip-rule="evenodd" d="M13.7042 10.3777L13.7764 10.38L13.8152 10.3609L13.8376 10.3702L13.8589 10.3843L13.8627 10.4126L13.8547 10.433L13.8393 10.4422L13.8137 10.4445L13.8113 10.4699L13.8067 10.5136L13.7974 10.562L13.7857 10.5874L13.7718 10.6311L13.7415 10.6357L13.7159 10.6081L13.6949 10.4975L13.6903 10.463L13.6693 10.4491L13.6321 10.4284V10.4008L13.6414 10.3777H13.7042Z" fill="#997B3D"/>
</g>
<defs>
<clipPath id="clip0_289_12529">
<rect width="24" height="24" fill="white"/>
</clipPath>
</defs>
</svg>
