<svg width="75" height="19" viewBox="0 0 75 19" fill="none" xmlns="http://www.w3.org/2000/svg">
<g clip-path="url(#clip0_0_2869)">
<path d="M24.0723 15.1851V3.19918H28.1613C29.247 3.12963 30.3328 3.40783 31.2569 4.0106C31.9961 4.59019 32.3889 5.49435 32.3196 6.44487C32.3196 6.97809 32.1809 7.48813 31.8806 7.92862C31.5572 8.39229 31.1183 8.74004 30.5869 8.94869C31.1876 9.08779 31.7189 9.43554 32.0885 9.94558C32.4582 10.4556 32.643 11.0584 32.6199 11.6843C32.6892 12.6581 32.2965 13.6318 31.5572 14.2809C30.6562 14.93 29.5705 15.2546 28.4616 15.1851H24.0723ZM26.1514 8.25318H28.1844C28.7388 8.27637 29.2701 8.13727 29.7091 7.8127C30.1018 7.48813 30.2866 7.00127 30.2404 6.51442C30.2866 6.02757 30.1018 5.54071 29.7322 5.21614C29.2701 4.91476 28.7157 4.77566 28.1613 4.82202H26.1514V8.25318ZM26.1514 9.7833V13.539H28.4616C29.016 13.5622 29.5705 13.3999 30.0094 13.0522C30.3559 12.7276 30.5638 12.2408 30.5407 11.7539C30.61 11.2207 30.4252 10.7106 30.0556 10.3397C29.686 9.96877 29.1546 9.7833 28.6464 9.85285L26.1514 9.7833Z" fill="white"/>
<path d="M34.4912 3.96414C34.4681 3.68594 34.5836 3.40774 34.7684 3.19909C34.9994 2.99043 35.2998 2.87452 35.6001 2.8977C35.9004 2.87452 36.2238 2.99043 36.4317 3.19909C36.6166 3.40774 36.7321 3.68594 36.709 3.96414C36.709 4.24235 36.6166 4.52055 36.4317 4.70602C36.2007 4.91467 35.9004 5.03058 35.6001 5.0074C35.2998 5.03058 34.9994 4.91467 34.7684 4.70602C34.5836 4.52055 34.4681 4.24235 34.4912 3.96414ZM36.6166 15.185H34.6067V6.2825H36.6166V15.185Z" fill="white"/>
<path fill-rule="evenodd" clip-rule="evenodd" d="M41.2602 4.10327V6.25934H42.8311V7.74308H41.2602V12.7507C41.2371 13.0057 41.3064 13.2839 41.4681 13.4926C41.676 13.6549 41.9301 13.7476 42.1842 13.7244C42.4153 13.7244 42.6463 13.7012 42.8773 13.6549V15.2082C42.4615 15.3241 42.0225 15.3936 41.5836 15.3936C40.0358 15.3936 39.2734 14.5359 39.2734 12.7971V7.76627H37.7949V6.28252H39.2734V4.12645H41.2602V4.10327Z" fill="white"/>
<path fill-rule="evenodd" clip-rule="evenodd" d="M48.0058 13.7477C48.4679 13.7709 48.9299 13.6318 49.2995 13.3304C49.6229 13.0522 49.8078 12.6813 49.8309 12.264H51.7252C51.7021 12.8204 51.5173 13.3536 51.1939 13.8173C50.8704 14.3041 50.4315 14.6982 49.9002 14.9532C49.3457 15.2314 48.722 15.3937 48.0982 15.3706C46.9894 15.4169 45.9036 14.9764 45.1412 14.1418C44.3789 13.2145 43.9861 12.0089 44.0554 10.8034V10.5947C43.9861 9.41239 44.3789 8.25321 45.1412 7.34905C45.9036 6.51445 46.9894 6.07396 48.0982 6.12033C49.0454 6.07396 49.9695 6.39853 50.6856 7.04767C51.3556 7.67362 51.7483 8.55459 51.7483 9.48194H49.7847C49.7847 8.99508 49.5998 8.53141 49.2764 8.18366C48.9299 7.83591 48.4679 7.65044 47.9827 7.6968C47.4052 7.67362 46.8507 7.92864 46.5042 8.39231C46.1115 9.01827 45.9036 9.78332 45.9729 10.5252V10.8498C45.9267 11.6148 46.1115 12.3567 46.5042 13.0058C46.8045 13.5159 47.4052 13.7941 48.0058 13.7477Z" fill="white"/>
<path d="M52.7875 10.6642C52.7875 9.85274 52.9492 9.04131 53.2957 8.29944C53.6192 7.62712 54.1274 7.04753 54.7742 6.67659C55.4211 6.30566 56.1603 6.097 56.9227 6.12019C58.0085 6.07382 59.0711 6.49112 59.8335 7.27936C60.5959 8.11397 61.0348 9.22678 61.0579 10.3628V10.8264C61.081 11.6379 60.8962 12.4493 60.5497 13.1912C60.2262 13.8635 59.7411 14.4199 59.0943 14.7908C58.4474 15.1849 57.685 15.3704 56.9227 15.3704C55.7676 15.4168 54.6818 14.9299 53.9195 14.0721C53.134 13.1448 52.7182 11.9393 52.7875 10.7105V10.6642ZM54.7973 10.8496C54.7511 11.6147 54.9591 12.3566 55.3749 13.0057C55.7214 13.5157 56.3221 13.8171 56.9458 13.7939C57.5695 13.8171 58.1702 13.5157 58.5167 13.0057C58.9325 12.3102 59.1405 11.4988 59.0943 10.6873C59.1405 9.92229 58.9325 9.18041 58.5167 8.55446C58.1471 8.0676 57.5695 7.76622 56.9458 7.76622C56.3221 7.76622 55.7445 8.0676 55.3749 8.55446C54.936 9.22678 54.728 10.015 54.7973 10.8496Z" fill="white"/>
<path d="M62.7447 3.96414C62.7216 3.68594 62.8371 3.40774 63.0219 3.19909C63.2298 2.99043 63.5302 2.87452 63.8305 2.8977C64.1308 2.87452 64.4542 2.99043 64.6621 3.19909C64.87 3.40774 64.9625 3.68594 64.9625 3.96414C64.9625 4.24235 64.87 4.52055 64.6621 4.70602C64.4311 4.91467 64.1308 5.03058 63.8305 5.0074C63.5302 5.03058 63.2298 4.91467 62.9988 4.70602C62.814 4.52055 62.7216 4.24235 62.7447 3.96414ZM64.87 15.185H62.8602V6.2825H64.87V15.185Z" fill="white"/>
<path fill-rule="evenodd" clip-rule="evenodd" d="M68.8666 6.28257L68.9359 7.32582C69.5596 6.53758 70.5068 6.0971 71.5233 6.14346C73.3714 6.14346 74.3186 7.20991 74.3417 9.34279V15.2314H72.3318V9.36597C72.3781 8.9023 72.2394 8.43863 71.9622 8.0677C71.6388 7.76631 71.1999 7.60403 70.7609 7.65039C69.9755 7.65039 69.2593 8.11406 68.959 8.83275V15.1619H66.9954V6.28257H68.8666Z" fill="white"/>
<path fill-rule="evenodd" clip-rule="evenodd" d="M17.9967 11.3134C16.7723 16.1587 11.8748 19.1031 7.04654 17.8743C2.19519 16.6456 -0.738723 11.7539 0.462564 6.88534C1.66385 2.0168 6.5383 -0.927511 11.3897 0.254849C13.7229 0.834437 15.7328 2.31818 16.9803 4.4047C18.2277 6.46803 18.5974 8.94867 17.9967 11.3134Z" fill="#F7931A"/>
<path d="M13.1915 7.71997C13.3763 6.51442 12.4523 5.86528 11.1817 5.4248L11.5975 3.80195L10.6042 3.54693L10.2114 5.1466L9.40286 4.96113L9.79559 3.36146L8.80222 3.10645L8.40949 4.72929L7.78575 4.59019L6.39965 4.19607L6.14553 5.26251C6.14553 5.26251 6.88478 5.4248 6.86168 5.44798C7.1389 5.49435 7.34682 5.74937 7.32371 6.02757L6.86168 7.88225L6.19173 10.4788C6.16863 10.5715 6.09933 10.6411 6.00692 10.6875C5.91451 10.7338 5.8221 10.7338 5.7297 10.7106L5.03665 10.6643L4.55151 11.8003L5.84521 12.1248L6.56136 12.3103L6.14553 13.9795L7.1389 14.2345L7.55473 12.5885L8.34019 12.7972L7.90126 14.3736L8.91773 14.6287L9.31046 12.9826C11.02 13.3072 12.2906 13.1681 12.8219 11.6843C13.0529 11.2439 13.076 10.7338 12.9143 10.2702C12.7526 9.80648 12.383 9.43555 11.9209 9.25008C12.6371 9.11098 13.1684 8.50821 13.2146 7.76633L13.1915 7.71997ZM10.8814 10.9193C10.581 12.2176 8.5019 11.4989 7.83195 11.3134L8.36329 9.13416C9.03324 9.29645 11.2048 9.6442 10.8814 10.9193ZM11.1817 7.69678C10.9045 8.83278 9.17185 8.25319 8.59431 8.11409L9.10254 6.1203C9.70319 6.2594 11.5051 6.51442 11.2279 7.69678H11.1817Z" fill="white"/>
</g>
<defs>
<clipPath id="clip0_0_2869">
<rect width="74.3874" height="18.2222" fill="white"/>
</clipPath>
</defs>
</svg>
