<svg width="76" height="20" viewBox="0 0 76 20" fill="none" xmlns="http://www.w3.org/2000/svg">
<g clip-path="url(#clip0_315_11936)">
<path d="M52.3591 5.26959C52.9428 5.51708 53.4409 5.93059 53.7916 6.45876C54.1273 6.99927 54.3023 7.62418 54.2961 8.26046C54.3027 8.89678 54.1277 9.52179 53.7916 10.0622C53.4439 10.5952 52.9452 11.0124 52.3591 11.2604C51.6638 11.5519 50.9147 11.6931 50.161 11.6749H47.972V14.4765H46.1703V4.85543H50.161C50.9147 4.83709 51.6638 4.97822 52.3591 5.26959ZM51.8637 9.72887C52.0701 9.55612 52.2331 9.33732 52.3394 9.09009C52.4458 8.84285 52.4927 8.57408 52.4762 8.30543C52.4919 8.0356 52.4447 7.76581 52.3384 7.5173C52.2321 7.26879 52.0696 7.04834 51.8637 6.87327C51.3394 6.50272 50.702 6.32745 50.062 6.37788H47.972V10.2337H50.0801C50.7152 10.2771 51.3456 10.0987 51.8637 9.72887ZM61.2233 7.855C61.5345 8.16034 61.7761 8.5293 61.9316 8.93665C62.0871 9.344 62.1528 9.78013 62.1241 10.2152V14.5573H60.4218V13.6565C60.201 13.9863 59.8875 14.2433 59.5209 14.3952C59.069 14.5778 58.5848 14.6667 58.0975 14.6567C57.5989 14.6659 57.1042 14.5674 56.6472 14.368C56.2577 14.2041 55.9232 13.9321 55.6832 13.5843C55.4574 13.2458 55.3381 12.8474 55.3409 12.4405C55.3261 12.1331 55.3846 11.8266 55.5115 11.5462C55.6383 11.2658 55.8299 11.0196 56.0706 10.8277C56.7611 10.3689 57.5863 10.1564 58.4126 10.2246H60.3228V10.1165C60.3372 9.89548 60.3036 9.67391 60.2243 9.46707C60.145 9.26022 60.0218 9.07301 59.8633 8.91831C59.4783 8.62785 59.0024 8.4841 58.521 8.51286C58.1045 8.51179 57.6906 8.57867 57.2956 8.71088C56.9243 8.8229 56.5785 9.00647 56.2776 9.25125L55.602 7.99027C56.021 7.67739 56.4946 7.44521 56.9986 7.30557C57.5617 7.14902 58.1436 7.0702 58.7281 7.07129C59.6286 7.01081 60.5191 7.29048 61.2233 7.855ZM59.6471 13.0983C59.9773 12.9052 60.2292 12.6021 60.3587 12.2421V11.3413H58.521C57.5208 11.3413 57.0164 11.6655 57.0164 12.3233C57.0143 12.4693 57.0477 12.6136 57.1137 12.7438C57.1796 12.8741 57.2761 12.9864 57.395 13.0711C57.7006 13.2745 58.0643 13.3725 58.4308 13.35C58.8397 13.3749 59.2477 13.2878 59.6109 13.098L59.6471 13.0983ZM64.1242 5.63879C64.0224 5.54306 63.9418 5.42712 63.8874 5.2984C63.8331 5.16968 63.8063 5.03103 63.8087 4.89133C63.8062 4.75292 63.8331 4.61555 63.8874 4.48823C63.9418 4.36092 64.0225 4.24654 64.1242 4.1526C64.3397 3.95411 64.6241 3.84743 64.9169 3.85522C65.2069 3.84526 65.49 3.94497 65.7097 4.13447C65.8135 4.22285 65.8958 4.3337 65.9504 4.45861C66.005 4.58352 66.0305 4.71922 66.0249 4.85543C66.029 4.9972 66.004 5.1383 65.9513 5.27C65.8987 5.40169 65.8195 5.52117 65.7188 5.62101C65.6129 5.7243 65.4874 5.80538 65.3497 5.8595C65.212 5.91362 65.0649 5.93969 64.9169 5.93617C64.6241 5.94404 64.3397 5.8375 64.1242 5.63914V5.63879ZM64.0429 7.15252H65.7728V14.5573H64.0429V7.15252ZM75.3036 4.26973V14.5573H73.6371V13.6025C73.3584 13.9639 72.9927 14.249 72.5742 14.4311C72.1334 14.6089 71.6619 14.6978 71.1866 14.6926C70.5178 14.7 69.8579 14.5389 69.2678 14.2241C68.7013 13.9141 68.2355 13.4483 67.9256 12.8818C67.5825 12.253 67.4145 11.5436 67.4393 10.8277C67.4257 10.1361 67.5934 9.45294 67.9256 8.84615C68.2357 8.282 68.7016 7.81906 69.2678 7.51265C69.8564 7.19383 70.5174 7.03255 71.1866 7.04445C71.6464 7.03743 72.1029 7.12315 72.5288 7.29651C72.931 7.45576 73.2871 7.71278 73.565 8.04431V4.26973H75.3036ZM72.5201 12.8909C72.8515 12.6985 73.1229 12.4178 73.3038 12.08C73.5116 11.6965 73.6145 11.2642 73.6009 10.8277C73.6095 10.4034 73.5071 9.98426 73.3038 9.61173C73.1229 9.27395 72.8516 8.99318 72.5201 8.80083C72.175 8.6116 71.7877 8.51241 71.3941 8.51241C71.0004 8.51241 70.6132 8.6116 70.268 8.80083C69.9337 8.99248 69.6593 9.27322 69.4752 9.61173C69.279 9.98661 69.1799 10.4047 69.1869 10.8277C69.1799 11.2538 69.279 11.6749 69.4752 12.0532C69.6593 12.3916 69.9338 12.6722 70.268 12.8637C70.6151 13.0468 71.0016 13.1426 71.3941 13.1426C71.7865 13.1426 72.173 13.0468 72.5201 12.8637V12.8909ZM23.6762 5.81031C23.5343 5.68575 23.4213 5.53171 23.3451 5.35896C23.2688 5.18621 23.2312 4.9989 23.2349 4.8101C23.2312 4.62137 23.2688 4.43411 23.3451 4.26141C23.4213 4.08871 23.5343 3.93474 23.6762 3.81024C24.0009 3.53813 24.4153 3.3968 24.8385 3.41386C25.2591 3.39361 25.6726 3.52832 26.0005 3.79246C26.1444 3.90984 26.2598 4.05839 26.3378 4.2269C26.4158 4.39541 26.4545 4.57946 26.4509 4.76513C26.4563 4.96028 26.4187 5.15423 26.3409 5.33326C26.2631 5.5123 26.1469 5.67206 26.0005 5.80125C25.671 6.06593 25.261 6.2102 24.8384 6.2102C24.4157 6.2102 24.0057 6.06593 23.6762 5.80125V5.81031ZM23.5228 7.04445H26.1536V14.5573H23.5232L23.5228 7.04445ZM35.009 7.74693C35.3222 8.08264 35.5636 8.4787 35.7185 8.91088C35.8734 9.34307 35.9385 9.80231 35.9099 10.2605V14.5573H33.2254V10.6928C33.2254 9.66577 32.82 9.15224 31.9913 9.15224C31.7886 9.14382 31.5865 9.17885 31.3985 9.25497C31.2104 9.3311 31.0409 9.44656 30.9011 9.5936C30.6036 9.97157 30.4589 10.4475 30.4957 10.9271V14.5302H27.8922V7.04445H30.3967V7.86407C30.6942 7.55778 31.0534 7.31831 31.4506 7.16159C31.8759 6.99669 32.3281 6.91406 32.7837 6.91825C33.1909 6.90328 33.5971 6.96877 33.9789 7.11097C34.3607 7.25316 34.7108 7.46928 35.009 7.74693ZM38.3872 14.4311C37.8674 14.3358 37.3658 14.1596 36.9007 13.9089L37.6844 12.1072C38.0672 12.3316 38.4796 12.5014 38.9094 12.6117C39.3647 12.7354 39.834 12.7989 40.3057 12.8006C40.6121 12.8196 40.9191 12.7736 41.2065 12.6657C41.2841 12.6367 41.3514 12.5853 41.3996 12.5179C41.4477 12.4505 41.4747 12.3703 41.4771 12.2874C41.4771 12.1163 41.369 11.9991 41.1525 11.927C40.8213 11.8374 40.4841 11.7712 40.1436 11.7289C39.6268 11.6705 39.115 11.5741 38.6124 11.4406C38.1966 11.3183 37.8205 11.0882 37.5223 10.7737C37.2038 10.3946 37.0426 9.90796 37.0718 9.41371C37.0651 8.94911 37.2141 8.49564 37.4951 8.12554C37.8244 7.71475 38.261 7.40299 38.7564 7.22469C39.3881 6.99487 40.0572 6.88492 40.7293 6.90047C41.2743 6.89886 41.818 6.95613 42.3507 7.07129C42.8207 7.15392 43.2739 7.31219 43.6929 7.53985L42.9092 9.34155C42.2452 8.97406 41.4973 8.78478 40.7383 8.79211C40.4311 8.77317 40.1235 8.82234 39.8375 8.93609C39.757 8.96283 39.6864 9.01324 39.6349 9.08072C39.5835 9.1482 39.5536 9.22962 39.5492 9.31435C39.5492 9.49459 39.6482 9.61173 39.8643 9.6839C40.2095 9.78326 40.5619 9.85577 40.9186 9.90005C41.4384 9.97047 41.9529 10.0758 42.4588 10.2152C42.8634 10.3403 43.2293 10.5668 43.5218 10.8731C43.8392 11.2457 44.0006 11.7265 43.9722 12.2153C43.983 12.6918 43.8269 13.1571 43.5308 13.5306C43.1979 13.9415 42.7586 14.2531 42.2608 14.4315C41.612 14.6546 40.9287 14.7613 40.2429 14.7466C39.6141 14.7147 38.9913 14.6086 38.3872 14.4311Z" fill="white"/>
<path d="M14.7128 14.6113L14.6407 14.6925C13.6439 15.6887 12.3742 16.367 10.992 16.6416C9.60984 16.9162 8.17727 16.7748 6.87543 16.2354C5.57358 15.6959 4.46091 14.7825 3.67809 13.6108C2.89527 12.439 2.47744 11.0615 2.47744 9.65228C2.47744 8.24308 2.89527 6.86552 3.67809 5.69376C4.46091 4.522 5.57358 3.60865 6.87543 3.06919C8.17727 2.52972 9.60984 2.38836 10.992 2.66297C12.3742 2.93759 13.6439 3.61585 14.6407 4.61201L16.4424 2.81031C15.0929 1.46578 13.3753 0.551235 11.5065 0.182161C9.63762 -0.186914 7.70131 0.00602932 5.94203 0.736629C4.18276 1.46723 2.67941 2.70272 1.6218 4.28711C0.564194 5.8715 -0.000244141 7.73373 -0.000244141 9.63868C-0.000244141 11.5436 0.564194 13.4059 1.6218 14.9902C2.67941 16.5746 4.18276 17.8101 5.94203 18.5407C7.70131 19.2713 9.63762 19.4643 11.5065 19.0952C13.3753 18.7261 15.0929 17.8116 16.4424 16.467L16.5958 16.2962L14.7128 14.6113Z" fill="url(#paint0_linear_315_11936)"/>
<path d="M9.60475 12.1074C9.26612 12.1372 8.92499 12.0962 8.60306 11.987C8.28113 11.8779 7.98543 11.7029 7.73476 11.4733C7.48408 11.2437 7.28391 10.9644 7.14697 10.6533C7.01003 10.3422 6.93931 10.0059 6.93931 9.66601C6.93931 9.32607 7.01003 8.98985 7.14697 8.67872C7.28391 8.36758 7.48408 8.08833 7.73476 7.85873C7.98543 7.62912 8.28113 7.45417 8.60306 7.345C8.92499 7.23582 9.26612 7.19482 9.60475 7.22458C9.92666 7.22289 10.2456 7.28583 10.5428 7.40967C10.8399 7.53351 11.1092 7.71573 11.3346 7.94554L13.1904 6.05355C12.4786 5.34612 11.5733 4.86532 10.5886 4.67179C9.60395 4.47826 8.58401 4.58068 7.65747 4.96612C6.73093 5.35156 5.93928 6.00276 5.3824 6.83757C4.82551 7.67239 4.52832 8.65343 4.52832 9.65695C4.52832 10.6605 4.82551 11.6415 5.3824 12.4763C5.93928 13.3111 6.73093 13.9623 7.65747 14.3478C8.58401 14.7332 9.60395 14.8356 10.5886 14.6421C11.5733 14.4486 12.4786 13.9678 13.1904 13.2603L11.3256 11.3955C10.8687 11.8508 10.2501 12.1068 9.6051 12.1074H9.60475ZM15.8835 14.1884C15.2577 13.879 14.7316 13.3998 14.3653 12.8056C13.999 12.2113 13.8072 11.526 13.812 10.828C13.8026 10.1289 13.9914 9.44153 14.3565 8.84531C14.7215 8.24908 15.2479 7.76839 15.8748 7.45886C16.5505 7.11932 17.2987 6.94941 18.0547 6.96381C18.8166 6.94932 19.5707 7.11916 20.2528 7.45886C20.8727 7.76565 21.3939 8.23978 21.7572 8.82826C22.1221 9.43063 22.3094 10.1238 22.2975 10.828C22.3143 11.531 22.131 12.2243 21.769 12.8272C21.407 13.4301 20.8812 13.9177 20.2528 14.2334C19.5707 14.5732 18.8167 14.7431 18.0547 14.7288C17.298 14.7273 16.5526 14.5419 15.8835 14.1884ZM19.1989 12.1071C19.4987 11.7497 19.6559 11.2942 19.6403 10.828C19.664 10.3552 19.5061 9.89128 19.1989 9.53109C19.0504 9.37936 18.8732 9.25881 18.6775 9.17651C18.4818 9.09421 18.2716 9.05181 18.0593 9.05181C17.847 9.05181 17.6368 9.09421 17.4411 9.17651C17.2454 9.25881 17.0681 9.37936 16.9196 9.53109C16.6075 9.88841 16.4489 10.3544 16.4783 10.828C16.4475 11.3101 16.6059 11.7853 16.92 12.1524C17.0671 12.3064 17.244 12.429 17.4398 12.5127C17.6357 12.5964 17.8465 12.6396 18.0595 12.6396C18.2725 12.6396 18.4832 12.5964 18.6791 12.5127C18.8749 12.429 19.0518 12.3064 19.1989 12.1524V12.1071Z" fill="white"/>
</g>
<defs>
<linearGradient id="paint0_linear_315_11936" x1="2.78564" y1="2.83751" x2="16.4242" y2="16.4761" gradientUnits="userSpaceOnUse">
<stop stop-color="#FFCB64"/>
<stop offset="0.01" stop-color="#FEC763"/>
<stop offset="0.17" stop-color="#F89D56"/>
<stop offset="0.33" stop-color="#F27B4C"/>
<stop offset="0.49" stop-color="#EE6044"/>
<stop offset="0.65" stop-color="#EB4D3E"/>
<stop offset="0.82" stop-color="#EA423B"/>
<stop offset="1" stop-color="#E93E3A"/>
</linearGradient>
<clipPath id="clip0_315_11936">
<rect width="75.3032" height="19.5231" fill="white"/>
</clipPath>
</defs>
</svg>
