<svg width="20" height="20" viewBox="0 0 20 20" fill="none" xmlns="http://www.w3.org/2000/svg">
<path d="M18.641 9.30686C17.4832 8.89107 16.7711 7.71281 16.8605 6.7824C16.8605 6.62944 16.7689 6.4873 16.653 6.38689C16.5371 6.28698 16.3574 6.24374 16.207 6.26793C14.4427 6.52678 12.8271 5.23602 12.6671 3.42162C12.6526 3.25786 12.563 3.11055 12.424 3.02249C12.2855 2.93495 12.1129 2.91589 11.96 2.97306C10.5299 3.49678 9.17858 2.54981 8.63939 1.3159C8.53846 1.08517 8.28818 0.957979 8.04149 1.01258C3.98191 1.91844 1 5.83948 1 10C1 14.9433 5.05667 19 9.99997 19C14.9433 19 18.9999 14.9433 18.9999 10C18.9853 9.68594 18.9831 9.42941 18.641 9.30686ZM4.70018 10.5671C4.40895 10.5671 4.17284 10.331 4.17284 10.0397C4.17284 9.74842 4.40895 9.51238 4.70018 9.51238C4.99142 9.51238 5.22752 9.74842 5.22752 10.0397C5.22752 10.331 4.99138 10.5671 4.70018 10.5671ZM6.83592 14.7461C5.96355 14.7461 5.25389 14.0364 5.25389 13.1641C5.25389 12.2917 5.96355 11.5821 6.83592 11.5821C7.70828 11.5821 8.41794 12.2917 8.41794 13.1641C8.41794 14.0364 7.70832 14.7461 6.83592 14.7461ZM7.36326 8.418C6.78185 8.418 6.30858 7.94473 6.30858 7.36332C6.30858 6.78191 6.78185 6.30864 7.36326 6.30864C7.94467 6.30864 8.41794 6.78191 8.41794 7.36332C8.41794 7.94473 7.94467 8.418 7.36326 8.418ZM11.582 15.8008C11.0006 15.8008 10.5273 15.3275 10.5273 14.7461C10.5273 14.1647 11.0006 13.6914 11.582 13.6914C12.1634 13.6914 12.6367 14.1647 12.6367 14.7461C12.6367 15.3275 12.1634 15.8008 11.582 15.8008ZM12.1093 11.5821C11.237 11.5821 10.5273 10.8724 10.5273 10C10.5273 9.12767 11.237 8.418 12.1093 8.418C12.9817 8.418 13.6914 9.12767 13.6914 10C13.6914 10.8724 12.9817 11.5821 12.1093 11.5821ZM15.247 12.6764C14.9558 12.6764 14.7197 12.4403 14.7197 12.1491C14.7197 11.8578 14.9558 11.6217 15.247 11.6217C15.5383 11.6217 15.7744 11.8578 15.7744 12.1491C15.7744 12.4403 15.5382 12.6764 15.247 12.6764Z" fill="url(#paint0_linear_21676_13663)"/>
<defs>
<linearGradient id="paint0_linear_21676_13663" x1="1" y1="10" x2="18.9999" y2="10" gradientUnits="userSpaceOnUse">
<stop stop-color="#4241E5"/>
<stop offset="1" stop-color="#DB33E4"/>
</linearGradient>
</defs>
</svg>
