<svg width="60" height="40" xmlns="http://www.w3.org/2000/svg"><g fill="none"><path fill="#F93" d="M0 0h60v40H0z"/><path fill="#FFF" d="M0 13.333h60V40H0z"/><path fill="#128807" d="M0 26.667h60V40H0z"/><g transform="translate(19.867 7.467)"><circle fill="#008" cx="10.133" cy="12.533" r="5.333"/><circle fill="#FFF" cx="10.133" cy="12.533" r="4.667"/><circle fill="#008" cx="10.133" cy="12.533" r="1"/><g fill="#008"><g transform="translate(9.867 12.8)"><circle transform="rotate(7.5 4.893 .342)" cx="4.893" cy=".342" r="1"/><path d="m.267 4.4.16-2.8L.267.267.107 1.6l.16 2.8Z"/></g><g transform="rotate(15 -43.413 43.606)"><circle transform="rotate(7.5 4.893 .342)" cx="4.893" cy=".342" r="1"/><path d="m.267 4.4.16-2.8L.267.267.107 1.6l.16 2.8Z"/></g><g transform="rotate(30 -18.685 24.545)"><circle transform="rotate(7.5 4.893 .342)" cx="4.893" cy=".342" r="1"/><path d="m.267 4.4.16-2.8L.267.267.107 1.6l.16 2.8Z"/></g><g transform="rotate(45 -10.251 18.043)"><circle transform="rotate(7.5 4.893 .342)" cx="4.893" cy=".342" r="1"/><path d="m.267 4.4.16-2.8L.267.267.107 1.6l.16 2.8Z"/></g><g transform="rotate(60 -5.885 14.678)"><circle transform="rotate(7.5 4.893 .342)" cx="4.893" cy=".342" r="1"/><path d="m.267 4.4.16-2.8L.267.267.107 1.6l.16 2.8Z"/></g><g transform="rotate(75 -3.14 12.563)"><circle transform="rotate(7.5 4.893 .342)" cx="4.893" cy=".342" r="1"/><path d="m.267 4.4.16-2.8L.267.267.107 1.6l.16 2.8Z"/></g><g transform="rotate(90 -1.2 11.067)"><circle transform="rotate(7.5 4.893 .342)" cx="4.893" cy=".342" r="1"/><path d="m.267 4.4.16-2.8L.267.267.107 1.6l.16 2.8Z"/></g><g transform="rotate(105 .29 9.919)"><circle transform="rotate(7.5 4.893 .342)" cx="4.893" cy=".342" r="1"/><path d="m.267 4.4.16-2.8L.267.267.107 1.6l.16 2.8Z"/></g></g><g fill="#008"><g transform="rotate(120 1.505 8.982)"><circle transform="rotate(7.5 4.893 .342)" cx="4.893" cy=".342" r="1"/><path d="m.267 4.4.16-2.8L.267.267.107 1.6l.16 2.8Z"/></g><g transform="rotate(135 2.549 8.177)"><circle transform="rotate(7.5 4.893 .342)" cx="4.893" cy=".342" r="1"/><path d="m.267 4.4.16-2.8L.267.267.107 1.6l.16 2.8Z"/></g><g transform="rotate(150 3.485 7.455)"><circle transform="rotate(7.5 4.893 .342)" cx="4.893" cy=".342" r="1"/><path d="m.267 4.4.16-2.8L.267.267.107 1.6l.16 2.8Z"/></g><g transform="rotate(165 4.357 6.783)"><circle transform="rotate(7.5 4.893 .342)" cx="4.893" cy=".342" r="1"/><path d="m.267 4.4.16-2.8L.267.267.107 1.6l.16 2.8Z"/></g><g transform="rotate(180 5.2 6.133)"><circle transform="rotate(7.5 4.893 .342)" cx="4.893" cy=".342" r="1"/><path d="m.267 4.4.16-2.8L.267.267.107 1.6l.16 2.8Z"/></g><g transform="rotate(-165 6.043 5.484)"><circle transform="rotate(7.5 4.893 .342)" cx="4.893" cy=".342" r="1"/><path d="m.267 4.4.16-2.8L.267.267.107 1.6l.16 2.8Z"/></g><g transform="rotate(-150 6.915 4.811)"><circle transform="rotate(7.5 4.893 .342)" cx="4.893" cy=".342" r="1"/><path d="m.267 4.4.16-2.8L.267.267.107 1.6l.16 2.8Z"/></g><g transform="rotate(-135 7.851 4.09)"><circle transform="rotate(7.5 4.893 .342)" cx="4.893" cy=".342" r="1"/><path d="m.267 4.4.16-2.8L.267.267.107 1.6l.16 2.8Z"/></g></g><g fill="#008"><g transform="rotate(-120 8.895 3.285)"><circle transform="rotate(7.5 4.893 .342)" cx="4.893" cy=".342" r="1"/><path d="m.267 4.4.16-2.8L.267.267.107 1.6l.16 2.8Z"/></g><g transform="rotate(-105 10.11 2.348)"><circle transform="rotate(7.5 4.893 .342)" cx="4.893" cy=".342" r="1"/><path d="m.267 4.4.16-2.8L.267.267.107 1.6l.16 2.8Z"/></g><g transform="rotate(-90 11.6 1.2)"><circle transform="rotate(7.5 4.893 .342)" cx="4.893" cy=".342" r="1"/><path d="m.267 4.4.16-2.8L.267.267.107 1.6l.16 2.8Z"/></g><g transform="rotate(-75 13.54 -.296)"><circle transform="rotate(7.5 4.893 .342)" cx="4.893" cy=".342" r="1"/><path d="m.267 4.4.16-2.8L.267.267.107 1.6l.16 2.8Z"/></g><g transform="rotate(-60 16.285 -2.411)"><circle transform="rotate(7.5 4.893 .342)" cx="4.893" cy=".342" r="1"/><path d="m.267 4.4.16-2.8L.267.267.107 1.6l.16 2.8Z"/></g><g transform="rotate(-45 20.651 -5.777)"><circle transform="rotate(7.5 4.893 .342)" cx="4.893" cy=".342" r="1"/><path d="m.267 4.4.16-2.8L.267.267.107 1.6l.16 2.8Z"/></g><g transform="rotate(-30 29.085 -12.278)"><circle transform="rotate(7.5 4.893 .342)" cx="4.893" cy=".342" r="1"/><path d="m.267 4.4.16-2.8L.267.267.107 1.6l.16 2.8Z"/></g><g transform="rotate(-15 53.813 -31.34)"><circle transform="rotate(7.5 4.893 .342)" cx="4.893" cy=".342" r="1"/><path d="m.267 4.4.16-2.8L.267.267.107 1.6l.16 2.8Z"/></g></g></g></g></svg>