<svg width="24" height="24" viewBox="0 0 24 24" fill="none" xmlns="http://www.w3.org/2000/svg">
<path d="M-9 0.811733V26.7639C-9 27.2105 -8.6388 27.5756 -8.18827 27.5756H27.9047C28.161 27.5756 28.4019 27.4552 28.5533 27.2494L33.0159 21.3031C33.1208 21.1633 33.179 20.9924 33.179 20.8176V0.811733C33.179 0.365086 32.8178 0 32.3673 0H-8.19215C-8.6388 0 -9 0.361202 -9 0.811733Z" fill="#37A6FF"/>
<g opacity="0.17">
<path d="M-2.15234 4.09904C-2.06301 4.09904 -1.97756 4.12235 -1.896 4.16895L-1.29788 4.53016C-0.847348 4.80203 -0.330791 4.94573 0.193534 4.94573C0.352774 4.94573 0.512013 4.93408 0.671252 4.90689L2.46173 4.60783C2.4928 4.60395 2.52387 4.60007 2.55105 4.60007C2.82681 4.60007 3.06761 4.81368 3.09092 5.10109L3.14917 5.83903C3.17636 6.18081 2.93944 6.48764 2.60155 6.54978L2.41123 6.58473C1.98012 6.66241 1.61504 6.94982 1.44026 7.34986C1.36647 7.51687 1.40531 7.71494 1.53348 7.84311L2.65204 8.97721C2.70253 9.0277 2.76855 9.05489 2.83846 9.05489C2.85011 9.05489 2.86565 9.05489 2.8773 9.051C2.99382 9.03158 3.08315 8.93837 3.0948 8.81797L3.21908 7.5324C3.24627 7.25276 3.48319 7.03526 3.76671 7.03526H3.80555C4.01917 7.03526 4.21336 7.15955 4.30269 7.34986L4.55514 7.88972C4.59786 7.98293 4.68719 8.03342 4.78041 8.03342C4.82701 8.03342 4.87362 8.02177 4.91634 7.99458C4.95907 7.9674 5.00567 7.95575 5.05228 7.95575C5.14937 7.95575 5.2387 8.01012 5.28143 8.10722L5.93392 9.61417C6.07374 9.93653 5.92227 10.3133 5.59991 10.4492L5.0717 10.6706C4.17452 11.0473 3.37832 11.6377 2.7569 12.3873L2.74525 12.4028C2.71418 12.4416 2.69864 12.4882 2.70253 12.5387L2.73748 13.098C2.74525 13.199 2.67146 13.2883 2.57047 13.3039C2.55105 13.3077 2.53552 13.3077 2.5161 13.3077C2.34132 13.3077 2.18209 13.1912 2.12771 13.0203L2.12383 13.0126C2.06945 12.8378 1.90633 12.7174 1.72767 12.7174C1.70825 12.7174 1.68495 12.7174 1.66553 12.7213L1.30821 12.7757C1.04022 12.8184 0.811072 12.997 0.706208 13.2495L0.601342 13.5019C0.566387 13.5913 0.570271 13.6922 0.616879 13.7738L0.62853 13.7932C0.686788 13.8942 0.791654 13.9486 0.900402 13.9486C0.974196 13.9486 1.04799 13.9214 1.11013 13.867C1.16839 13.8165 1.24218 13.7855 1.31986 13.7855C1.32763 13.7855 1.33151 13.7855 1.33928 13.7855L1.56066 13.7971C1.68883 13.8049 1.77428 13.9331 1.73155 14.0573L1.70048 14.1467C1.63834 14.3214 1.77039 14.5079 1.95682 14.5079C2.09664 14.5079 2.21316 14.6127 2.22869 14.7487L2.26365 15.0749C2.27918 15.1992 2.37628 15.3002 2.50056 15.3157L2.53164 15.3196C2.54329 15.3196 2.55494 15.3235 2.56659 15.3235C2.6598 15.3235 2.74913 15.273 2.79962 15.1914C2.93944 14.9623 3.18413 14.8263 3.44823 14.8263C3.48319 14.8263 3.51426 14.8302 3.54921 14.8341L4.2755 14.9312C4.67554 14.9856 5.05228 15.1371 5.37852 15.3779L5.89508 15.7585C6.05044 15.875 6.16695 16.0342 6.22521 16.2207C6.30289 16.4615 6.47378 16.6595 6.69905 16.7683L7.71274 17.2577C8.00792 17.4014 8.12443 17.7626 7.96519 18.05L7.26998 19.3122C7.1923 19.4559 7.05248 19.5569 6.89324 19.5958L6.48543 19.689C6.23687 19.7433 6.05432 19.957 6.0349 20.2094L6.03102 20.2716C6.0116 20.5279 5.90285 20.7687 5.72419 20.9551L3.58417 23.2C3.33172 23.4641 3.30453 23.8758 3.52203 24.171L3.6735 24.3807C3.78613 24.5361 3.6735 24.7458 3.49096 24.7458C3.4793 24.7458 3.46765 24.7458 3.456 24.7419L3.05984 24.6798C2.80351 24.6409 2.59378 24.4623 2.50833 24.2176L2.33744 23.7166C2.252 23.4641 2.24423 23.1922 2.31802 22.9359L3.21132 19.7861C3.30841 19.4404 3.20743 19.0675 2.95109 18.819L2.76467 18.6403C2.54717 18.4306 2.39958 18.1626 2.33744 17.8713L2.14713 16.978C2.08499 16.6906 2.13936 16.3877 2.2986 16.143L2.33356 16.0925C2.43454 15.9333 2.34909 15.7235 2.16267 15.6808L2.09664 15.6653C2.0345 15.6497 1.97624 15.6148 1.9374 15.5643L1.42084 14.873C1.39754 14.8419 1.36647 14.8186 1.33151 14.8069L0.0731335 14.3331C-0.249229 14.2127 -0.517217 13.9835 -0.691992 13.6884L-1.91153 11.6027C-2.07854 11.3192 -2.17175 11.0007 -2.19117 10.6706L-2.22225 10.0608C-2.24166 9.64912 -2.37372 9.24908 -2.59898 8.90341L-2.90969 8.42569C-3.18933 7.99847 -3.56219 7.64115 -4.00107 7.38093L-4.09428 7.32656C-4.24963 7.23334 -4.42829 7.18674 -4.60307 7.18674C-4.63414 7.18674 -4.66909 7.18673 -4.70017 7.19062C-4.78561 7.19839 -4.87106 7.20227 -4.96039 7.20227C-5.26721 7.20227 -5.57016 7.1479 -5.8498 7.01973L-6.89068 6.54201C-6.97224 6.50317 -7.0072 6.39831 -6.94894 6.3284L-6.68483 6.0138C-6.58774 5.90117 -6.65376 5.72639 -6.79747 5.69532C-6.91787 5.67202 -6.98778 5.54773 -6.94505 5.4351L-6.84796 5.17877C-6.82077 5.10886 -6.75474 5.05836 -6.67707 5.05448C-6.52171 5.04671 -3.58161 4.96515 -2.78153 4.29712C-2.66889 4.20003 -2.498 4.20779 -2.36595 4.14565C-2.30381 4.11458 -2.23001 4.09904 -2.15234 4.09904ZM-2.15234 3.32227C-2.33488 3.32227 -2.51742 3.3611 -2.68054 3.43878C-2.6922 3.44267 -2.70773 3.44655 -2.71938 3.44655C-2.85144 3.47762 -3.06893 3.52811 -3.27866 3.70289C-3.46897 3.86213 -4.41276 4.18449 -6.64599 4.2777L-6.72756 4.28159C-7.10818 4.30489 -7.43831 4.54957 -7.57424 4.90301L-7.67134 5.15934C-7.76844 5.41957 -7.7529 5.70309 -7.62862 5.94778C-7.74902 6.14974 -7.78397 6.38277 -7.73348 6.61192C-7.67134 6.89156 -7.47715 7.12848 -7.21693 7.24499L-6.17604 7.72271C-5.80707 7.8936 -5.39927 7.97905 -4.96427 7.97905C-4.85552 7.97905 -4.74289 7.97516 -4.63026 7.96351C-4.62249 7.96351 -4.61472 7.96351 -4.60695 7.96351C-4.56811 7.96351 -4.52928 7.97517 -4.49432 7.99458L-4.40111 8.04896C-4.06709 8.24704 -3.7758 8.52668 -3.56607 8.84904L-3.25536 9.32676C-3.10389 9.55591 -3.01844 9.8239 -3.00291 10.0997L-2.97184 10.7094C-2.94853 11.16 -2.81648 11.6066 -2.58733 11.995L-1.36779 14.0806C-1.10368 14.5312 -0.691993 14.8768 -0.206507 15.0594L0.892634 15.4711L1.30433 16.0265C1.33928 16.077 1.382 16.1197 1.42473 16.1624C1.32375 16.477 1.30433 16.811 1.37424 17.1411L1.56455 18.0344C1.66164 18.4811 1.88303 18.885 2.21316 19.1996L2.39958 19.3783C2.45396 19.4288 2.47338 19.5025 2.45396 19.5725L1.56066 22.7223C1.44415 23.1301 1.4558 23.5612 1.59173 23.9651L1.76262 24.4662C1.9374 24.9866 2.38793 25.3633 2.93168 25.4488L3.32783 25.5109C3.38221 25.5187 3.4327 25.5226 3.48319 25.5226C3.86381 25.5226 4.20559 25.3128 4.37648 24.9711C4.54737 24.6332 4.5163 24.2292 4.29104 23.9224L4.14733 23.7282L6.27959 21.495C6.55923 21.1998 6.74177 20.8192 6.78838 20.4153L7.06025 20.3531C7.43699 20.2677 7.75935 20.0269 7.94578 19.689L8.64099 18.4267C8.81965 18.1043 8.85849 17.716 8.74586 17.3625C8.63322 17.0091 8.37689 16.7178 8.04676 16.5586L7.03306 16.0692C6.99811 16.0537 6.9748 16.0226 6.96315 15.9876C6.8544 15.642 6.64467 15.3507 6.35338 15.1332L5.83682 14.7526C5.4096 14.438 4.90469 14.2321 4.37648 14.1622L3.6502 14.0651C3.58417 14.0573 3.51426 14.0535 3.44823 14.0535C3.23073 14.0535 3.021 14.1001 2.82681 14.1855C2.79574 14.1428 2.76467 14.1001 2.72583 14.0612C3.20743 13.9758 3.55698 13.5369 3.52591 13.0436L3.50649 12.7213C4.02693 12.1426 4.67166 11.6843 5.39018 11.3813L5.91838 11.16C6.26793 11.0124 6.53981 10.7366 6.67963 10.3871C6.81945 10.0336 6.81556 9.64912 6.66409 9.29957L6.0116 7.79262C5.85236 7.42754 5.49504 7.18674 5.09888 7.17508L5.02509 7.01973C4.81924 6.58085 4.38425 6.28567 3.90265 6.25849C3.94149 6.10313 3.95702 5.94389 3.94537 5.77688L3.88711 5.03895C3.83274 4.35926 3.25404 3.82717 2.57047 3.82717C2.49668 3.82717 2.42289 3.83494 2.35298 3.84659L0.562505 4.14565C0.445988 4.16507 0.329471 4.17284 0.212954 4.17284C-0.171551 4.17284 -0.548289 4.06797 -0.874536 3.86989L-1.47265 3.50869C-1.69404 3.38441 -1.92319 3.32227 -2.15234 3.32227ZM2.27141 7.48191C2.32579 7.43142 2.38793 7.39258 2.45784 7.36539C2.45396 7.39258 2.45007 7.42365 2.44619 7.45084L2.42677 7.63727L2.27141 7.48191Z" fill="#424242"/>
<path d="M6.51591 3.38322C6.67515 3.38322 6.83051 3.41429 6.94703 3.46478L8.7142 3.7988C8.89674 3.88036 8.95888 4.00853 8.86955 4.12505L6.64408 6.30391C6.57029 6.39712 6.3994 6.47091 6.19355 6.49033L5.88284 6.52141C5.83623 6.52529 5.79351 6.52917 5.7469 6.52917C5.40512 6.52917 5.11383 6.39324 5.12548 6.21846L5.14878 5.88056C5.15655 5.77958 5.05946 5.68637 4.89245 5.62811L4.7099 5.56597C4.49629 5.49218 4.40308 5.35624 4.48076 5.23584C4.53513 5.14651 4.50406 5.0533 4.39531 4.97562L4.01857 4.71151C3.88264 4.61442 3.87099 4.49013 3.9875 4.38915L5.27307 3.57742C5.37017 3.49586 5.53717 3.44148 5.72748 3.42983L6.43047 3.38322C6.45766 3.38711 6.48873 3.38322 6.51591 3.38322ZM6.51591 2.60645C6.46931 2.60645 6.4227 2.60645 6.37609 2.61033L5.67311 2.65694C5.34298 2.68024 5.04392 2.78122 4.82642 2.94434L3.57193 3.73277C3.54086 3.75219 3.51367 3.77161 3.48648 3.79492C3.24568 3.99688 3.11363 4.28429 3.12916 4.57946C3.1447 4.88241 3.30394 5.15816 3.57581 5.34459L3.68456 5.41838C3.69233 5.48441 3.70786 5.55432 3.73117 5.62034C3.82826 5.8961 4.04576 6.11748 4.3487 6.24953C4.35647 6.47868 4.4458 6.69618 4.61281 6.87484C4.86526 7.14671 5.27695 7.29818 5.75079 7.29818C5.8207 7.29818 5.89449 7.2943 5.9644 7.28653L6.27511 7.25546C6.67127 7.21274 7.0014 7.06127 7.21113 6.82823L9.41329 4.67267C9.4366 4.64937 9.4599 4.62607 9.47932 4.59888C9.66186 4.36585 9.72789 4.07456 9.66186 3.79492C9.58807 3.48809 9.36669 3.23564 9.04044 3.08805C8.98218 3.06086 8.92393 3.04144 8.86178 3.02979L7.17229 2.71131C6.97033 2.64528 6.74895 2.60645 6.51591 2.60645Z" fill="#424242"/>
<path d="M9.38718 5.64689C9.47651 5.64689 9.56584 5.68962 9.6241 5.76341L10.1795 6.50912C10.296 6.66836 10.3154 6.8742 10.23 7.05286C10.1795 7.15773 10.0941 7.24317 9.9853 7.29366L9.69789 7.4296C9.67071 7.44125 9.63964 7.44902 9.61245 7.44902C9.51147 7.44902 9.41825 7.36746 9.41437 7.25482C9.41049 7.18103 9.35223 7.13831 9.29397 7.13831C9.25125 7.13831 9.20852 7.16161 9.18522 7.20822C9.1658 7.25483 9.12308 7.27813 9.07647 7.27813C9.05317 7.27813 9.03375 7.27036 9.01045 7.25871L8.9483 7.21987C8.76964 7.10335 8.7075 6.87032 8.8046 6.68001L8.95996 6.38095C8.97161 6.35765 8.97549 6.33046 8.97161 6.30716L8.94054 6.11296C8.92112 5.98868 8.97161 5.86828 9.07259 5.79448L9.21241 5.6935C9.27067 5.66243 9.32892 5.64689 9.38718 5.64689ZM9.38718 4.87012C9.1658 4.87012 8.95219 4.94003 8.76964 5.06819L8.62982 5.16529C8.29193 5.40609 8.11715 5.81002 8.17541 6.21783L8.12104 6.32269C7.83363 6.8742 8.0084 7.54223 8.53273 7.87625L8.59487 7.91509C8.73469 8.00442 8.89781 8.05491 9.06482 8.05879C9.22018 8.16365 9.41049 8.2258 9.61245 8.2258C9.76004 8.2258 9.89986 8.19473 10.0319 8.1287L10.3193 7.99276C10.5834 7.86848 10.797 7.65487 10.9252 7.39464C11.1427 6.95577 11.0961 6.43921 10.8048 6.04305L10.2494 5.29734C10.0474 5.02936 9.72508 4.87012 9.38718 4.87012Z" fill="#424242"/>
<path d="M22.471 3.80412C22.5719 3.80412 22.6729 3.81189 22.7739 3.82742L25.5276 4.23135L30.4291 4.82947C30.6427 4.85666 30.8252 5.00036 30.899 5.20232L31.0272 5.54799C31.0777 5.68392 31.0272 5.8354 30.9068 5.91696L30.1921 6.39468C30.1339 6.43351 30.0717 6.45682 30.0018 6.46847L29.462 6.54615C29.295 6.56945 29.1784 6.72869 29.2056 6.8957L29.2367 7.08601C29.2406 7.12485 29.2328 7.16368 29.2095 7.19087L28.6464 7.88997C28.6036 7.94046 28.5493 7.96377 28.4949 7.96377C28.3978 7.96377 28.3046 7.89386 28.2968 7.78122L28.2735 7.4977C28.2618 7.36176 28.3046 7.22583 28.39 7.12096L29.2678 6.04124C29.295 6.01017 29.2717 5.96356 29.2289 5.96356L29.1202 5.96745C28.86 5.97522 28.6075 6.06843 28.4055 6.22767L28.1609 6.42186C27.99 6.5578 27.7802 6.63159 27.5627 6.63159C27.555 6.63159 27.5472 6.63159 27.5356 6.63159L27.3841 6.62771C27.3724 6.62771 27.3647 6.62771 27.353 6.62771C27.0656 6.62771 26.7899 6.73646 26.5801 6.92677L26.1956 7.2802C26.1335 7.33846 26.1374 7.43944 26.2073 7.48993L26.4092 7.6414C26.5374 7.7385 26.5918 7.90551 26.5413 8.06086L26.0674 9.50955C26.0519 9.56393 26.0014 9.59888 25.947 9.60277L25.5509 9.62996C25.5159 9.63384 25.4849 9.64938 25.4616 9.67268L25.1392 10.0145C25.1081 10.0494 25.0965 10.096 25.1081 10.1426L25.2324 10.6009C25.2441 10.6475 25.2324 10.698 25.1975 10.733L25.0033 10.9272C24.9761 10.9544 24.9411 10.966 24.91 10.966C24.8479 10.966 24.7896 10.9272 24.778 10.8573L24.6848 10.4067C24.6809 10.3834 24.6692 10.3601 24.6537 10.3407L24.444 10.1077C24.4168 10.0766 24.3818 10.065 24.343 10.065C24.3119 10.065 24.2809 10.0766 24.2537 10.0999L23.908 10.4028C23.8614 10.4417 23.8497 10.5077 23.8731 10.5621L24.1449 11.1641C24.2381 11.3738 24.2381 11.6146 24.1449 11.8244L23.9158 12.3331C23.8459 12.4846 23.6944 12.5817 23.5274 12.5817C23.5235 12.5817 23.5196 12.5817 23.5157 12.5817L22.8438 12.5623C22.8399 12.5623 22.8361 12.5623 22.8322 12.5623C22.7312 12.5623 22.6302 12.605 22.5681 12.6866C22.4438 12.8497 22.4438 13.0711 22.5603 13.2342L22.7195 13.4556C22.8166 13.5915 22.8127 13.7741 22.704 13.9022L22.4826 14.1741C22.4554 14.2091 22.4166 14.2246 22.3778 14.2246C22.3389 14.2246 22.304 14.2091 22.2768 14.178L22.0049 13.8712C21.9777 13.8401 21.9389 13.8246 21.9039 13.8246C21.834 13.8246 21.768 13.875 21.768 13.9566C21.7641 14.0498 21.7602 14.1236 21.7563 14.1314C21.7486 14.1469 22.0476 14.4926 22.2185 14.6868C22.2923 14.7722 22.3428 14.8732 22.3661 14.982L22.4477 15.3703C22.5098 15.6539 22.7195 15.8869 22.9953 15.9723L23.9507 16.2675C24.009 16.2869 24.0323 16.353 23.9973 16.4035L23.9935 16.4073C23.9779 16.4345 23.9468 16.4462 23.9197 16.4462C23.9119 16.4462 23.908 16.4462 23.9002 16.4423L22.5719 16.1549C22.4088 16.116 22.2574 16.0306 22.1447 15.9024L21.1077 14.7295C21.0767 14.6945 21.0767 14.6402 21.1116 14.6052L21.1271 14.5897C21.1427 14.5741 21.166 14.5625 21.1893 14.5625C21.2048 14.5625 21.2204 14.5664 21.2359 14.5741L21.6165 14.7994C21.632 14.8072 21.6476 14.8111 21.6631 14.8111C21.7253 14.8111 21.7758 14.745 21.7447 14.679L21.5311 14.2557C21.5272 14.244 21.5233 14.2362 21.5233 14.2246L21.4379 13.5333C21.4262 13.4517 21.3602 13.3973 21.2864 13.3973C21.267 13.3973 21.2514 13.4012 21.232 13.409C21.2126 13.4167 21.1893 13.4206 21.166 13.4206C21.1 13.4206 21.0417 13.3857 21.0145 13.3235L20.696 12.6244C20.6727 12.5739 20.6222 12.5429 20.5717 12.5429C20.5446 12.5429 20.5174 12.5506 20.4941 12.5701L19.9231 12.9818C19.6901 13.1488 19.5386 13.4129 19.5076 13.6964L19.4959 13.8246C19.4881 13.8906 19.4571 13.9527 19.4027 13.9993L19.2706 14.112C19.2202 14.1547 19.1619 14.1741 19.0998 14.1741C18.991 14.1741 18.8861 14.1081 18.8473 13.9916L18.6026 13.2226C18.5482 13.0517 18.4628 12.8924 18.3463 12.7565L17.9618 12.3021C17.8802 12.205 17.7676 12.1428 17.6433 12.1195L16.9054 11.9991C16.5985 11.9486 16.3344 11.7816 16.1014 11.5797C16.0625 11.5447 16.0121 11.5292 15.9616 11.5292C15.9072 11.5292 15.8528 11.5486 15.8101 11.5952C15.748 11.6573 15.7363 11.7583 15.7751 11.8399L15.9693 12.271C15.9926 12.3215 16.0431 12.3526 16.0936 12.3526C16.1208 12.3526 16.148 12.3448 16.1713 12.3293L16.2917 12.2477C16.2956 12.2438 16.3033 12.2438 16.3111 12.2438C16.4393 12.2438 16.8277 12.8225 16.5791 12.9662L15.7324 13.4595C15.6431 13.5138 15.5421 13.5371 15.4489 13.5371C15.2431 13.5371 15.045 13.4284 14.944 13.2303L14.2837 11.9603C14.2604 11.9137 14.2138 11.8865 14.1633 11.8865C14.0662 11.8865 14.0002 11.9875 14.039 12.0768L14.7459 13.6459C14.8508 13.875 15.0644 13.9954 15.2935 13.9954C15.3906 13.9954 15.4877 13.976 15.5809 13.9333C15.6081 13.9217 15.6392 13.9139 15.6664 13.9139C15.7984 13.9139 15.9111 14.0459 15.8839 14.1896L15.8373 14.4188C15.7907 14.6557 15.6664 14.8732 15.4877 15.0363L15.0527 15.4364C14.8624 15.6111 14.7653 15.8675 14.7886 16.1238L14.7576 16.8656C14.7576 17.0249 14.6838 17.1725 14.5673 17.2773C14.3847 17.4443 14.2527 17.6424 14.1284 17.856L13.5769 18.8231C13.3982 19.1377 13.103 19.363 12.7535 19.4562L12.5865 19.4989C12.5476 19.5106 12.5088 19.5145 12.47 19.5145C12.2796 19.5145 12.1049 19.3979 12.035 19.2154L11.5301 17.8871C11.4097 17.5764 11.3786 17.2385 11.4291 16.9084L11.4446 16.8113C11.4834 16.5627 11.4718 16.3064 11.4019 16.0617L11.1611 15.1956C11.0873 14.9353 10.8504 14.7567 10.5824 14.7567C10.5746 14.7567 10.5668 14.7567 10.5552 14.7567L9.58034 14.7994C9.56869 14.7994 9.55315 14.7994 9.5415 14.7994C9.30458 14.7994 9.07155 14.7101 8.89678 14.547L8.44624 14.1275C8.20544 13.9022 8.08116 13.5799 8.11223 13.2536L8.14718 12.873C8.19379 12.3836 8.39187 11.9214 8.71423 11.5486L8.86959 11.3699C9.14146 11.0553 9.51043 10.8417 9.91824 10.7641L10.9708 10.5621C10.9902 10.5582 11.0057 10.5582 11.0251 10.5582C11.1766 10.5582 11.3048 10.6786 11.3087 10.834C11.3126 10.9388 11.3475 11.0437 11.433 11.1058L12.0544 11.5797C12.0777 11.5991 12.1087 11.6069 12.1359 11.6069C12.1748 11.6069 12.2136 11.5913 12.2408 11.5564L12.4971 11.2379C12.5243 11.2068 12.5632 11.1874 12.602 11.1874C12.6137 11.1874 12.6253 11.1874 12.6408 11.1913L13.7711 11.5175C13.7827 11.5214 13.7944 11.5214 13.8099 11.5214C13.8643 11.5214 13.9186 11.4865 13.9381 11.4321L14.0934 10.9971C14.1245 10.9116 14.0662 10.8223 13.9769 10.8145L13.4293 10.7757C13.3865 10.7718 13.3438 10.7485 13.3244 10.7097L13.2972 10.667C13.2662 10.6165 13.2662 10.5504 13.2972 10.4999C13.371 10.3795 13.4526 10.2669 13.5419 10.162C13.573 10.1232 13.6235 10.0999 13.674 10.0999C13.6778 10.0999 13.6856 10.0999 13.6895 10.0999C14.0429 10.1349 14.6488 10.1892 14.7653 10.1892C14.777 10.1892 14.7847 10.1892 14.7847 10.1854C14.7847 10.1659 14.9984 9.74259 14.9751 9.72705C14.9518 9.7154 14.074 9.27264 13.7672 9.12117C13.7478 9.10951 13.7283 9.10563 13.705 9.10563C13.6623 9.10563 13.6196 9.12505 13.5963 9.16389L13.2312 9.68045C13.1962 9.73094 13.2001 9.80085 13.239 9.84745L13.2817 9.89794C13.305 9.92513 13.3128 9.96785 13.2972 10.0028C13.2584 10.0921 13.2079 10.1815 13.1496 10.263C13.1302 10.2941 13.0953 10.3096 13.0603 10.3096C13.0487 10.3096 13.037 10.3096 13.0253 10.3058C12.9943 10.2941 12.9554 10.2863 12.9205 10.2863C12.8816 10.2863 12.8467 10.298 12.835 10.3368L12.7884 10.4922C12.769 10.5543 12.7146 10.5893 12.6564 10.5893C12.6214 10.5893 12.5826 10.5737 12.5554 10.5466L12.3262 10.2941C12.2952 10.263 12.2835 10.2164 12.2913 10.1737C12.3301 9.99116 12.2796 9.80085 12.1359 9.68045L11.8563 9.44353C11.8213 9.41634 11.7786 9.40081 11.7398 9.40081C11.7048 9.40081 11.6699 9.41246 11.6427 9.43188C11.5495 9.4979 11.5611 9.61054 11.6271 9.66103L12.0078 9.9562C12.1243 10.0494 12.0971 10.2591 11.8835 10.2902C11.8718 10.2941 11.8602 10.2941 11.8446 10.2941C11.7398 10.2941 11.6427 10.2397 11.5805 10.1543L11.2931 9.77366C11.2038 9.65326 11.0601 9.58723 10.9164 9.58723C10.8581 9.58723 10.7999 9.59888 10.7455 9.6183L10.6639 9.64937C10.4969 9.7154 10.3532 9.83192 10.2561 9.98339L10.0386 10.3213C9.92989 10.4883 9.74346 10.5893 9.54927 10.5893C9.5182 10.5893 9.49101 10.5854 9.45994 10.5815L9.14534 10.5349C8.98222 10.5077 8.86182 10.364 8.86959 10.1776L8.87347 10.0883C8.88512 9.80861 9.11427 9.57946 9.39003 9.57946C9.40945 9.57946 9.42498 9.57946 9.4444 9.58335C9.45606 9.58335 9.46382 9.58335 9.47547 9.58335C9.67355 9.58335 9.80561 9.37362 9.71628 9.19496L9.60753 8.97358C9.52596 8.81045 9.59976 8.60849 9.77065 8.53858L10.1901 8.36769C10.3377 8.30555 10.4464 8.17738 10.4736 8.01814C10.4931 7.92104 10.5746 7.85113 10.6717 7.85113H10.73C10.8659 7.85113 10.963 7.71908 10.9242 7.58703C10.9009 7.51712 10.928 7.44333 10.9902 7.4006C11.0174 7.38118 11.0484 7.37342 11.0756 7.37342C11.1417 7.37342 11.2038 7.41614 11.231 7.48216L11.2854 7.60645C11.3087 7.66082 11.3592 7.69966 11.4174 7.70355L12.167 7.78511C12.1709 7.78511 12.1787 7.78511 12.1825 7.78511C12.2369 7.78511 12.2874 7.75015 12.3068 7.69966L12.5049 7.21029C12.5282 7.15592 12.5787 7.12485 12.6292 7.12485C12.6486 7.12485 12.6719 7.12873 12.6913 7.14038L12.8195 7.20641C12.8312 7.21418 12.8467 7.21806 12.8622 7.21806C12.8933 7.21806 12.9244 7.20252 12.9399 7.17145C12.9593 7.1365 12.9554 7.08989 12.9244 7.0627L12.835 6.97726C12.7962 6.93842 12.7807 6.88016 12.8001 6.82967L12.8428 6.72092C12.8583 6.6782 12.9011 6.64324 12.9477 6.63548L13.1419 6.60441C13.2623 6.58499 13.2972 6.42186 13.1924 6.35584L13.1691 6.3403C13.1457 6.32477 13.1224 6.317 13.0953 6.317C13.0914 6.317 13.0914 6.317 13.0875 6.317C13.0758 6.317 13.0642 6.317 13.0525 6.317C12.8195 6.317 12.6098 6.18495 12.5088 5.97133L12.4622 5.87423C12.4272 5.80044 12.4622 5.71888 12.536 5.68781L12.5476 5.68392C12.5865 5.66839 12.6137 5.6412 12.6292 5.60236L12.7962 5.14795C12.8117 5.10522 12.7923 5.05473 12.7496 5.03531L12.6913 5.01201C12.6797 5.00813 12.668 5.00424 12.6564 5.00424C12.6253 5.00424 12.5942 5.01978 12.5787 5.05085L12.0971 5.92084C12.0621 5.98687 12.0777 6.06843 12.1359 6.11892C12.2796 6.23544 12.3107 6.44905 12.2447 6.62382L12.0427 7.17145C12.0311 7.20252 12.0117 7.22971 11.9806 7.24136C11.9223 7.26855 11.8602 7.28409 11.8019 7.28409C11.6388 7.28409 11.4834 7.18311 11.4252 7.0161L11.3436 6.78306C11.3242 6.72869 11.2776 6.69762 11.2193 6.69762C11.1844 6.69762 11.1494 6.70927 11.1145 6.73646L10.9358 6.87239C10.8931 6.90346 10.8426 6.92288 10.7921 6.92288C10.7688 6.92288 10.7494 6.919 10.7261 6.91123C10.6368 6.88016 10.5785 6.7986 10.5746 6.70927L10.5591 6.29369C10.5513 6.11504 10.629 5.94414 10.7649 5.82763C10.9319 5.68781 11.0679 5.51303 11.13 5.3033L11.2388 4.93433C11.2931 4.75179 11.4213 4.60032 11.5922 4.51487L12.1592 4.23523C12.2641 4.18474 12.3767 4.15756 12.4933 4.15756C12.5399 4.15756 12.5904 4.16144 12.637 4.17309L14.4313 4.51876C14.5323 4.53818 14.6333 4.54983 14.7381 4.54983C14.7886 4.54983 14.8391 4.54594 14.8857 4.54206L18.3036 4.60809C18.3307 4.60809 18.3618 4.60809 18.389 4.60809C18.7347 4.60809 19.0764 4.56925 19.4105 4.48769L22.2574 3.81189C22.3234 3.80801 22.3972 3.80412 22.471 3.80412ZM16.1674 10.6359C16.2373 10.6359 16.2956 10.5815 16.3034 10.5116C16.3189 10.3135 16.3461 9.97562 16.3228 9.9329C16.3034 9.89794 16.1674 9.73094 16.0703 9.61054C16.0159 9.54451 16.0354 9.44353 16.113 9.40469L16.2296 9.34255C16.2839 9.31148 16.315 9.24933 16.2995 9.18719L16.28 9.11728C16.2645 9.05514 16.2063 9.0163 16.148 9.0163C16.1247 9.0163 16.1014 9.02018 16.082 9.03572L15.5343 9.34643C15.4722 9.38139 15.445 9.46295 15.48 9.52897L15.7285 10.0028C15.7441 10.0339 15.748 10.0727 15.7363 10.1077L15.6431 10.3912C15.6198 10.4689 15.6664 10.5543 15.748 10.566L16.1402 10.632C16.1519 10.632 16.1596 10.6359 16.1674 10.6359ZM22.471 3.02734C22.37 3.02734 22.269 3.03123 22.168 3.04288C22.137 3.04676 22.102 3.05065 22.0709 3.05841L19.224 3.73421C18.9483 3.80024 18.6648 3.83131 18.3812 3.83131H18.3113L14.8935 3.76528C14.8896 3.76528 14.8818 3.76528 14.878 3.76528C14.8547 3.76528 14.8314 3.76528 14.8081 3.76917C14.7809 3.77305 14.7576 3.77305 14.7304 3.77305C14.676 3.77305 14.6216 3.76917 14.5711 3.75751L12.7768 3.41185C12.6797 3.39243 12.5826 3.38466 12.4855 3.38466C12.2525 3.38466 12.0194 3.43904 11.8097 3.54002L11.2426 3.81966C10.8776 3.99832 10.6018 4.32456 10.4892 4.71684L10.3804 5.0858C10.3688 5.12464 10.326 5.17902 10.26 5.23339C9.94154 5.50138 9.759 5.90919 9.77453 6.32865L9.79007 6.74423C9.79784 6.96561 9.8794 7.16757 10.0076 7.33069C9.89493 7.43167 9.80561 7.55984 9.75123 7.70743L9.46771 7.82395C9.18807 7.93658 8.96668 8.16573 8.85794 8.44925C8.79579 8.60849 8.77637 8.77938 8.79191 8.94639C8.39187 9.15224 8.11223 9.56781 8.08893 10.0533L8.08504 10.1426C8.07339 10.4106 8.15107 10.6631 8.29866 10.865C8.29477 10.8689 8.29477 10.8728 8.29089 10.8728L8.13553 11.0515C7.70442 11.5486 7.4442 12.1584 7.38206 12.8109L7.3471 13.1915C7.29273 13.7546 7.51023 14.3217 7.92192 14.7062L8.37245 15.1257C8.69093 15.4247 9.11039 15.5878 9.54538 15.5878C9.56869 15.5878 9.59588 15.5878 9.61918 15.5878L10.4542 15.5529L10.6562 16.2831C10.695 16.419 10.7028 16.5627 10.6795 16.7025L10.6639 16.7996C10.5902 17.2618 10.6406 17.7395 10.8076 18.1784L11.3126 19.5067C11.4951 19.9844 11.9612 20.3068 12.4738 20.3068C12.5787 20.3068 12.6874 20.2912 12.7884 20.264L12.9554 20.2213C13.5031 20.0776 13.9769 19.7125 14.2565 19.2193L14.8081 18.2522C14.9168 18.0619 14.9984 17.9492 15.0955 17.8638C15.3673 17.6152 15.5305 17.2657 15.5382 16.9006L15.5693 16.1704C15.5693 16.1355 15.5693 16.0966 15.5654 16.0617C15.5654 16.0461 15.5693 16.0306 15.5809 16.019L16.0159 15.6189C16.315 15.3432 16.517 14.9858 16.5985 14.5858L16.6451 14.3566C16.6801 14.1858 16.6684 14.011 16.6179 13.8517L16.9675 13.6498C17.2394 13.4905 17.4025 13.2148 17.4297 12.9002L17.7482 13.2769C17.7986 13.3352 17.8336 13.4012 17.8569 13.475L18.1016 14.244C18.2375 14.679 18.6376 14.9703 19.092 14.9703C19.3367 14.9703 19.5775 14.881 19.7639 14.7217L19.8959 14.6091C20.1018 14.4343 20.23 14.1935 20.2572 13.9255L20.2688 13.7974C20.2727 13.7624 20.2843 13.7275 20.3038 13.6964C20.3698 13.8362 20.4708 13.9527 20.5912 14.0421C20.5834 14.0498 20.5756 14.0576 20.5679 14.0654L20.5523 14.0809C20.23 14.4033 20.2144 14.9276 20.5174 15.2694L21.5544 16.4384C21.7758 16.687 22.0632 16.8579 22.3894 16.9317L23.7022 17.2268C23.7643 17.2424 23.8303 17.2463 23.8925 17.2463C24.1838 17.2463 24.4518 17.1026 24.6149 16.8618C24.7702 16.6287 24.8052 16.3413 24.712 16.085C24.6226 15.8286 24.4129 15.6267 24.1527 15.549L23.1973 15.2538C23.1895 15.2499 23.1817 15.2422 23.1778 15.2344L23.0963 14.846C23.0846 14.7916 23.0691 14.7412 23.0535 14.6868C23.0535 14.6868 23.0535 14.6868 23.0535 14.6829L23.2749 14.411C23.5157 14.1158 23.5895 13.7275 23.4885 13.374C23.4924 13.374 23.4924 13.374 23.4924 13.374C23.9624 13.374 24.3935 13.0983 24.5877 12.6672L24.8168 12.1584C24.8751 12.0302 24.9139 11.8943 24.9372 11.7544C25.1547 11.7389 25.3606 11.6496 25.5159 11.4942L25.7101 11.3C25.9432 11.0709 26.0364 10.7291 25.9509 10.4145L25.947 10.3951L25.9781 10.3912C26.351 10.364 26.6656 10.1193 26.7782 9.76589L27.252 8.3172C27.3491 8.02203 27.3219 7.71131 27.1899 7.44721C27.2326 7.42779 27.2831 7.42002 27.3297 7.42002L27.4734 7.42391C27.4734 7.4744 27.4734 7.52489 27.4773 7.57538L27.5006 7.8589C27.5394 8.37157 27.9589 8.75608 28.4716 8.75608C28.7668 8.75608 29.0425 8.62403 29.2289 8.39488L29.7921 7.69578C29.8931 7.57149 29.9591 7.42391 29.9824 7.26855L30.095 7.25301C30.2776 7.22583 30.4524 7.1598 30.6038 7.05882L31.3185 6.5811C31.7379 6.30146 31.9088 5.77325 31.734 5.29942L31.6059 4.95375C31.4311 4.47603 31.0078 4.13814 30.499 4.07599L25.6208 3.45846L22.8865 3.05453C22.7506 3.039 22.6108 3.02734 22.471 3.02734Z" fill="#424242"/>
<path d="M24.5908 12.0483C24.6335 12.0483 24.6685 12.0793 24.6802 12.1182L24.7151 12.2891C24.7345 12.3745 24.7151 12.4638 24.6646 12.5337C24.6219 12.5959 24.5986 12.6736 24.6102 12.7512L24.6219 12.8483H24.5248L24.3772 12.6075C24.319 12.5143 24.3151 12.3939 24.3656 12.2968L24.4743 12.0949C24.4898 12.0638 24.5209 12.0483 24.552 12.0483H24.5908ZM24.5908 11.2715H24.552C24.2296 11.2715 23.9383 11.4463 23.7869 11.7298L23.6781 11.9317C23.4956 12.2735 23.5111 12.6891 23.7131 13.0192L23.8607 13.26C24.0044 13.4892 24.2529 13.6251 24.5209 13.6251H24.618C24.8394 13.6251 25.053 13.5319 25.2006 13.3649C25.3365 13.2134 25.4064 13.0154 25.3948 12.8134C25.4919 12.6037 25.523 12.3629 25.4725 12.1337L25.4375 11.9628C25.356 11.5628 24.9986 11.2715 24.5908 11.2715Z" fill="#424242"/>
<path d="M24.0135 14.4174C24.0368 14.4174 24.0601 14.4213 24.0795 14.4291C24.1611 14.4562 24.2193 14.5378 24.2193 14.6232V14.8679C24.2193 14.8835 24.2155 14.9029 24.2116 14.9184L24.0601 15.5321C24.0368 15.6525 23.9319 15.7302 23.8154 15.7302C23.796 15.7302 23.7766 15.7263 23.7572 15.7224L23.1785 15.5865C23.1124 15.5709 23.0619 15.5282 23.0348 15.4661L22.9221 15.2019C22.8794 15.1049 22.9182 14.9922 23.0114 14.9417L23.9164 14.4407C23.9436 14.4291 23.9785 14.4174 24.0135 14.4174ZM24.0135 13.6406C23.8465 13.6406 23.6834 13.6833 23.5358 13.7649L22.6308 14.2659C22.1881 14.5106 22.0055 15.0466 22.2036 15.5127L22.3162 15.7768C22.4405 16.0642 22.693 16.2778 22.9959 16.3477L23.5746 16.4836C23.6523 16.5031 23.73 16.5108 23.8115 16.5108C24.2892 16.5108 24.7009 16.1885 24.8175 15.7224L24.9689 15.1087C24.9883 15.0311 24.9961 14.9534 24.9961 14.8757V14.631C24.9961 14.2116 24.732 13.8387 24.3359 13.7028C24.231 13.66 24.1222 13.6406 24.0135 13.6406Z" fill="#424242"/>
<path d="M25.3607 16.5385C25.3801 16.5385 25.3996 16.5385 25.419 16.5424L25.8889 16.5968C25.9433 16.6045 25.9783 16.655 25.9666 16.7094L25.8928 17.0123C25.8812 17.0589 25.9083 17.1094 25.9588 17.1211L26.2851 17.2065C26.3045 17.2104 26.3239 17.2143 26.3395 17.2143C26.4637 17.2143 26.5647 17.1094 26.5608 16.9813L26.5492 16.7288C26.5453 16.6783 26.588 16.6356 26.6385 16.6356H26.6424L26.7045 16.6395C26.7395 16.6395 26.7706 16.6628 26.7822 16.6939L26.8405 16.8337C26.9764 17.1444 27.1667 17.4279 27.4075 17.6687L27.8736 18.1348C27.9785 18.2396 28.0251 18.3911 27.994 18.5387L27.7338 19.7893C27.7105 19.9097 27.6406 20.0146 27.5396 20.0806L27.3726 20.1971C27.2794 20.2631 27.1667 20.2942 27.0541 20.2942C26.992 20.2942 26.9298 20.2826 26.8715 20.2631L26.6074 20.1699C26.4366 20.1117 26.2929 19.9874 26.2074 19.8282L26.1569 19.7349C26.1297 19.6844 26.0831 19.6611 26.0326 19.6611C25.9977 19.6611 25.9588 19.6767 25.9316 19.7039C25.9045 19.7311 25.8656 19.7466 25.8307 19.7466C25.7996 19.7466 25.7685 19.7349 25.7413 19.7155L25.5394 19.5524C25.45 19.4786 25.3374 19.4398 25.2209 19.4398C25.1704 19.4398 25.1199 19.4475 25.0733 19.4631L24.2926 19.7039C24.2266 19.7233 24.1567 19.7349 24.0868 19.7349C23.9353 19.7349 23.7877 19.6844 23.6635 19.5912L23.4654 19.4398C23.3955 19.3854 23.3799 19.2883 23.4304 19.2184C23.4576 19.1834 23.4654 19.1368 23.4576 19.0941L23.2712 18.0959C23.2401 17.9328 23.3333 17.7736 23.4926 17.7192L24.0169 17.5405C24.1334 17.5017 24.2383 17.4357 24.3276 17.3502L25.0112 16.6861C25.1005 16.589 25.2287 16.5385 25.3607 16.5385ZM25.3607 15.7617C25.0228 15.7617 24.7005 15.8938 24.4597 16.1268L23.7761 16.7909C23.7722 16.7948 23.7644 16.7987 23.7567 16.8026L23.2323 16.9813C22.7119 17.156 22.3973 17.6959 22.4983 18.2358L22.6498 19.0475C22.5449 19.4087 22.6653 19.8126 22.9877 20.0534L23.1857 20.2049C23.4421 20.3991 23.7567 20.5039 24.079 20.5039C24.2266 20.5039 24.3742 20.4806 24.514 20.4379L25.1588 20.2398L25.2481 20.3136C25.3957 20.434 25.5743 20.5039 25.7608 20.5156C25.9239 20.6865 26.1258 20.8185 26.355 20.8962L26.6191 20.9894C26.7589 21.0399 26.9104 21.0632 27.058 21.0632C27.3298 21.0632 27.5901 20.9817 27.8153 20.8263L27.9823 20.7098C28.2503 20.5272 28.4329 20.2515 28.4989 19.9369L28.7591 18.6863C28.8446 18.2824 28.7203 17.8668 28.429 17.5755L27.9629 17.1094C27.792 16.9385 27.6561 16.7366 27.559 16.5152L27.5007 16.3754C27.3687 16.0724 27.0696 15.8666 26.7395 15.8549L26.6774 15.851C26.6657 15.851 26.6541 15.851 26.6424 15.851C26.5259 15.851 26.4055 15.8743 26.3006 15.921C26.2035 15.8705 26.0987 15.8355 25.9899 15.8239L25.52 15.7695C25.4617 15.7617 25.4112 15.7617 25.3607 15.7617Z" fill="#424242"/>
<path d="M15.7121 16.8178C15.7742 16.8178 15.8403 16.8566 15.8636 16.9227L15.984 17.2489C16.0112 17.3227 16.0112 17.4004 15.984 17.4742L15.716 18.1694C15.6772 18.2704 15.5801 18.3325 15.4752 18.3325C15.4674 18.3325 15.4558 18.3325 15.448 18.3325C15.2033 18.3053 15.0324 18.0801 15.0674 17.8393L15.1179 17.5169C15.1451 17.3499 15.2266 17.1984 15.3509 17.0858L15.6072 16.8605C15.6383 16.8333 15.6772 16.8178 15.7121 16.8178ZM15.7121 16.041C15.483 16.041 15.2616 16.1265 15.0907 16.2779L14.8344 16.5071C14.5741 16.7401 14.3994 17.0547 14.3489 17.4004L14.2984 17.7227C14.2479 18.0451 14.3333 18.383 14.5353 18.6432C14.7334 18.9034 15.0363 19.0704 15.3626 19.1093C15.4014 19.1132 15.4364 19.1171 15.4752 19.1171C15.8985 19.1171 16.2869 18.8529 16.4384 18.4568L16.7064 17.7616C16.8035 17.513 16.8035 17.2373 16.7142 16.9887L16.5938 16.6624C16.4578 16.2896 16.1044 16.041 15.7121 16.041Z" fill="#424242"/>
<path d="M3.55323 13.5356C3.63867 13.5356 3.728 13.5472 3.81345 13.5744C4.12804 13.6676 4.68344 13.8307 4.95143 13.9084C5.02522 13.9317 5.06018 14.0211 5.01357 14.0832L4.94754 14.1803C4.91259 14.2308 4.85433 14.2619 4.79219 14.2619C4.78442 14.2619 4.77277 14.2619 4.76112 14.258L3.59207 14.0715C3.53769 14.0638 3.48332 14.0599 3.42894 14.0599C3.37845 14.0599 3.32408 14.0638 3.27359 14.0715L3.05997 14.1026C3.03279 14.1065 3.00172 14.1104 2.97453 14.1104C2.81917 14.1104 2.6677 14.0482 2.55507 13.9356L2.50846 13.8851C2.46574 13.8385 2.48516 13.7647 2.5473 13.7492C2.74149 13.7026 3.09881 13.6132 3.33573 13.555C3.41341 13.5433 3.48332 13.5356 3.55323 13.5356ZM3.55323 12.7588C3.42118 12.7588 3.28912 12.7743 3.15707 12.8054C2.91627 12.8637 2.55895 12.953 2.36087 12.9996C2.06181 13.0734 1.8249 13.3025 1.73945 13.5977C1.65401 13.8929 1.73557 14.2114 1.94918 14.4327L1.99579 14.4832C2.25213 14.7435 2.60556 14.8949 2.97064 14.8949C3.03667 14.8949 3.10658 14.891 3.17261 14.8794L3.38622 14.8483C3.39787 14.8444 3.41341 14.8444 3.42506 14.8444C3.4406 14.8444 3.45225 14.8444 3.46778 14.8483L4.63683 15.0347C4.68732 15.0425 4.73781 15.0464 4.7883 15.0464C5.11067 15.0464 5.40973 14.8872 5.58839 14.6192L5.65441 14.5221C5.80977 14.2852 5.84861 13.9861 5.75151 13.722C5.65441 13.4579 5.43691 13.2482 5.16504 13.1705L4.37273 12.9374L4.02706 12.8365C3.87559 12.7821 3.71635 12.7588 3.55323 12.7588Z" fill="#424242"/>
<path d="M5.5729 14.0571C5.58455 14.0571 5.59232 14.0571 5.60397 14.0609C5.9108 14.1114 6.56718 14.4765 6.43124 14.5891C6.39629 14.6202 6.35357 14.6358 6.31084 14.6358C6.29531 14.6358 6.27977 14.6319 6.26423 14.628L5.31657 14.3755C5.29715 14.3716 5.28938 14.3483 5.30103 14.3289L5.42143 14.1425C5.4525 14.0881 5.51076 14.0571 5.5729 14.0571ZM5.5729 13.2803C5.24666 13.2803 4.9476 13.4434 4.76894 13.7153L4.64854 13.9017C4.50872 14.1192 4.47765 14.3911 4.57086 14.6319C4.66407 14.8727 4.86604 15.0552 5.1146 15.1212L6.06227 15.3737C6.14384 15.397 6.2254 15.4048 6.31084 15.4048C6.53999 15.4048 6.76526 15.3232 6.93615 15.1717C7.18472 14.962 7.28182 14.6319 7.19249 14.3173C7.00218 13.6415 5.91857 13.3191 5.72826 13.2842C5.67777 13.2842 5.62339 13.2803 5.5729 13.2803Z" fill="#424242"/>
</g>
<path d="M5.87988 15.7619L5.36332 15.3813C5.04095 15.1444 4.66033 14.989 4.26029 14.9346L3.53401 14.8375C3.23495 14.7987 2.94366 14.9385 2.7883 15.1948C2.73393 15.2881 2.62906 15.3385 2.52031 15.323L2.48924 15.3191C2.36496 15.3036 2.26786 15.2026 2.25232 15.0783L2.21737 14.7521C2.20183 14.6161 2.08532 14.5113 1.9455 14.5113C1.75907 14.5113 1.62702 14.3249 1.68916 14.1501L1.72023 14.0607C1.76295 13.9403 1.67751 13.8083 1.54934 13.8005L1.32796 13.7889C1.2464 13.785 1.16483 13.8122 1.10269 13.8704C0.955104 14.0025 0.722071 13.9675 0.624974 13.7966L0.613321 13.7772C0.566715 13.6957 0.558947 13.5947 0.597785 13.5054L0.702651 13.2529C0.807516 13.0004 1.03667 12.8218 1.30466 12.7791L1.66197 12.7247C1.86393 12.6936 2.06201 12.8179 2.12027 13.0121L2.12415 13.0199C2.18241 13.2102 2.36884 13.3306 2.56692 13.3034C2.6679 13.2917 2.74169 13.1985 2.73392 13.0975L2.69897 12.5383C2.69509 12.4878 2.71062 12.4412 2.74169 12.4023L2.75334 12.3868C3.37477 11.6372 4.17096 11.0469 5.06814 10.6701L5.59635 10.4487C5.9226 10.3128 6.07407 9.93606 5.93037 9.6137L5.27787 8.10675C5.21573 7.96693 5.04484 7.91255 4.91279 7.998C4.78462 8.07956 4.61761 8.02907 4.55158 7.89313L4.29913 7.35327C4.2098 7.15908 4.01561 7.03868 3.80199 7.03868H3.76315C3.47963 7.03868 3.24271 7.25229 3.21553 7.53582L3.09124 8.82138C3.07959 8.9379 2.99026 9.035 2.87374 9.05442C2.79218 9.06607 2.70674 9.03888 2.64848 8.98062L1.52992 7.84653C1.40175 7.71447 1.36291 7.52028 1.43671 7.35327C1.61148 6.95323 1.97657 6.66582 2.40768 6.58815L2.59799 6.55319C2.93589 6.49493 3.1728 6.18811 3.14562 5.84244L3.08736 5.1045C3.06017 4.78602 2.76888 4.56076 2.45429 4.61125L0.663813 4.91031C-0.0158682 5.02294 -0.714968 4.89089 -1.30143 4.53357L-1.89567 4.16848C-2.04326 4.07915 -2.21803 4.07527 -2.36562 4.14518C-2.50156 4.2112 -2.66856 4.20344 -2.7812 4.29665C-3.58128 4.96468 -6.52138 5.04236 -6.67674 5.05401C-6.75442 5.05789 -6.82044 5.10838 -6.84763 5.17829L-6.94473 5.43463C-6.98745 5.54726 -6.91754 5.67155 -6.79714 5.69485C-6.64955 5.72204 -6.58741 5.89681 -6.6845 6.01333L-6.94861 6.32793C-7.00687 6.39784 -6.97191 6.5027 -6.89035 6.54154L-5.84947 7.01926C-5.49215 7.18238 -5.09599 7.22899 -4.70372 7.19015C-4.49788 7.17073 -4.28426 7.21345 -4.09784 7.32608L-4.00462 7.38046C-3.56574 7.64068 -3.19289 7.998 -2.91325 8.42522L-2.60254 8.90294C-2.37727 9.24861 -2.2491 9.64865 -2.2258 10.0603L-2.19473 10.6701C-2.17919 11.0002 -2.0821 11.3187 -1.91509 11.6022L-0.695549 13.6879C-0.520773 13.9831 -0.252785 14.2122 0.0695777 14.3326L1.32796 14.8065C1.36291 14.8181 1.39398 14.8414 1.41729 14.8725L1.93384 15.5638C1.97268 15.6143 2.02706 15.6531 2.09308 15.6648L2.15911 15.6803C2.34165 15.7231 2.43098 15.9328 2.33 16.092L2.29505 16.1425C2.13581 16.3911 2.08143 16.6901 2.14357 16.9775L2.33388 17.8708C2.39603 18.166 2.54362 18.434 2.76111 18.6399L2.94754 18.8185C3.20776 19.0671 3.30874 19.4399 3.20776 19.7856L2.31447 22.9354C2.24067 23.1918 2.24844 23.4636 2.33388 23.7161L2.50478 24.2171C2.58634 24.4618 2.79995 24.6405 3.05629 24.6793L3.45245 24.7414C3.65441 24.7725 3.79423 24.5434 3.67383 24.3802L3.52236 24.1705C3.30486 23.8753 3.33204 23.4636 3.5845 23.1995L5.72452 20.9546C5.90318 20.7682 6.00804 20.5274 6.03135 20.2711L6.03523 20.2089C6.05465 19.9565 6.23719 19.7429 6.48576 19.6885L6.89357 19.5953C7.05281 19.5603 7.18875 19.4555 7.27031 19.3118L7.96552 18.0495C8.12476 17.7621 8.00825 17.4009 7.71307 17.2572L6.69938 16.7678C6.47411 16.6591 6.29934 16.461 6.22554 16.2202C6.15175 16.0376 6.03523 15.8745 5.87988 15.7619Z" fill="url(#paint0_radial_19013_109793)"/>
<path d="M5.12209 6.21971L5.14539 5.88181C5.15316 5.78083 5.05606 5.68762 4.88906 5.62936L4.70651 5.56722C4.4929 5.49342 4.39968 5.35749 4.47736 5.23709C4.53174 5.14776 4.50067 5.05454 4.39192 4.97687L4.01518 4.71276C3.87924 4.61566 3.86759 4.49138 3.98411 4.3904L5.26968 3.57867C5.36677 3.4971 5.53378 3.44273 5.72409 3.43108L6.42707 3.38447C6.61739 3.37282 6.80769 3.40001 6.94363 3.46215L8.7108 3.79616C8.89334 3.87773 8.95549 4.00589 8.86616 4.12241L6.64069 6.30127C6.56689 6.39449 6.396 6.46828 6.19016 6.4877L5.87945 6.51877C5.48329 6.56538 5.11044 6.41779 5.12209 6.21971Z" fill="url(#paint1_radial_19013_109793)"/>
<path d="M9.18378 7.21738C9.23427 7.10087 9.40905 7.13582 9.41293 7.2601C9.41682 7.40381 9.56829 7.49314 9.69646 7.43488L9.98386 7.29894C10.0887 7.24845 10.1742 7.16301 10.2286 7.05814C10.314 6.88337 10.2946 6.67364 10.1781 6.5144L9.62266 5.76869C9.52945 5.64052 9.34691 5.61334 9.21874 5.70267L9.07892 5.80365C8.97794 5.87744 8.92745 5.99784 8.94687 6.12212L8.97794 6.31632C8.98182 6.34351 8.97794 6.36681 8.96629 6.39011L8.81093 6.68917C8.70995 6.87948 8.77209 7.11252 8.95463 7.22903L9.01678 7.26787C9.07115 7.30671 9.15271 7.28341 9.18378 7.21738Z" fill="url(#paint2_radial_19013_109793)"/>
<path d="M31.0271 5.54447L30.899 5.1988C30.8252 4.99684 30.6426 4.85314 30.429 4.82595L25.5275 4.22783L22.7739 3.82391C22.5991 3.79672 22.4243 3.79672 22.2495 3.81225L19.4027 4.48805C19.0415 4.5735 18.6686 4.61234 18.2957 4.60845L14.8779 4.54243C14.7265 4.55796 14.5711 4.55019 14.4235 4.51912L12.6292 4.17346C12.466 4.14239 12.299 4.16569 12.1514 4.2356L11.5844 4.51524C11.4135 4.60068 11.2853 4.75216 11.231 4.9347L11.1222 5.30367C11.0601 5.5134 10.9241 5.68817 10.7571 5.82799C10.6212 5.94451 10.5435 6.1154 10.5513 6.29406L10.5668 6.70964C10.5707 6.79897 10.6289 6.88053 10.7183 6.9116C10.7882 6.9349 10.8698 6.91548 10.928 6.87276L11.1067 6.73682C11.1999 6.66691 11.3047 6.69798 11.3358 6.78343L11.4174 7.01646C11.4989 7.24173 11.7592 7.34659 11.9728 7.24173C12 7.22619 12.0233 7.19901 12.0349 7.17182L12.2369 6.62419C12.3029 6.44941 12.2718 6.2358 12.1281 6.11928C12.0699 6.07268 12.0543 5.98723 12.0893 5.92121L12.5709 5.05122C12.5942 5.01238 12.6447 4.99296 12.6874 5.01238L12.7457 5.03568C12.7884 5.0551 12.8117 5.10559 12.7923 5.14831L12.6253 5.60273C12.6136 5.64157 12.5825 5.66875 12.5437 5.68429L12.5321 5.68817C12.4583 5.71536 12.4233 5.80081 12.4583 5.8746L12.5049 5.9717C12.6097 6.19308 12.8389 6.32901 13.0836 6.31736C13.1108 6.31736 13.1418 6.32513 13.1651 6.34067L13.1884 6.3562C13.2933 6.42223 13.2583 6.58535 13.1379 6.60477L12.9437 6.63584C12.8971 6.64361 12.8583 6.67468 12.8389 6.72129L12.7962 6.83004C12.7767 6.88053 12.7884 6.93878 12.8311 6.97762L12.9204 7.06307C12.9515 7.09026 12.9593 7.13686 12.936 7.17182C12.9127 7.21454 12.8583 7.23008 12.8156 7.20677L12.6874 7.14075C12.6175 7.10191 12.5282 7.13686 12.4971 7.21066L12.299 7.70003C12.2757 7.75829 12.2175 7.78936 12.1592 7.78547L11.4096 7.70391C11.3514 7.69614 11.3009 7.66119 11.2776 7.60681L11.2232 7.48253C11.1805 7.38543 11.0717 7.34271 10.9824 7.40097C10.9202 7.44369 10.8931 7.51748 10.9164 7.58739C10.9591 7.71945 10.862 7.8515 10.7222 7.8515H10.6639C10.5668 7.8515 10.4814 7.92141 10.4658 8.01851C10.4348 8.17775 10.3299 8.30591 10.1823 8.36806L9.76284 8.53895C9.59195 8.60886 9.51816 8.80694 9.59972 8.97394L9.70847 9.19532C9.80168 9.38563 9.65021 9.60702 9.4366 9.58371C9.13754 9.55264 8.8812 9.78956 8.86566 10.0886L8.86178 10.1779C8.85401 10.3644 8.97053 10.512 9.13754 10.5353L9.45213 10.5819C9.6774 10.6168 9.90655 10.5158 10.0308 10.3217L10.2483 9.98375C10.3454 9.83228 10.4891 9.71577 10.6561 9.64974L10.7377 9.61867C10.9358 9.54099 11.1572 9.60702 11.2853 9.77402L11.5727 10.1546C11.6465 10.2517 11.763 10.3061 11.8796 10.2906C12.0932 10.2595 12.1204 10.0498 12.0038 9.95657L11.6232 9.66139C11.5533 9.60702 11.5455 9.49827 11.6388 9.43224C11.7048 9.38563 11.7941 9.3934 11.8563 9.44389L12.1359 9.68081C12.2796 9.80121 12.3301 9.99152 12.2913 10.1741C12.2835 10.2168 12.2951 10.2634 12.3262 10.2945L12.5709 10.5586C12.6408 10.6362 12.7729 10.6052 12.8 10.5042L12.8467 10.3488C12.8661 10.2789 12.967 10.2945 13.037 10.3178C13.0836 10.3333 13.1341 10.3178 13.1612 10.275C13.2195 10.1935 13.2661 10.1003 13.3088 10.0148C13.3244 9.97987 13.3166 9.94103 13.2933 9.90996L13.2506 9.86335C13.2079 9.81675 13.204 9.74684 13.2428 9.69635L13.6079 9.17979C13.6467 9.12542 13.7205 9.106 13.7788 9.13707C14.0856 9.29242 14.9634 9.7313 14.9867 9.74295C15.0139 9.75461 14.7964 10.1818 14.7964 10.2013C14.7964 10.2168 14.0934 10.1508 13.7011 10.1158C13.6467 10.1119 13.5885 10.1313 13.5535 10.1741C13.4642 10.2828 13.3826 10.3954 13.3088 10.512C13.2778 10.5625 13.2778 10.6285 13.3088 10.679L13.336 10.7217C13.3593 10.7605 13.3982 10.7838 13.4409 10.7877L13.9885 10.8266C14.0778 10.8343 14.1361 10.9237 14.105 11.0091L13.9497 11.4441C13.9264 11.5101 13.8526 11.549 13.7827 11.5295L12.6525 11.2033C12.602 11.1878 12.5437 11.2072 12.5088 11.2499L12.2524 11.5684C12.2058 11.6266 12.1242 11.6344 12.066 11.5917L11.4446 11.1178C11.3591 11.0518 11.3203 10.9508 11.3203 10.846C11.3164 10.6712 11.1572 10.5392 10.9824 10.5741L9.92985 10.7761C9.52204 10.8537 9.15307 11.0674 8.8812 11.382L8.72584 11.5606C8.40348 11.9335 8.2054 12.3956 8.1588 12.885L8.12384 13.2656C8.09277 13.5919 8.21705 13.9143 8.45786 14.1395L8.90839 14.559C9.09481 14.7299 9.3395 14.8231 9.59195 14.8114L10.5668 14.7687C10.8464 14.7571 11.095 14.9396 11.1688 15.2076L11.4096 16.0737C11.4756 16.3184 11.4912 16.5747 11.4523 16.8233L11.4368 16.9204C11.3824 17.2505 11.4174 17.5884 11.5378 17.8991L12.0427 19.2274C12.1281 19.4488 12.365 19.5731 12.5942 19.5109L12.7612 19.4682C13.1108 19.375 13.4059 19.1497 13.5846 18.8351L14.1361 17.868C14.2604 17.6506 14.3924 17.4564 14.575 17.2894C14.6915 17.1845 14.7614 17.0369 14.7653 16.8777L14.7964 16.1358C14.7731 15.8795 14.8702 15.6232 15.0605 15.4484L15.4955 15.0483C15.6741 14.8852 15.7945 14.6677 15.845 14.4308L15.8916 14.2017C15.9266 14.0269 15.7518 13.8715 15.5887 13.9453C15.2624 14.089 14.8973 13.9803 14.7498 13.6579L14.0429 12.0888C14.004 11.9995 14.0662 11.8985 14.1672 11.8985C14.2177 11.8985 14.2643 11.9257 14.2876 11.9723L14.9478 13.2423C15.0954 13.5297 15.4566 13.6346 15.7363 13.4715L16.583 12.9782C16.8432 12.8268 16.3965 12.1898 16.2955 12.2597L16.1751 12.3413C16.1052 12.3879 16.0081 12.3607 15.9732 12.283L15.779 11.8519C15.744 11.7703 15.7518 11.6732 15.8139 11.6072C15.8955 11.5257 16.0198 11.5218 16.1052 11.5956C16.3383 11.7975 16.6024 11.9645 16.9092 12.015L17.6471 12.1354C17.7714 12.1548 17.8841 12.2209 17.9656 12.318L18.3501 12.7724C18.4666 12.9083 18.5521 13.0676 18.6065 13.2385L18.8511 14.0075C18.9094 14.1861 19.1269 14.2483 19.2706 14.1279L19.4027 14.0152C19.4531 13.9725 19.4881 13.9104 19.4959 13.8405L19.5075 13.7123C19.5386 13.4249 19.6901 13.1647 19.9231 12.9977L20.494 12.586C20.5639 12.5355 20.6649 12.5627 20.6999 12.6403L21.0145 13.3511C21.0494 13.4326 21.1465 13.4676 21.232 13.4365C21.3252 13.4016 21.4262 13.4637 21.4378 13.5608L21.5233 14.2521C21.5271 14.2638 21.531 14.2716 21.531 14.2832L21.7446 14.7066C21.7835 14.7881 21.6941 14.8697 21.6204 14.8231L21.2397 14.5978C21.2048 14.5784 21.1582 14.5823 21.131 14.6134L21.1154 14.6289C21.0805 14.6638 21.0805 14.7182 21.1116 14.7532L22.1486 15.9261C22.2612 16.0543 22.4088 16.1397 22.5758 16.1786L23.8885 16.4737C23.9235 16.4815 23.9623 16.466 23.9818 16.4349L23.9856 16.431C24.0206 16.3805 23.9934 16.3145 23.939 16.2951L22.9836 15.9999C22.704 15.9145 22.4942 15.6853 22.436 15.3979L22.3544 15.0095C22.3311 14.9008 22.2806 14.7998 22.2068 14.7143C22.0359 14.5201 21.7369 14.1706 21.7446 14.1589C21.7485 14.1512 21.7524 14.0735 21.7563 13.9842C21.7602 13.8599 21.9116 13.8055 21.9932 13.8987L22.2651 14.2055C22.3195 14.2677 22.4204 14.2677 22.4709 14.2017L22.6923 13.9298C22.7972 13.8016 22.8049 13.6191 22.7078 13.4831L22.5486 13.2618C22.4321 13.0986 22.4321 12.8773 22.5564 12.7141C22.6224 12.6287 22.7273 12.586 22.8321 12.5898L23.504 12.6093C23.6749 12.6131 23.8342 12.5161 23.9041 12.3607L24.1255 11.8208C24.2187 11.6111 24.2187 11.3703 24.1255 11.1606L23.8536 10.5586C23.8303 10.5042 23.8419 10.4382 23.8885 10.3993L24.2342 10.0964C24.2886 10.0459 24.374 10.0537 24.4245 10.108L24.6343 10.3411C24.6498 10.3605 24.6614 10.3799 24.6653 10.4071L24.7585 10.8576C24.7818 10.9625 24.91 11.0013 24.9877 10.9275L25.1819 10.7333C25.2168 10.6984 25.2324 10.6479 25.2168 10.6013L25.0926 10.143C25.0809 10.0964 25.0926 10.0498 25.1236 10.0148L25.446 9.67304C25.4693 9.64974 25.5004 9.6342 25.5353 9.63032L25.9315 9.60313C25.9858 9.59925 26.0325 9.56041 26.0519 9.50992L26.5257 8.06123C26.5762 7.90587 26.5218 7.73887 26.3937 7.64177L26.1917 7.4903C26.1218 7.43981 26.1179 7.33883 26.18 7.28057L26.5645 6.92713C26.782 6.72517 27.0733 6.62031 27.3685 6.62807L27.52 6.63196C27.7452 6.63973 27.9666 6.56593 28.1453 6.42611L28.39 6.23192C28.5958 6.06879 28.8444 5.97946 29.1046 5.9717L29.2134 5.96781C29.2561 5.96781 29.2794 6.01442 29.2522 6.04549L28.3744 7.12521C28.289 7.23008 28.2463 7.36601 28.2579 7.50195L28.2812 7.78547C28.2968 7.96413 28.5181 8.03404 28.6308 7.89422L29.1939 7.19512C29.2172 7.16405 29.2289 7.12521 29.2211 7.09026L29.1901 6.89995C29.1629 6.73294 29.2794 6.57758 29.4464 6.5504L29.9862 6.47272C30.0562 6.46107 30.1183 6.43776 30.1766 6.39893L30.8912 5.92121C31.0271 5.83576 31.0776 5.68041 31.0271 5.54447ZM16.3033 10.512C16.2955 10.5896 16.2217 10.6479 16.1441 10.6324L15.7518 10.5663C15.6702 10.5508 15.6197 10.4692 15.6469 10.3916L15.7401 10.108C15.7518 10.0731 15.7479 10.0342 15.7324 10.0032L15.4838 9.52934C15.4489 9.46331 15.4722 9.38175 15.5382 9.3468L16.0858 9.03608C16.1635 8.99336 16.2606 9.0322 16.2839 9.12153L16.3033 9.19144C16.3188 9.25358 16.2917 9.31573 16.2334 9.3468L16.1169 9.40894C16.0392 9.44778 16.0198 9.54876 16.0742 9.61479C16.1713 9.73519 16.3072 9.89831 16.3266 9.93715C16.346 9.97599 16.3227 10.31 16.3033 10.512Z" fill="url(#paint3_radial_19013_109793)"/>
<path d="M22.9183 15.2066L23.0309 15.4707C23.0581 15.5329 23.1086 15.5756 23.1746 15.5911L23.7533 15.7271C23.8892 15.7581 24.0291 15.6727 24.064 15.5368L24.2155 14.9231C24.2194 14.9076 24.2233 14.892 24.2233 14.8726V14.6279C24.2233 14.5386 24.1689 14.4609 24.0834 14.4337C24.0291 14.4143 23.9669 14.4182 23.9164 14.4493L23.0115 14.9503C22.9183 14.9969 22.8794 15.1095 22.9183 15.2066Z" fill="url(#paint4_radial_19013_109793)"/>
<path d="M26.7057 16.6322L26.6435 16.6283C26.5892 16.6245 26.5464 16.6711 26.5503 16.7216L26.562 16.974C26.5697 17.1216 26.4299 17.2381 26.2862 17.1993L25.96 17.1138C25.9134 17.1022 25.8823 17.0517 25.8939 17.0051L25.9677 16.7021C25.9794 16.6478 25.9444 16.5973 25.8901 16.5895L25.4201 16.5351C25.2648 16.5157 25.1094 16.5701 25.0006 16.6788L24.3171 17.343C24.2278 17.4284 24.1229 17.4944 24.0064 17.5333L23.482 17.7119C23.3267 17.7663 23.2296 17.9256 23.2607 18.0887L23.4471 19.0868C23.4549 19.1296 23.4471 19.1723 23.4199 19.2111C23.3694 19.281 23.3849 19.3781 23.4549 19.4325L23.6529 19.584C23.8316 19.7199 24.0685 19.7626 24.2821 19.6966L25.0628 19.4558C25.222 19.4053 25.4007 19.4403 25.5289 19.5451L25.7308 19.7083C25.7891 19.7549 25.8706 19.751 25.925 19.6966C25.991 19.6267 26.1076 19.6422 26.1542 19.7277L26.2047 19.8209C26.2901 19.9801 26.4338 20.1005 26.6047 20.1627L26.8688 20.2559C27.0358 20.3142 27.2222 20.2909 27.3698 20.1899L27.5368 20.0734C27.6378 20.0034 27.7077 19.8986 27.731 19.7821L27.9912 18.5314C28.0223 18.3839 27.9757 18.2324 27.8708 18.1275L27.4048 17.6615C27.164 17.4207 26.9737 17.1371 26.8377 16.8264L26.7795 16.6866C26.7717 16.6555 26.7406 16.6322 26.7057 16.6322Z" fill="url(#paint5_radial_19013_109793)"/>
<path d="M15.1194 17.5169L15.0689 17.8392C15.03 18.0839 15.2048 18.3053 15.4495 18.3325C15.566 18.3441 15.6748 18.2781 15.7175 18.1694L15.9855 17.4742C16.0127 17.4004 16.0127 17.3227 15.9855 17.2489L15.8651 16.9226C15.8262 16.8178 15.6903 16.7828 15.6087 16.8566L15.3524 17.0819C15.2281 17.1984 15.1427 17.3499 15.1194 17.5169Z" fill="url(#paint6_radial_19013_109793)"/>
<path d="M3.33844 13.5639C3.10152 13.6221 2.7442 13.7076 2.55001 13.7581C2.48787 13.7736 2.46845 13.8513 2.51117 13.894L2.55778 13.9445C2.68983 14.0804 2.87626 14.1426 3.06268 14.1154L3.2763 14.0843C3.38116 14.0688 3.48991 14.0688 3.59478 14.0843L4.76383 14.2707C4.83762 14.2824 4.90753 14.2513 4.94637 14.1892L5.0124 14.0921C5.05512 14.0261 5.02405 13.9367 4.95025 13.9173C4.68227 13.8396 4.12687 13.6765 3.81227 13.5833C3.65692 13.5289 3.49768 13.525 3.33844 13.5639Z" fill="url(#paint7_radial_19013_109793)"/>
<path d="M5.41689 14.1426L5.29649 14.329C5.28484 14.3445 5.29261 14.3678 5.31203 14.3756L6.25969 14.6281C6.31795 14.6436 6.38398 14.6281 6.43058 14.5892C6.56264 14.4766 5.91014 14.1115 5.60332 14.061C5.52952 14.0494 5.45573 14.0804 5.41689 14.1426Z" fill="url(#paint8_radial_19013_109793)"/>
<defs>
<radialGradient id="paint0_radial_19013_109793" cx="0" cy="0" r="1" gradientUnits="userSpaceOnUse" gradientTransform="translate(13.4457 2.3314) scale(29.4938 29.4938)">
<stop stop-color="#AEEA00"/>
<stop offset="0.2373" stop-color="#ADE903"/>
<stop offset="0.3915" stop-color="#A9E40B"/>
<stop offset="0.522" stop-color="#A2DC1A"/>
<stop offset="0.6386" stop-color="#98D12F"/>
<stop offset="0.7459" stop-color="#8BC34A"/>
<stop offset="1" stop-color="#8BC34A"/>
</radialGradient>
<radialGradient id="paint1_radial_19013_109793" cx="0" cy="0" r="1" gradientUnits="userSpaceOnUse" gradientTransform="translate(13.4453 2.33194) scale(29.4938 29.4938)">
<stop stop-color="#AEEA00"/>
<stop offset="0.2373" stop-color="#ADE903"/>
<stop offset="0.3915" stop-color="#A9E40B"/>
<stop offset="0.522" stop-color="#A2DC1A"/>
<stop offset="0.6386" stop-color="#98D12F"/>
<stop offset="0.7459" stop-color="#8BC34A"/>
<stop offset="1" stop-color="#8BC34A"/>
</radialGradient>
<radialGradient id="paint2_radial_19013_109793" cx="0" cy="0" r="1" gradientUnits="userSpaceOnUse" gradientTransform="translate(13.4444 2.33145) scale(29.4938 29.4938)">
<stop stop-color="#AEEA00"/>
<stop offset="0.2373" stop-color="#ADE903"/>
<stop offset="0.3915" stop-color="#A9E40B"/>
<stop offset="0.522" stop-color="#A2DC1A"/>
<stop offset="0.6386" stop-color="#98D12F"/>
<stop offset="0.7459" stop-color="#8BC34A"/>
<stop offset="1" stop-color="#8BC34A"/>
</radialGradient>
<radialGradient id="paint3_radial_19013_109793" cx="0" cy="0" r="1" gradientUnits="userSpaceOnUse" gradientTransform="translate(13.4448 2.33249) scale(29.4938 29.4938)">
<stop stop-color="#AEEA00"/>
<stop offset="0.2373" stop-color="#ADE903"/>
<stop offset="0.3915" stop-color="#A9E40B"/>
<stop offset="0.522" stop-color="#A2DC1A"/>
<stop offset="0.6386" stop-color="#98D12F"/>
<stop offset="0.7459" stop-color="#8BC34A"/>
<stop offset="1" stop-color="#8BC34A"/>
</radialGradient>
<radialGradient id="paint4_radial_19013_109793" cx="0" cy="0" r="1" gradientUnits="userSpaceOnUse" gradientTransform="translate(13.4455 2.33156) scale(29.4938 29.4938)">
<stop stop-color="#AEEA00"/>
<stop offset="0.2373" stop-color="#ADE903"/>
<stop offset="0.3915" stop-color="#A9E40B"/>
<stop offset="0.522" stop-color="#A2DC1A"/>
<stop offset="0.6386" stop-color="#98D12F"/>
<stop offset="0.7459" stop-color="#8BC34A"/>
<stop offset="1" stop-color="#8BC34A"/>
</radialGradient>
<radialGradient id="paint5_radial_19013_109793" cx="0" cy="0" r="1" gradientUnits="userSpaceOnUse" gradientTransform="translate(13.4461 2.33174) scale(29.4938 29.4938)">
<stop stop-color="#AEEA00"/>
<stop offset="0.2373" stop-color="#ADE903"/>
<stop offset="0.3915" stop-color="#A9E40B"/>
<stop offset="0.522" stop-color="#A2DC1A"/>
<stop offset="0.6386" stop-color="#98D12F"/>
<stop offset="0.7459" stop-color="#8BC34A"/>
<stop offset="1" stop-color="#8BC34A"/>
</radialGradient>
<radialGradient id="paint6_radial_19013_109793" cx="0" cy="0" r="1" gradientUnits="userSpaceOnUse" gradientTransform="translate(15.5347 17.5756) rotate(90) scale(0.758216 0.471199)">
<stop stop-color="#ACE708"/>
<stop offset="1" stop-color="#ACE708"/>
</radialGradient>
<radialGradient id="paint7_radial_19013_109793" cx="0" cy="0" r="1" gradientUnits="userSpaceOnUse" gradientTransform="translate(13.4443 2.33168) scale(29.4938 29.4938)">
<stop stop-color="#AEEA00"/>
<stop offset="0.2373" stop-color="#ADE903"/>
<stop offset="0.3915" stop-color="#A9E40B"/>
<stop offset="0.522" stop-color="#A2DC1A"/>
<stop offset="0.6386" stop-color="#98D12F"/>
<stop offset="0.7459" stop-color="#8BC34A"/>
<stop offset="1" stop-color="#8BC34A"/>
</radialGradient>
<radialGradient id="paint8_radial_19013_109793" cx="0" cy="0" r="1" gradientUnits="userSpaceOnUse" gradientTransform="translate(13.4449 2.33162) scale(29.4938 29.4939)">
<stop stop-color="#AEEA00"/>
<stop offset="0.2373" stop-color="#ADE903"/>
<stop offset="0.3915" stop-color="#A9E40B"/>
<stop offset="0.522" stop-color="#A2DC1A"/>
<stop offset="0.6386" stop-color="#98D12F"/>
<stop offset="0.7459" stop-color="#8BC34A"/>
<stop offset="1" stop-color="#8BC34A"/>
</radialGradient>
</defs>
</svg>
