<?xml version="1.0" standalone="no"?>
<!DOCTYPE svg PUBLIC "-//W3C//DTD SVG 1.1//EN" "http://www.w3.org/Graphics/SVG/1.1/DTD/svg11.dtd" >
<svg xmlns="http://www.w3.org/2000/svg">
<metadata>Generated by IcoMoon</metadata>
<defs>
<font id="icomoon" horiz-adv-x="1024">
<font-face units-per-em="1024" ascent="960" descent="-64" />
<missing-glyph horiz-adv-x="1024" />
<glyph unicode="&#x20;" horiz-adv-x="512" d="" />
<glyph unicode="&#xe900;" glyph-name="tabbar-games-active" d="M945.971 144.738c-27.569-31.508-66.954-51.2-110.277-51.2-59.077 0-114.215 35.446-137.846 94.523l-19.692 47.262c70.888 3.938 126.031 63.015 126.031 137.846s-63.015 137.846-137.85 137.846c-74.827 0-137.846-63.015-137.846-137.846h-39.385c0 74.831-63.015 137.846-137.844 137.846-74.831 0-137.846-66.954-137.846-141.785 0-70.892 55.138-129.969 126.031-137.846l-19.692-47.262c-19.692-55.138-74.831-90.585-133.908-90.585-43.323 0-82.708 19.692-110.277 51.2s-39.385 74.831-35.446 118.154l47.262 370.215c7.877 94.523 94.523 169.354 192.985 169.354h31.508c23.631 0 47.262-3.938 70.892-15.754l27.567-15.754c7.877-3.938 19.692-7.877 31.512-7.877h129.969c11.815 0 23.627 3.938 35.442 7.877l27.569 15.754c23.635 11.815 51.204 15.754 74.835 15.754h31.508c98.462 0 181.169-74.831 196.923-173.292l47.262-370.215c0-39.385-11.815-82.708-39.385-114.215zM351.262 428.308c-31.508 0-59.077-27.569-59.077-59.077s27.569-59.077 59.077-59.077h3.938c31.508 3.938 55.136 27.569 55.136 59.077s-27.567 59.077-59.075 59.077zM725.417 369.231c0 31.508-27.569 59.077-59.081 59.077-31.508 0-59.077-27.569-59.077-59.077s23.631-55.138 55.138-59.077h3.938c31.512 0 59.081 27.569 59.081 59.077z" />
<glyph unicode="&#xe901;" glyph-name="tabbar-home" d="M787.692 42.346h-118.154c-43.323 0-78.769 35.446-78.769 78.769v118.154c0 43.323-35.446 78.769-78.769 78.769s-78.769-35.446-78.769-78.769v-118.154c0-43.323-35.446-78.769-78.769-78.769h-118.154c-66.954 0-118.154 51.2-118.154 118.154v358.4c0 31.508 15.754 66.954 39.385 86.646l275.692 244.185c43.323 39.385 110.277 39.385 157.538 0l275.692-244.185c23.631-23.631 39.385-55.138 39.385-86.646v-358.4c0-66.954-51.2-118.154-118.154-118.154zM512 396.808c86.646 0 157.538-70.892 157.538-157.538v-118.154h118.154c23.631 0 39.385 15.754 39.385 39.385v358.4c0 11.815-3.938 23.631-11.815 27.569l-275.692 244.185c-15.754 11.815-39.385 11.815-51.2 0l-275.692-244.185c-11.815-7.877-15.754-15.754-15.754-27.569v-358.4c0-23.631 15.754-39.385 39.385-39.385h118.154v118.154c0 86.646 70.892 157.538 157.538 157.538z" />
<glyph unicode="&#xe902;" glyph-name="tabbar-home-active" d="M866.462 605.546l-275.692 244.185c-43.323 39.385-110.277 39.385-157.538 0l-275.692-244.185c-23.631-19.692-39.385-55.138-39.385-86.646v-358.4c0-66.954 51.2-118.154 118.154-118.154h78.769c43.323 0 78.769 35.446 78.769 78.769v118.154c0 66.954 51.2 118.154 118.154 118.154s118.154-51.2 118.154-118.154v-118.154c0-43.323 35.446-78.769 78.769-78.769h78.769c66.954 0 118.154 51.2 118.154 118.154v358.4c0 31.508-15.754 66.954-39.385 86.646z" />
<glyph unicode="&#xe903;" glyph-name="tabbar-more" d="M512 881.231c-240.246 0-433.231-192.985-433.231-433.231s192.985-433.231 433.231-433.231c240.246 0 433.231 192.985 433.231 433.231s-192.985 433.231-433.231 433.231zM512 93.538c-196.923 0-354.462 157.538-354.462 354.462s157.538 354.462 354.462 354.462c196.923 0 354.462-157.538 354.462-354.462s-157.538-354.462-354.462-354.462zM393.846 448c0-23.631-15.754-39.385-39.385-39.385s-39.385 15.754-39.385 39.385c0 23.631 15.754 39.385 39.385 39.385s39.385-15.754 39.385-39.385zM551.385 448c0-23.631-15.754-39.385-39.385-39.385s-39.385 15.754-39.385 39.385c0 23.631 15.754 39.385 39.385 39.385s39.385-15.754 39.385-39.385zM708.923 448c0-23.631-15.754-39.385-39.385-39.385s-39.385 15.754-39.385 39.385c0 23.631 15.754 39.385 39.385 39.385s39.385-15.754 39.385-39.385z" />
<glyph unicode="&#xe904;" glyph-name="tabbar-more-active" d="M512 881.231c-240.246 0-433.231-192.985-433.231-433.231s192.985-433.231 433.231-433.231c240.246 0 433.231 192.985 433.231 433.231s-192.985 433.231-433.231 433.231zM315.077 388.923c-31.508 0-59.077 27.569-59.077 59.077s27.569 59.077 59.077 59.077c31.508 0 59.077-27.569 59.077-59.077s-27.569-59.077-59.077-59.077zM512 388.923c-31.508 0-59.077 27.569-59.077 59.077s27.569 59.077 59.077 59.077c31.508 0 59.077-27.569 59.077-59.077s-27.569-59.077-59.077-59.077zM708.923 388.923c-31.508 0-59.077 27.569-59.077 59.077s27.569 59.077 59.077 59.077c31.508 0 59.077-27.569 59.077-59.077s-27.569-59.077-59.077-59.077z" />
<glyph unicode="&#xe905;" glyph-name="tabbar-notifications" d="M913.723 266.807l-24.344 32.5c-40.334 53.969-62.184 119.509-62.306 186.884v79.963c0 83.564-33.197 163.705-92.286 222.793s-139.229 92.284-222.791 92.284c-83.562 0-163.705-33.195-222.794-92.284s-92.284-139.229-92.284-222.793v-79.963c-0.128-67.387-21.978-132.935-62.306-186.923l-24.346-32.421c-6.578-8.779-10.584-19.216-11.566-30.145-0.983-10.925 1.095-21.91 6.001-31.724 4.906-9.811 12.447-18.066 21.778-23.836s20.084-8.83 31.054-8.834h196.923c-0.006-30.862 9.054-61.046 26.056-86.804 17.002-25.754 41.196-45.95 69.576-58.073s59.699-15.644 90.061-10.118c30.366 5.522 58.439 19.846 80.731 41.184 3.734 3.576 6.723 7.853 8.802 12.587 2.080 4.73 3.21 9.826 3.32 14.994s-0.8 10.307-2.674 15.124c-1.875 4.817-4.679 9.22-8.255 12.95-3.576 3.734-7.853 6.727-12.587 8.806-4.73 2.080-9.826 3.206-14.994 3.316s-10.307-0.796-15.124-2.67c-4.817-1.879-9.216-4.683-12.95-8.259-11.158-10.654-25.194-17.798-40.373-20.547s-30.834-0.981-45.017 5.085c-14.182 6.065-26.273 16.163-34.773 29.038-8.495 12.875-13.028 27.959-13.028 43.386h433.231c10.965 0 21.717 3.056 31.047 8.822s16.872 14.017 21.776 23.828c4.907 9.807 6.987 20.791 6.006 31.712-0.981 10.925-4.986 21.358-11.563 30.137zM196.917 251.077l0.692 0.922c50.526 67.643 77.905 149.768 78.077 234.193v79.963c0 62.673 24.897 122.778 69.213 167.095s104.424 69.213 167.097 69.213c62.673 0 122.778-24.897 167.093-69.213s69.215-104.422 69.215-167.095v-79.963c0.165-84.417 27.546-166.53 78.076-234.153l0.693-0.961h-630.156zM531.728 689.115c0.831-5.107 0.65-10.327-0.532-15.364-1.185-5.037-3.348-9.791-6.372-13.991-3.021-4.2-6.841-7.764-11.236-10.488-4.399-2.724-9.295-4.555-14.399-5.388-16.352-2.776-31.425-10.605-43.095-22.388-11.674-11.783-19.361-26.927-21.984-43.304-1.568-10.323-7.176-19.6-15.588-25.787-8.409-6.191-18.932-8.783-29.257-7.211-10.323 1.568-19.6 7.176-25.789 15.588-6.189 8.409-8.783 18.934-7.212 29.257 4.937 32.916 20.216 63.409 43.629 87.069 23.41 23.66 53.74 39.261 86.599 44.546 5.112 0.851 10.338 0.683 15.38-0.493 5.045-1.177 9.803-3.34 14.009-6.364 4.202-3.024 7.767-6.85 10.488-11.258 2.718-4.407 4.541-9.309 5.356-14.423h0.004z" />
<glyph unicode="&#xe906;" glyph-name="tabbar-notifications-active" d="M913.664 266.831l-24.418 32.295c-40.294 54.059-62.113 119.654-62.228 187.077v79.951c0 83.564-33.193 163.705-92.282 222.793s-139.232 92.284-222.795 92.284c-83.562 0-163.705-33.195-222.793-92.284s-92.284-139.229-92.284-222.793v-79.951c-0.113-67.423-21.933-133.018-62.228-187.077l-24.418-32.295c-6.56-8.783-10.55-19.216-11.523-30.137-0.974-10.917 1.107-21.89 6.010-31.697 4.902-9.803 12.434-18.054 21.753-23.828 9.319-5.77 20.060-8.838 31.022-8.862h708.923c10.961 0.024 21.701 3.092 31.023 8.862 9.318 5.774 16.849 14.025 21.752 23.828 4.903 9.807 6.983 20.779 6.010 31.697-0.973 10.921-4.962 21.354-11.524 30.137zM459.559 683.126c-16.309-2.73-31.354-10.507-43.012-22.235s-19.342-26.818-21.973-43.143c-1.32-9.294-5.952-17.8-13.044-23.951s-16.166-9.534-25.554-9.526c-2.108-0.065-4.218 0.067-6.302 0.394-5.109 0.77-10.014 2.547-14.431 5.228s-8.257 6.212-11.298 10.389c-3.041 4.177-5.222 8.916-6.417 13.943s-1.38 10.241-0.543 15.339c4.912 32.876 20.152 63.339 43.515 86.985s53.64 39.251 86.455 44.56c5.124 0.879 10.374 0.728 15.443-0.446 5.065-1.174 9.85-3.346 14.064-6.39 4.218-3.044 7.786-6.898 10.496-11.337s4.51-9.374 5.289-14.516c1.662-10.34-0.847-20.916-6.975-29.408s-15.38-14.204-25.714-15.884zM623.006 93.538c-4.242-12.564-10.638-24.292-18.905-34.658-3.23-4.088-6.786-7.908-10.634-11.422-21.996-20.921-51.172-32.618-81.526-32.689-24.422-0.118-48.266 7.416-68.187 21.543s-34.914 34.139-42.878 57.226h222.129z" />
<glyph unicode="&#xe907;" glyph-name="tabbar-search" d="M468.677 648.862c3.938-19.692-11.815-39.385-31.508-43.323-43.323-7.877-74.831-39.385-82.708-78.769 0-19.692-19.692-35.446-35.446-35.446-3.938 0-3.938 0-7.877 0-23.631 7.877-35.446 27.569-31.508 47.262 11.815 70.892 70.892 129.969 141.785 141.785 23.631 3.938 43.323-7.877 47.262-31.508zM894.031 65.969c-7.877-7.877-15.754-11.815-27.569-11.815s-19.692 3.938-27.569 11.815l-177.231 177.231c-55.138-43.323-129.969-70.892-208.738-70.892-185.108 0-334.769 149.662-334.769 334.769s149.662 334.769 334.769 334.769c185.108 0 334.769-149.662 334.769-334.769 0-78.769-27.569-149.662-70.892-208.738l177.231-177.231c15.754-15.754 15.754-39.385 0-55.138zM452.923 251.077c141.785 0 256 114.215 256 256s-114.215 256-256 256c-141.785 0-256-114.215-256-256s114.215-256 256-256z" />
<glyph unicode="&#xe908;" glyph-name="tabbar-search-active" d="M909.785 136.862l-165.415 165.415c39.385 59.077 66.954 129.969 66.954 204.8 0 196.923-157.538 354.462-354.462 354.462s-358.4-157.538-358.4-354.462c0-196.923 157.538-354.462 354.462-354.462 74.831 0 145.723 23.631 204.8 66.954l165.415-165.415c11.815-11.815 27.569-15.754 43.323-15.754s31.508 3.938 43.323 15.754c19.692 19.692 19.692 59.077 0 82.708zM216.615 507.077c0 129.969 106.338 236.308 236.308 236.308s236.308-106.338 236.308-236.308c0-129.969-106.338-236.308-236.308-236.308s-236.308 106.338-236.308 236.308z" />
<glyph unicode="&#xe909;" glyph-name="tabbar-games" d="M984.623 258.954l-47.262 370.215c-11.815 98.462-94.523 173.292-196.923 173.292h-31.508c-23.631 0-47.262-3.938-70.892-15.754l-27.569-15.754c-7.877-3.938-19.692-7.877-31.508-7.877h-129.969c-15.754 0-27.569 3.938-39.385 7.877l-27.569 15.754c-19.692 11.815-47.262 15.754-70.892 15.754h-27.569c-98.462 0-181.169-74.831-196.923-173.292l-47.262-370.215c-3.939-43.323 7.877-82.708 35.446-118.154s70.892-47.262 114.215-47.262c59.077 0 114.215 35.446 137.846 94.523l27.569 70.892c11.815-3.938 23.631-7.877 39.385-7.877 66.954 0 118.154 51.2 118.154 118.154s-51.2 118.154-118.154 118.154c-66.954 0-118.154-51.2-118.154-118.154 0-19.692 3.938-39.385 15.754-55.138l-39.385-98.462c-11.815-27.569-35.446-43.323-63.015-43.323-19.692 0-39.385 7.877-51.2 23.631-15.754 15.754-23.631 35.446-19.692 55.138l47.262 370.215c7.877 59.077 59.077 102.4 118.154 102.4h31.508c11.815 0 23.631-3.938 35.446-7.877l27.569-15.754c19.692-11.815 43.323-15.754 66.954-15.754h129.969c23.631 0 47.262 3.938 70.892 15.754l27.569 15.754c15.754 3.938 27.569 7.877 39.385 7.877h31.508c59.077 0 110.277-43.323 118.154-102.4l43.323-370.215c3.938-19.692-3.938-39.385-15.754-55.138s-31.508-23.631-51.2-23.631c-23.631 0-47.262 11.815-59.077 35.446-11.815 19.692-35.446 23.631-55.138 15.754-19.692-11.815-23.631-35.446-15.754-55.138 27.569-47.262 74.831-74.831 129.969-74.831 43.323 0 82.708 19.692 110.277 51.2s39.385 74.831 35.446 114.215zM393.854 408.615c23.631 0 39.385-15.754 39.385-39.385s-15.754-39.385-39.385-39.385c-23.631 0-39.385 15.754-39.385 39.385s15.754 39.385 39.385 39.385zM630.162 251.077c66.954 0 118.154 51.2 118.154 118.154s-51.2 118.154-118.154 118.154c-66.954 0-118.154-51.2-118.154-118.154s51.2-118.154 118.154-118.154zM630.162 408.615c23.631 0 39.385-15.754 39.385-39.385s-15.754-39.385-39.385-39.385c-23.631 0-39.385 15.754-39.385 39.385s15.754 39.385 39.385 39.385z" />
<glyph unicode="&#xe90a;" glyph-name="game-favorites" d="M512 0.969c-7.877 0-19.692 3.938-27.569 7.877l-55.138 47.262c-204.8 181.169-370.215 322.954-370.215 512 0 118.154 98.462 248.123 248.123 248.123 102.4 0 165.415-47.262 204.8-86.646 35.446 39.385 102.4 86.646 208.738 86.646 145.723 0 244.185-129.969 244.185-248.123 0-185.108-165.415-330.831-362.338-496.247-23.631-19.692-43.323-39.385-66.954-59.077-3.938-7.877-15.754-11.815-23.631-11.815zM307.2 737.462c-102.4 0-169.354-90.585-169.354-169.354 0-149.662 153.6-283.57 346.585-448.985l27.569-23.631c11.815 11.815 27.569 23.631 39.385 35.446 185.108 161.477 334.769 287.508 334.769 437.17 0 82.708-66.954 169.354-165.415 169.354-94.523 0-145.723-51.2-177.231-90.585-7.877-7.877-19.692-15.754-31.508-15.754s-23.631 3.938-31.508 15.754c-23.631 27.569-74.831 90.585-173.292 90.585zM287.508 446.015c-11.815 0-27.569 7.877-35.446 19.692-27.569 51.2-35.446 90.585-27.569 126.031s31.508 47.262 39.385 51.2c19.692 11.815 43.323 3.938 55.138-15.754s3.938-39.385-11.815-51.2c-7.877-3.938-11.815-23.631 15.754-66.954 11.815-19.692 3.938-43.323-15.754-55.138-3.938-3.938-11.815-7.877-19.692-7.877z" />
<glyph unicode="&#xe90b;" glyph-name="game-jackpots" d="M945.231 802.462c-7.877 82.708-133.908 118.154-256 118.154s-252.062-35.446-256-114.215c0-3.938 0-3.938 0-3.938v-126.031c-31.508 3.938-66.954 7.877-98.462 7.877-122.092 0-256-39.385-256-122.092v-468.677c0-82.708 133.908-122.092 256-122.092s256 39.385 256 122.092v468.677c0 39.385-31.508 70.892-78.769 90.585v59.077c47.262-19.692 114.215-31.508 177.231-31.508s129.969 11.815 177.231 31.508v-141.785c-7.877-11.815-59.077-39.385-157.538-43.323-23.631 0-39.385-19.692-39.385-39.385s19.692-39.385 39.385-39.385c55.138 0 114.215 11.815 157.538 31.508v-145.723c-3.938-7.877-39.385-31.508-122.092-39.385-19.692-3.938-35.446-23.631-35.446-43.323 3.938-19.692 19.692-35.446 39.385-35.446h3.938c43.323 3.938 82.708 15.754 114.215 27.569v-145.723c-7.877-11.815-66.954-43.323-177.231-43.323-7.877 0-11.815 0-19.692 0-19.692 0-39.385-15.754-39.385-39.385s15.754-39.385 39.385-39.385c7.877 0 15.754 0 19.692 0 122.092 0 256 39.385 256 122.092v704.985c0-3.938 0 0 0 0zM157.538 471.631c66.954-27.569 161.477-35.446 240.246-27.569 23.631 3.938 35.446 23.631 35.446 47.262-3.938 19.692-23.631 35.446-43.323 35.446s-35.446-3.938-55.138-3.938c-102.4 0-165.415 27.569-177.231 43.323 11.815 11.815 74.831 39.385 177.231 39.385 110.277 0 173.292-31.508 177.231-43.323v-232.369c-7.877-11.815-66.954-43.323-177.231-43.323s-173.292 31.508-177.231 43.323v141.785zM334.769 50.215c-110.277 0-173.292 31.508-177.231 43.323v145.723c47.262-19.692 114.215-31.508 177.231-31.508s129.969 11.815 177.231 31.508v-145.723c-3.938-11.815-66.954-43.323-177.231-43.323zM689.231 759.138c-102.4 0-165.415 27.569-173.292 39.385 11.815 15.754 70.892 43.323 173.292 43.323s165.415-27.569 173.292-39.385c-11.815-15.754-70.892-43.323-173.292-43.323z" />
<glyph unicode="&#xe90c;" glyph-name="game-live" d="M756.185 700.062c-19.692 3.938-43.323-7.877-47.262-31.508-3.938-19.692 7.877-43.323 31.508-47.262 122.092-27.569 165.415-63.015 165.415-78.769 0-27.569-133.908-98.462-393.846-98.462s-393.846 74.831-393.846 102.4c0 11.815 43.323 51.2 165.415 78.769 23.631 3.938 35.446 23.631 31.508 43.323-3.938 23.631-27.569 35.446-47.262 31.508-145.723-31.508-228.431-86.646-228.431-153.6v-291.446c0-126.031 295.385-161.477 472.615-161.477s472.615 35.446 472.615 161.477v291.446c0 66.954-82.708 122.092-228.431 153.6zM118.154 255.015v185.108c23.631-11.815 51.2-23.631 78.769-31.508v-196.923c-47.262 15.754-74.831 31.508-78.769 43.323zM512 172.308c-94.523 0-173.292 7.877-236.308 19.692v196.923c74.831-15.754 157.538-19.692 236.308-19.692 149.662 0 303.262 23.631 393.846 74.831v-185.108c-7.877-31.508-153.6-86.646-393.846-86.646zM354.462 763.077c0 23.631 15.754 39.385 39.385 39.385h78.769v39.385c0 23.631 15.754 39.385 39.385 39.385s39.385-15.754 39.385-39.385v-39.385h78.769c23.631 0 39.385-15.754 39.385-39.385s-15.754-39.385-39.385-39.385h-78.769v-157.538c0-23.631-15.754-39.385-39.385-39.385s-39.385 15.754-39.385 39.385v157.538h-78.769c-23.631 0-39.385 15.754-39.385 39.385z" />
<glyph unicode="&#xe90d;" glyph-name="slots" d="M737.279 632.322c-49.152 0-94.208-12.288-131.072-36.864-167.936 147.456-176.128 315.392-176.128 323.583s-4.096 20.48-8.192 24.576l-4.096 4.096c-8.192 8.192-16.384 12.288-28.672 12.288-180.223 0-368.64-139.264-368.64-368.64 0-20.48 16.384-36.864 36.864-40.96 4.096 0 126.975-16.384 229.376 65.535 16.384 12.288 32.768 28.672 49.152 45.056-12.288-65.535-28.672-135.168-57.343-196.608-122.88-24.576-217.087-131.072-217.087-262.144 0-147.456 118.783-266.24 266.24-266.24s266.24 118.783 266.24 266.24c0 49.152-16.384 98.304-36.864 139.264 0 8.192-4.096 16.384-4.096 24.576 0 102.4 81.92 184.32 184.32 184.32s184.32-81.92 184.32-184.32c0-102.4-81.92-184.32-184.32-184.32-4.096 0-12.288 0-16.384 0-20.48 4.096-40.96-16.384-45.056-36.864s16.384-40.96 36.864-45.056c8.192 0 16.384 0 24.576 0 147.456 0 266.24 118.783 266.24 266.24s-118.783 266.24-266.24 266.24zM540.672 546.306c-32.768-32.768-53.248-77.824-61.44-122.88-32.768 20.48-69.632 36.864-110.591 40.96 28.672 77.824 45.056 159.744 53.248 229.376 24.576-49.152 65.535-98.304 118.783-147.456zM237.568 681.474c-49.152-36.864-98.304-49.152-131.072-49.152 16.384 139.264 122.88 225.279 237.568 241.663-20.48-86.016-57.343-151.552-106.496-192.512zM327.68 17.923c-102.4 0-184.32 81.92-184.32 184.32s81.92 184.32 184.32 184.32c102.4 0 184.32-81.92 184.32-184.32s-81.92-184.32-184.32-184.32z" />
<glyph unicode="&#xe90e;" glyph-name="game-drop-wins" d="M976.746 542.523c0 0 3.938 3.938 3.938 7.877s3.938 3.938 3.938 7.877c0 3.938 0 3.938 0 7.877v7.877c0 3.938 0 3.938 0 7.877s0 3.938-3.938 7.877v3.938l-157.538 236.308c-11.815 3.938-23.631 11.815-35.446 11.815h-551.385c-11.815 0-23.631-7.877-31.508-15.754l-157.538-236.308c0 0 0 0 0-3.938v-7.877c0-3.938 0-3.938 0-7.877v-7.877c0-3.938 0-3.938 0-7.877v-3.938c0 0 0-3.938 3.938-3.938 0 0 0-3.938 3.938-3.938 0 0 0 0 0-3.938l433.231-512c7.877-7.877 19.692-15.754 31.508-15.754s23.631 3.938 31.508 15.754l299.323 354.462c15.754 15.754 11.815 43.323-3.938 55.138-15.754 15.754-43.323 11.815-55.138-3.938l-181.169-212.677 106.338 307.2h228.431c3.938 0 7.877 0 11.815 3.938h3.938c0 0 3.938 0 3.938 3.938 0 0 0 0 3.938 3.938 3.938 0 3.938 0 7.877 3.938zM870.408 605.538h-153.6l-39.385 157.538h86.646l106.338-157.538zM307.208 526.769l114.215-307.2-256 307.2h141.785zM598.654 763.077l39.385-157.538h-252.062l39.385 157.538h173.292zM256.008 763.077h86.646l-39.385-157.538h-149.662l102.4 157.538zM512.008 207.754l-118.154 319.015h236.308l-118.154-319.015z" />
<glyph unicode="&#xe90f;" glyph-name="game-card-games" d="M345.421 408.6c3.938-19.692-7.877-43.323-27.569-47.262-3.938 0-7.877 0-11.815 0-15.754 0-31.508 11.815-39.385 27.569l-31.508 114.215c-3.938 19.692 7.877 43.323 27.569 47.262s43.323-7.877 47.262-27.569l35.446-114.215zM991.33 727.615l-141.785-527.754c-3.938-15.754-19.692-27.569-39.385-27.569-3.938 0-7.877 0-11.815 0-19.692 3.938-31.508 27.569-27.569 47.262l141.785 527.754-346.585 94.523-23.631-82.708c11.815-11.815 19.692-23.631 23.631-39.385l149.662-551.385c11.815-43.323-11.815-86.646-55.138-98.462l-350.525-94.523c-7.877 0-15.754 0-19.692 0-11.815 0-27.569 3.938-39.385 11.815-19.692 11.815-31.508 27.569-35.446 47.262l-149.662 551.385c-7.877 19.692-3.938 39.385 7.877 59.077 7.877 15.754 27.569 31.508 47.262 35.446l342.648 90.585 23.631 90.585c11.815 43.323 55.138 66.954 94.523 55.138l350.523-94.523c43.323-7.877 70.892-51.2 59.077-94.523zM491.146 700.046l-350.525-94.523 149.662-551.385 350.525 94.523-149.662 551.385z" />
<glyph unicode="&#xe910;" glyph-name="game-all" d="M275.692 526.769h118.154c23.631 0 39.385-15.754 39.385-39.385s-15.754-39.385-39.385-39.385h-78.769v-78.769c0-23.631-15.754-39.385-39.385-39.385s-39.385 15.754-39.385 39.385v118.154c0 23.631 15.754 39.385 39.385 39.385zM945.231 763.077v-433.231c0-23.631-15.754-39.385-39.385-39.385s-39.385 15.754-39.385 39.385v433.231c0 23.631-15.754 39.385-39.385 39.385h-433.231c-23.631 0-39.385-15.754-39.385-39.385v-78.769h275.692c66.954 0 118.154-51.2 118.154-118.154v-433.231c0-66.954-51.2-118.154-118.154-118.154h-433.231c-66.954 0-118.154 51.2-118.154 118.154v433.231c0 66.954 51.2 118.154 118.154 118.154h78.769v78.769c0 66.954 51.2 118.154 118.154 118.154h433.231c66.954 0 118.154-51.2 118.154-118.154zM630.154 605.538h-433.231c-23.631 0-39.385-15.754-39.385-39.385v-433.231c0-23.631 15.754-39.385 39.385-39.385h433.231c23.631 0 39.385 15.754 39.385 39.385v433.231c0 23.631-15.754 39.385-39.385 39.385z" />
<glyph unicode="&#xe911;" glyph-name="eye-slash" d="M38.086 958.248c17.732 4.751 36.653-0.318 49.633-13.299l921.145-921.141c9.69-9.613 15.136-22.694 15.136-36.339s-5.446-26.72-15.136-36.333c-9.613-9.69-22.688-15.136-36.333-15.136s-26.726 5.446-36.339 15.136l-165.805 166.317c-76.672-50.79-166.464-78.17-258.43-78.81-209.816 0-404.28 148.922-507.653 388.93-5.696 13.052-5.696 27.888 0 40.94 39.397 92.422 97.006 175.963 169.388 245.638l-158.642 158.13c-12.981 12.98-18.050 31.901-13.299 49.633s18.602 31.583 36.334 36.334zM511.957 755.091c-18.16 0.026-36.295-1.343-54.245-4.094v-2.047c-18.283-3.108-36.835 3.774-48.669 18.053s-15.149 33.788-8.7 51.175c6.45 17.388 21.686 30.013 39.969 33.121 23.647 4.207 47.627 6.262 71.645 6.141 209.816 0 404.28-148.918 507.652-388.927 5.549-12.904 5.549-27.523 0-40.428-17.37-40.871-38.080-80.238-61.92-117.704-11.712-19.738-35.136-29.267-57.299-23.309s-37.651 25.946-37.888 48.899c-0.070 9.98 2.771 19.763 8.186 28.146 17.062 27.005 32.442 55.034 46.061 83.926-89.043 189.858-242.054 307.048-404.792 307.048zM413.19 474.654l125.378-125.378c-8.649-2.481-17.613-3.687-26.611-3.582-56.526 0-102.349 45.823-102.349 102.349-0.105 8.997 1.102 17.962 3.582 26.611zM107.677 448.043c88.532-189.86 241.544-307.044 404.28-307.044 64.655 0.73 127.992 18.374 183.716 51.174l-81.368 80.339c-79.761-43.699-178.792-29.536-243.103 34.778-64.311 64.31-78.477 163.341-34.774 243.103l-90.579 91.603c-58.182-55.093-105.108-120.964-138.172-193.952z" />
<glyph unicode="&#xe912;" glyph-name="eye" horiz-adv-x="1088" d="M575.812 857.625c209.845 0 404.341-148.94 507.727-388.984 5.696-13.054 5.696-27.892 0-40.946-103.386-240.047-297.882-388.988-507.727-388.988-209.847 0-404.339 148.941-507.727 388.988-5.697 13.054-5.697 27.892 0 40.946 103.388 240.044 297.88 388.984 507.727 388.984zM171.473 448.168c88.545-189.883 242.092-307.092 404.339-307.092s315.797 117.21 404.341 307.092c-88.544 189.886-242.093 307.093-404.341 307.093s-315.794-117.207-404.339-307.093zM575.812 652.897c-113.069 0-204.729-91.66-204.729-204.729s91.66-204.731 204.729-204.731c113.071 0 204.732 91.662 204.732 204.731 0 54.298-21.574 106.371-59.968 144.765s-90.466 59.964-144.764 59.964zM473.448 448.168c0-56.534 45.83-102.364 102.364-102.364s102.364 45.83 102.364 102.364c0 56.534-45.829 102.364-102.364 102.364s-102.364-45.83-102.364-102.364z" />
<glyph unicode="&#xe913;" glyph-name="minus" d="M768 405.333h-512c-25.6 0-42.667 17.067-42.667 42.667s17.067 42.667 42.667 42.667h512c25.6 0 42.667-17.067 42.667-42.667s-17.067-42.667-42.667-42.667z" />
<glyph unicode="&#xe914;" glyph-name="notifications" d="M512 21.333c-46.933 0-89.6 17.067-119.467 51.2-34.133 29.867-51.2 72.533-51.2 119.467h-170.667c-17.067 0-34.133 8.533-38.4 25.6s-4.267 34.133 8.533 46.933l59.733 59.733c8.533 8.533 12.8 21.333 12.8 29.867v136.533c0 115.2 68.267 221.867 170.667 268.8 4.267 29.867 17.067 55.467 38.4 76.8 46.933 46.933 132.267 46.933 179.2 0 21.333-21.333 34.133-46.933 38.4-76.8 46.933-21.333 85.333-55.467 115.2-98.133 34.133-51.2 55.467-110.933 55.467-170.667v-136.533c0-4.267 0-12.8 4.267-17.067s4.267-8.533 8.533-12.8l59.733-59.733c12.8-12.8 17.067-29.867 8.533-46.933-4.267-17.067-21.333-25.6-38.4-25.6h-170.667c0-46.933-17.067-89.6-51.2-119.467s-72.533-51.2-119.467-51.2zM426.667 192c0-21.333 8.533-42.667 25.6-59.733 29.867-29.867 89.6-29.867 119.467 0 17.067 17.067 25.6 38.4 25.6 59.733h-170.667zM640 277.333h110.933c-8.533 8.533-12.8 17.067-17.067 29.867-8.533 17.067-8.533 34.133-8.533 51.2v132.267c0 42.667-12.8 85.333-38.4 123.733-25.6 34.133-59.733 64-102.4 76.8-17.067 8.533-29.867 21.333-29.867 42.667v12.8c0 12.8-4.267 21.333-12.8 29.867-17.067 17.067-42.667 17.067-59.733 0-8.533-8.533-12.8-17.067-12.8-29.867v-12.8c0-17.067-12.8-34.133-29.867-38.4-85.333-34.133-140.8-115.2-140.8-204.8v-136.533c0-29.867-8.533-55.467-25.6-76.8h366.933z" />
<glyph unicode="&#xe915;" glyph-name="one-frame" d="M804.571-64h-585.143c-121.905 0-219.429 97.524-219.429 219.429v585.143c0 121.905 97.524 219.429 219.429 219.429h585.143c121.905 0 219.429-97.524 219.429-219.429v-585.143c0-121.905-97.524-219.429-219.429-219.429zM219.429 935.619c-107.276 0-195.048-87.771-195.048-195.048v-585.143c0-107.276 87.771-195.048 195.048-195.048h585.143c107.276 0 195.048 87.771 195.048 195.048v585.143c0 107.276-87.771 195.048-195.048 195.048h-585.143zM682.667 691.81h-341.333c-41.448 0-73.143-31.695-73.143-73.143v-243.81c0-41.448 31.695-73.143 73.143-73.143h341.333c41.448 0 73.143 31.695 73.143 73.143v243.81c0 41.448-31.695 73.143-73.143 73.143zM341.333 643.048h341.333c14.629 0 24.381-9.752 24.381-24.381v-243.81c0-14.629-9.752-24.381-24.381-24.381h-341.333c-14.629 0-24.381 9.752-24.381 24.381v243.81c0 14.629 9.752 24.381 24.381 24.381zM438.857 252.952c-14.629 0-24.381-9.752-24.381-24.381s9.752-24.381 24.381-24.381h146.286c14.629 0 24.381 9.752 24.381 24.381s-9.752 24.381-24.381 24.381h-146.286z" />
<glyph unicode="&#xe916;" glyph-name="profile" d="M810.667 21.333h-597.333c-25.6 0-42.667 17.067-42.667 42.667 0 89.6 34.133 174.933 98.133 243.2 68.267 64 153.6 98.133 243.2 98.133s174.933-34.133 243.2-98.133c64-64 98.133-149.333 98.133-243.2 0-25.6-17.067-42.667-42.667-42.667zM260.267 106.667h503.467c-8.533 51.2-34.133 98.133-72.533 136.533-46.933 51.2-110.933 76.8-179.2 76.8s-132.267-25.6-179.2-76.8c-38.4-38.4-64-85.333-72.533-136.533zM512 448c-55.467 0-110.933 21.333-149.333 64-42.667 38.4-64 93.867-64 149.333s21.333 110.933 64 149.333c38.4 42.667 93.867 64 149.333 64s110.933-21.333 149.333-64c42.667-38.4 64-93.867 64-149.333s-21.333-110.933-64-149.333c-38.4-42.667-93.867-64-149.333-64zM512 789.333c-34.133 0-68.267-12.8-89.6-38.4-25.6-21.333-38.4-55.467-38.4-89.6s12.8-68.267 38.4-89.6c46.933-46.933 132.267-46.933 179.2 0 25.6 21.333 38.4 55.467 38.4 89.6s-12.8 68.267-38.4 89.6c-21.333 25.6-55.467 38.4-89.6 38.4z" />
<glyph unicode="&#xe917;" d="M1024 448c0-282.77-229.23-512-512-512s-512 229.23-512 512c0 282.77 229.23 512 512 512s512-229.23 512-512z" />
<glyph unicode="&#xe918;" d="M748.017 616.58c22.415-17.241 26.609-49.386 9.364-71.799l-255.997-332.802c-8.49-11.034-21.111-18.14-34.953-19.671s-27.709 2.642-38.407 11.556l-153.6 128c-21.723 18.104-24.658 50.391-6.556 72.11 18.103 21.724 50.387 24.658 72.111 6.559l112.7-93.916 223.54 290.599c17.239 22.413 49.388 26.606 71.798 9.365z" />
<glyph unicode="&#xe919;" glyph-name="search-small" d="M409.6 755.211c-54.317 0-106.408-21.577-144.816-59.984s-59.984-90.499-59.984-144.816c0-54.317 21.577-106.409 59.984-144.815 38.408-38.41 90.499-59.986 144.816-59.986s106.409 21.576 144.814 59.986c38.41 38.405 59.986 90.498 59.986 144.815s-21.576 106.408-59.986 144.816c-38.405 38.407-90.498 59.984-144.814 59.984zM102.4 550.411c-0.006 48.348 11.399 96.015 33.289 139.124s53.645 80.442 92.684 108.964c39.038 28.522 84.258 47.428 131.981 55.178s96.601 4.128 142.659-10.574c46.056-14.702 87.999-40.067 122.406-74.033s60.308-75.573 75.607-121.438c15.293-45.865 19.548-94.692 12.411-142.511-7.132-47.819-25.452-93.279-53.468-132.683l246.63-246.63c9.329-9.656 14.49-22.589 14.372-36.014s-5.504-26.266-14.996-35.758c-9.492-9.492-22.333-14.879-35.758-14.996-13.425-0.113-26.358 5.048-36.014 14.372l-246.579 246.579c-45.957-32.681-100.027-52.076-156.279-56.069s-112.518 7.578-162.631 33.439c-50.113 25.866-92.14 65.024-121.476 113.188-29.336 48.159-44.848 103.469-44.837 159.862z" />
<glyph unicode="&#xe91a;" glyph-name="info" d="M803.84 739.84c-76.8 76.8-184.32 117.76-291.84 117.76s-215.040-40.96-291.84-117.76-117.76-184.32-117.76-291.84 40.96-215.040 117.76-291.84 184.32-117.76 291.84-117.76 215.040 40.96 291.84 117.76 117.76 184.32 117.76 291.84-40.96 215.040-117.76 291.84zM476.16 688.64c10.24 10.24 20.48 15.36 35.84 15.36s25.6-5.12 35.84-15.36c10.24-10.24 15.36-20.48 15.36-35.84s-5.12-25.6-15.36-35.84c-10.24-10.24-20.48-15.36-35.84-15.36s-25.6 5.12-35.84 15.36c-10.24 10.24-15.36 20.48-15.36 35.84s5.12 25.6 15.36 35.84zM599.040 207.36c-10.24-10.24-20.48-15.36-35.84-15.36h-51.2c-15.36 0-25.6 5.12-35.84 15.36s-15.36 20.48-15.36 35.84v153.6c-15.36 0-25.6 5.12-35.84 15.36s-15.36 20.48-15.36 35.84 5.12 25.6 15.36 35.84c10.24 10.24 20.48 15.36 35.84 15.36h51.2c15.36 0 25.6-5.12 35.84-15.36s15.36-20.48 15.36-35.84v-153.6c15.36 0 25.6-5.12 35.84-15.36s15.36-20.48 15.36-35.84-5.12-25.6-15.36-35.84z" />
<glyph unicode="&#xe91b;" d="M1024 448c0-282.77-229.23-512-512-512s-512 229.23-512 512c0 282.77 229.23 512 512 512s512-229.23 512-512z" />
<glyph unicode="&#xe91c;" d="M620.611 629.031c19.994 19.995 52.413 19.995 72.407 0 19.999-19.995 19.999-52.413 0-72.408l-289.629-289.63c-19.995-19.994-52.413-19.994-72.408 0s-19.995 52.413 0 72.407l289.63 289.631z" />
<glyph unicode="&#xe91d;" d="M693.018 339.4c19.999-19.994 19.999-52.413 0-72.407-19.994-19.994-52.413-19.994-72.407 0l-289.63 289.63c-19.995 19.995-19.995 52.413 0 72.408s52.413 19.995 72.408 0l289.629-289.631z" />
<glyph unicode="&#xe91e;" glyph-name="check-small" d="M905.361 771.633c37.359-28.734 44.348-82.311 15.607-119.665l-426.662-554.67c-14.151-18.389-35.185-30.234-58.255-32.785s-46.182 4.403-64.012 19.26l-256 213.336c-36.205 30.17-41.097 83.979-10.926 120.183s83.979 41.097 120.184 10.926l187.834-156.529 372.566 484.336c28.735 37.356 82.313 44.343 119.663 15.608z" />
<glyph unicode="&#xe91f;" glyph-name="star" d="M902.037 576.015c16.806-1.438 31.185-12.642 36.693-28.587 4.233-15.925-1.079-32.868-13.653-43.522l-176.213-170.667 42.667-242.347c3.11-16.333-3.55-32.981-17.067-42.667-7.322-5.299-16.137-8.137-25.173-8.107-6.878-0.021-13.641 1.745-19.627 5.12l-217.6 113.92-217.601-113.92c-14.619-8.265-32.728-7.185-46.262 2.756-13.534 9.946-19.977 26.906-16.458 43.324l42.667 242.347-176.213 170.667c-11.177 11.153-15.28 27.567-10.667 42.668 5.045 15.47 18.45 26.724 34.56 29.013l242.773 35.84 108.801 220.16c7.13 14.72 22.042 24.069 38.4 24.069 16.354 0 31.27-9.349 38.4-24.069l108.8-220.587 242.773-35.413zM663.893 339.213c-2.274 13.79 2.351 27.814 12.373 37.547l128 127.573-179.627 26.027c-14.033 1.954-26.185 10.747-32.427 23.468l-80.213 162.987-75.947-162.56c-6.242-12.721-18.391-21.514-32.427-23.468l-179.627-26.027 128-128c10.024-9.732 14.646-23.757 12.373-37.547l-30.72-179.2 160.427 85.333c12.638 6.255 27.469 6.255 40.107 0l160.427-85.333-30.72 179.2z" />
<glyph unicode="&#xe920;" glyph-name="search-normal" d="M469.333 832c-188.513 0-341.333-152.82-341.333-341.333s152.82-341.333 341.333-341.333c78.878 0 151.509 26.756 209.306 71.684l187.191-187.187 4.019-3.55c16.738-13.013 40.939-11.831 56.32 3.55 16.661 16.661 16.661 43.678 0 60.339l-187.187 187.191c44.928 57.796 71.684 130.428 71.684 209.306 0 188.513-152.819 341.333-341.333 341.333zM469.333 746.667c141.385 0 256-114.615 256-256s-114.615-256-256-256c-141.385 0-256 114.615-256 256s114.615 256 256 256z" />
<glyph unicode="&#xe921;" glyph-name="three-frames" d="M804.571-64h-585.143c-121.905 0-219.429 97.524-219.429 219.429v585.143c0 121.905 97.524 219.429 219.429 219.429h585.143c121.905 0 219.429-97.524 219.429-219.429v-585.143c0-121.905-97.524-219.429-219.429-219.429zM219.429 935.619c-107.276 0-195.048-87.771-195.048-195.048v-585.143c0-107.276 87.771-195.048 195.048-195.048h585.143c107.276 0 195.048 87.771 195.048 195.048v585.143c0 107.276-87.771 195.048-195.048 195.048h-585.143zM682.667 691.81h-341.333c-41.448 0-73.143-31.695-73.143-73.143v-243.81c0-41.448 31.695-73.143 73.143-73.143h341.333c41.448 0 73.143 31.695 73.143 73.143v243.81c0 41.448-31.695 73.143-73.143 73.143zM536.381 643.048h146.286c14.629 0 24.381-9.752 24.381-24.381v-97.524h-170.667v121.905zM536.381 472.381h170.667v-97.524c0-14.629-9.752-24.381-24.381-24.381h-146.286v121.905zM487.619 643.048v-121.905h-170.667v97.524c0 14.629 9.752 24.381 24.381 24.381h146.286zM316.952 374.857v97.524h170.667v-121.905h-146.286c-14.629 0-24.381 9.752-24.381 24.381zM438.857 252.952c-14.629 0-24.381-9.752-24.381-24.381s9.752-24.381 24.381-24.381h146.286c14.629 0 24.381 9.752 24.381 24.381s-9.752 24.381-24.381 24.381h-146.286z" />
<glyph unicode="&#xe922;" glyph-name="plus" d="M512 149.333c-25.6 0-42.667 17.067-42.667 42.667v213.333h-213.333c-25.6 0-42.667 17.067-42.667 42.667s17.067 42.667 42.667 42.667h213.333v213.333c0 25.6 17.067 42.667 42.667 42.667s42.667-17.067 42.667-42.667v-213.333h213.333c25.6 0 42.667-17.067 42.667-42.667s-17.067-42.667-42.667-42.667h-213.333v-213.333c0-25.6-17.067-42.667-42.667-42.667z" />
<glyph unicode="&#xe923;" glyph-name="two-frames" d="M804.571-64h-585.143c-121.905 0-219.429 97.524-219.429 219.429v585.143c0 121.905 97.524 219.429 219.429 219.429h585.143c121.905 0 219.429-97.524 219.429-219.429v-585.143c0-121.905-97.524-219.429-219.429-219.429zM219.429 935.619c-107.276 0-195.048-87.771-195.048-195.048v-585.143c0-107.276 87.771-195.048 195.048-195.048h585.143c107.276 0 195.048 87.771 195.048 195.048v585.143c0 107.276-87.771 195.048-195.048 195.048h-585.143zM341.333 691.81h341.333c41.448 0 73.143-31.695 73.143-73.143v-243.81c0-41.448-31.695-73.143-73.143-73.143h-341.333c-41.448 0-73.143 31.695-73.143 73.143v243.81c0 41.448 31.695 73.143 73.143 73.143zM682.667 643.048h-146.286v-292.571h146.286c14.629 0 24.381 9.752 24.381 24.381v243.81c0 14.629-9.752 24.381-24.381 24.381zM341.333 643.048h146.286v-292.571h-146.286c-14.629 0-24.381 9.752-24.381 24.381v243.81c0 14.629 9.752 24.381 24.381 24.381zM438.857 252.952c-14.629 0-24.381-9.752-24.381-24.381s9.752-24.381 24.381-24.381h146.286c14.629 0 24.381 9.752 24.381 24.381s-9.752 24.381-24.381 24.381h-146.286z" />
<glyph unicode="&#xe924;" glyph-name="expand" d="M804.571-64h-585.143c-121.905 0-219.429 97.524-219.429 219.429v585.143c0 121.905 97.524 219.429 219.429 219.429h585.143c121.905 0 219.429-97.524 219.429-219.429v-585.143c0-121.905-97.524-219.429-219.429-219.429zM219.429 935.619c-107.276 0-195.048-87.771-195.048-195.048v-585.143c0-107.276 87.771-195.048 195.048-195.048h585.143c107.276 0 195.048 87.771 195.048 195.048v585.143c0 107.276-87.771 195.048-195.048 195.048h-585.143zM414.476 618.667h-39.010l104.838-104.838c4.876-4.876 7.314-9.752 7.314-17.067s-2.438-12.19-7.314-17.067c-4.876-4.876-9.752-7.314-17.067-7.314s-12.19 2.438-17.067 7.314l-104.838 104.838v-39.010c0-14.629-9.752-24.381-24.381-24.381s-24.381 9.752-24.381 24.381v97.524c0 2.438 0 7.314 2.438 9.752 2.438 4.876 7.314 9.752 12.19 12.19 2.438 2.438 7.314 2.438 9.752 2.438h97.524c14.629 0 24.381-9.752 24.381-24.381s-9.752-24.381-24.381-24.381zM341.333 350.476v-39.010l104.838 104.838c9.752 9.752 24.381 9.752 34.133 0s9.752-24.381 0-34.133l-104.838-104.838h39.010c14.629 0 24.381-9.752 24.381-24.381s-9.752-24.381-24.381-24.381h-97.524c-2.438 0-7.314 0-9.752 2.438-4.876 2.438-9.752 7.314-12.19 12.19-2.438 2.438-2.438 7.314-2.438 9.752v97.524c0 14.629 9.752 24.381 24.381 24.381s24.381-9.752 24.381-24.381zM707.048 374.857c-14.629 0-24.381-9.752-24.381-24.381v-39.010l-104.838 104.838c-9.752 9.752-24.381 9.752-34.133 0s-9.752-24.381 0-34.133l104.838-104.838h-39.010c-14.629 0-24.381-9.752-24.381-24.381s9.752-24.381 24.381-24.381h97.524c2.438 0 7.314 0 9.752 2.438 4.876 2.438 9.752 7.314 12.19 12.19 2.438 2.438 2.438 7.314 2.438 9.752v97.524c0 14.629-9.752 24.381-24.381 24.381zM716.8 664.99c4.876-2.438 9.752-7.314 12.19-12.19 2.438-2.438 2.438-7.314 2.438-9.752v-97.524c0-14.629-9.752-24.381-24.381-24.381s-24.381 9.752-24.381 24.381v39.010l-104.838-104.838c-4.876-4.876-9.752-7.314-17.067-7.314s-12.19 2.438-17.067 7.314c-4.876 4.876-7.314 9.752-7.314 17.067s2.438 12.19 7.314 17.067l104.838 104.838h-39.010c-14.629 0-24.381 9.752-24.381 24.381s9.752 24.381 24.381 24.381h97.524c2.438 0 7.314 0 9.752-2.438z" />
<glyph unicode="&#xe925;" glyph-name="logout" d="M469.333 64h-170.667c-46.933 0-89.6 17.067-119.467 51.2-34.133 29.867-51.2 72.533-51.2 119.467v426.667c0 46.933 17.067 89.6 51.2 119.467 29.867 34.133 72.533 51.2 119.467 51.2h170.667c46.933 0 89.6-17.067 119.467-51.2 34.133-29.867 51.2-72.533 51.2-119.467v-42.667c0-25.6-17.067-42.667-42.667-42.667s-42.667 17.067-42.667 42.667v42.667c0 21.333-8.533 42.667-25.6 59.733s-38.4 25.6-59.733 25.6h-170.667c-21.333 0-42.667-8.533-59.733-25.6s-25.6-38.4-25.6-59.733v-426.667c0-21.333 8.533-42.667 25.6-59.733s38.4-25.6 59.733-25.6h170.667c21.333 0 42.667 8.533 59.733 25.6s25.6 38.4 25.6 59.733v42.667c0 25.6 17.067 42.667 42.667 42.667s42.667-17.067 42.667-42.667v-42.667c0-46.933-17.067-89.6-51.2-119.467s-72.533-51.2-119.467-51.2zM768 234.667c-12.8 0-21.333 4.267-29.867 12.8s-12.8 17.067-12.8 29.867 4.267 21.333 12.8 29.867l98.133 98.133h-494.933c-25.6 0-42.667 17.067-42.667 42.667s17.067 42.667 42.667 42.667h494.933l-98.133 98.133c-8.533 8.533-12.8 17.067-12.8 29.867s4.267 21.333 12.8 29.867c17.067 17.067 42.667 17.067 59.733 0l170.667-170.667c4.267-4.267 8.533-8.533 8.533-12.8s4.267-8.533 4.267-17.067v0c0 0 0 0 0 0v0c0-4.267 0-12.8-4.267-17.067 0-4.267-4.267-8.533-8.533-12.8l-170.667-170.667c-8.533-8.533-17.067-12.8-29.867-12.8z" />
<glyph unicode="&#xe926;" glyph-name="history" d="M566.858 840.017c-221.696 6.097-403.321-172.043-403.321-391.999h-77.964c-19.6 0-29.182-23.52-15.244-37.022l121.52-121.955c8.711-8.711 22.213-8.711 30.924 0l121.52 121.955c13.503 13.503 3.92 37.022-15.68 37.022h-77.964c0 169.867 138.506 307.066 309.242 304.889 162.026-2.177 298.355-138.506 300.532-300.533 2.177-170.302-135.022-309.243-304.888-309.243-70.124 0-135.020 23.956-186.416 64.462-17.422 13.503-41.813 12.196-57.493-3.484-18.293-18.293-16.987-49.217 3.484-64.897 66.204-52.266 149.393-83.19 240.424-83.19 219.955 0 398.096 181.626 391.998 403.323-5.663 204.276-176.399 375.013-380.674 380.675zM544.645 622.24c-17.857 0-32.667-14.809-32.667-32.667v-160.284c0-15.244 8.276-29.617 21.342-37.457l135.893-80.577c15.68-9.147 35.716-3.92 44.862 11.324 9.147 15.68 3.92 35.716-11.324 44.862l-125.44 74.48v148.090c0 17.422-14.809 32.231-32.667 32.231z" />
<glyph unicode="&#xe927;" glyph-name="heart-active" d="M860.173 746.652c-93.449 93.693-241.246 105.285-348.16 27.307-112.625 83.77-270.843 66.25-362.412-40.131s-85.347-265.446 14.252-364.347l264.96-265.387c46.165-45.436 120.235-45.436 166.4 0l264.96 265.387c103.706 104.337 103.706 272.832 0 377.172z" />
<glyph unicode="&#xe928;" glyph-name="heart" d="M512.013 773.959c106.914 77.978 254.711 66.386 348.16-27.307 103.706-104.339 103.706-272.835 0-377.172l-264.96-265.387c-46.165-45.436-120.235-45.436-166.4 0l-264.96 265.387c-99.599 98.901-105.821 257.965-14.252 364.347s249.786 123.902 362.412 40.131zM535.053 163.401l264.96 264.96v1.28c68.659 72.064 67.14 185.787-3.413 255.998-70.955 70.055-185.045 70.055-256 0-8.013-8.077-18.918-12.621-30.293-12.621s-22.281 4.544-30.293 12.621c-70.956 70.055-185.045 70.055-256 0-69.597-71.142-69.597-184.856 0-255.998l264.96-266.24c6.089-6.153 14.387-9.609 23.040-9.609s16.951 3.456 23.040 9.609z" />
<glyph unicode="&#xe929;" glyph-name="cup" d="M896 789.333h-128v42.667c0 23.564-19.102 42.667-42.667 42.667h-426.667c-23.564 0-42.667-19.103-42.667-42.667v-42.667h-128c-23.564 0-42.667-19.103-42.667-42.667v-128c0-94.255 76.41-170.667 170.667-170.667h65.707c38.593-43.055 90.627-71.782 147.627-81.493v-89.173h-42.667c-70.692 0-128-57.306-128-128v-85.333c0-23.565 19.103-42.667 42.667-42.667h341.333c23.565 0 42.667 19.102 42.667 42.667v85.333c0 70.694-57.306 128-128 128h-42.667v89.173c56.998 9.711 109.035 38.438 147.627 81.493h65.707c94.255 0 170.667 76.412 170.667 170.667v128c0 23.564-19.102 42.667-42.667 42.667zM256 533.333c-47.128 0-85.333 38.205-85.333 85.333v85.333h85.333v-85.333c0.094-29.086 5.144-57.944 14.933-85.333h-14.933zM640 149.333c0 23.565-19.102 42.667-42.667 42.667h-170.667c-23.564 0-42.667-19.102-42.667-42.667v-42.667h256v42.667zM682.667 618.667c0-94.255-76.412-170.667-170.667-170.667-94.257 0-170.667 76.412-170.667 170.667v170.667h341.333v-170.667zM767.932 533.333c47.13 0 85.333 38.205 85.333 85.333v85.333h-85.333v-85.333c-0.094-29.086-5.141-57.944-14.933-85.333h14.933z" />
<glyph unicode="&#xe92a;" glyph-name="close-game" d="M768 149.333c-12.8 0-21.333 4.267-29.867 12.8l-226.133 226.133-226.133-226.133c-17.067-17.067-42.667-17.067-59.733 0-8.533 8.533-12.8 17.067-12.8 29.867s4.267 21.333 12.8 29.867l226.133 226.133-226.133 226.133c-17.067 17.067-17.067 42.667 0 59.733s42.667 17.067 59.733 0l226.133-226.133 226.133 226.133c17.067 17.067 42.667 17.067 59.733 0 8.533-8.533 12.8-17.067 12.8-29.867s-4.267-21.333-12.8-29.867l-226.133-226.133 226.133-226.133c17.067-17.067 17.067-42.667 0-59.733-8.533-8.533-17.067-12.8-29.867-12.8z" />
<glyph unicode="&#xe92b;" glyph-name="close-medium" d="M716.8 192c-15.36 0-25.6 5.12-35.84 15.36l-168.96 168.96-168.96-168.96c-20.48-20.48-51.2-20.48-71.68 0-10.24 10.24-15.36 20.48-15.36 35.84s5.12 25.6 15.36 35.84l168.96 168.96-168.96 168.96c-20.48 20.48-20.48 51.2 0 71.68s51.2 20.48 71.68 0l168.96-168.96 168.96 168.96c20.48 20.48 51.2 20.48 71.68 0 10.24-10.24 15.36-20.48 15.36-35.84s-5.12-25.6-15.36-35.84l-168.96-168.96 168.96-168.96c20.48-20.48 20.48-51.2 0-71.68-10.24-10.24-20.48-15.36-35.84-15.36z" />
<glyph unicode="&#xe92c;" glyph-name="close-small" d="M512 38.4c-108.633 0-212.816 43.156-289.631 119.967-76.815 76.815-119.969 181.002-119.969 289.633 0 108.633 43.154 212.816 119.969 289.631s180.998 119.969 289.631 119.969c108.631 0 212.818-43.154 289.633-119.969 76.81-76.815 119.967-180.998 119.967-289.631 0-108.631-43.156-212.818-119.967-289.633-76.815-76.81-181.002-119.967-289.633-119.967zM445.798 586.598c-9.656 9.327-22.589 14.487-36.014 14.37s-26.266-5.501-35.759-14.994c-9.493-9.493-14.878-22.334-14.994-35.759s5.044-26.358 14.37-36.014l66.202-66.202-66.202-66.202c-4.89-4.721-8.791-10.373-11.474-16.62s-4.096-12.964-4.155-19.763c-0.059-6.799 1.236-13.542 3.811-19.835s6.376-12.006 11.183-16.814c4.808-4.808 10.524-8.607 16.817-11.182s13.034-3.871 19.832-3.814c6.798 0.061 13.517 1.475 19.763 4.157s11.896 6.584 16.62 11.474l66.202 66.202 66.202-66.202c9.656-9.329 22.589-14.49 36.014-14.372s26.266 5.504 35.758 14.996c9.492 9.492 14.879 22.333 14.996 35.758s-5.043 26.358-14.372 36.014l-66.202 66.202 66.202 66.202c9.329 9.656 14.49 22.589 14.372 36.014s-5.504 26.266-14.996 35.759c-9.492 9.493-22.333 14.878-35.758 14.994s-26.358-5.044-36.014-14.37l-66.202-66.202-66.202 66.202z" />
<glyph unicode="&#xe92d;" glyph-name="close" d="M768 128c-17.067 0-34.133 4.267-46.933 17.067l-209.067 213.333-209.067-209.067c-25.6-25.6-64-25.6-89.6 0-12.8 12.8-17.067 29.867-17.067 46.933s4.267 34.133 17.067 46.933l209.067 204.8-213.333 209.067c-25.6 25.6-25.6 64 0 89.6s64 25.6 89.6 0l213.333-209.067 209.067 209.067c25.6 25.6 64 25.6 89.6 0 12.8-12.8 17.067-29.867 17.067-46.933s-4.267-34.133-17.067-46.933l-209.067-204.8 209.067-209.067c25.6-25.6 25.6-64 0-89.6-8.533-17.067-25.6-21.333-42.667-21.333z" />
<glyph unicode="&#xe92e;" glyph-name="clock" d="M512 874.667c-235.642 0-426.667-191.025-426.667-426.667 0-235.639 191.025-426.667 426.667-426.667 235.639 0 426.667 191.027 426.667 426.667 0 113.159-44.954 221.683-124.966 301.699-80.017 80.015-188.54 124.968-301.7 124.968zM512 106.667c-188.513 0-341.333 152.819-341.333 341.333s152.82 341.333 341.333 341.333c188.514 0 341.333-152.82 341.333-341.333 0-90.526-35.964-177.348-99.972-241.361-64.013-64.009-150.835-99.972-241.361-99.972zM554.667 472.747l89.6-51.627h-0.853c16.905-9.579 25.203-29.372 20.186-48.141-5.022-18.773-22.089-31.782-41.519-31.646-7.475-0.051-14.831 1.86-21.333 5.547l-110.933 64-3.84 3.84-6.827 5.547c-1.668 2.112-3.098 4.403-4.267 6.827-1.391 2.291-2.534 4.723-3.413 7.253-1.161 2.714-1.882 5.594-2.133 8.533v218.453c0 23.564 19.102 42.667 42.667 42.667s42.667-19.103 42.667-42.667v-188.587z" />
<glyph unicode="&#xe92f;" glyph-name="chat-with-us" d="M890.88 775.68c-20.48 20.48-46.080 30.72-71.68 30.72h-614.4c-25.6 0-51.2-10.24-71.68-30.72s-30.72-46.080-30.72-71.68v-409.6c0-25.6 10.24-51.2 30.72-71.68s46.080-30.72 71.68-30.72h153.6l153.6-153.6 153.6 153.6h153.6c25.6 0 51.2 10.24 71.68 30.72s30.72 46.080 30.72 71.68v409.6c0 25.6-10.24 51.2-30.72 71.68zM496.64 360.96c-10.24-10.24-20.48-15.36-35.84-15.36h-153.6c-15.36 0-25.6 5.12-35.84 15.36s-15.36 20.48-15.36 35.84 5.12 25.6 15.36 35.84c10.24 10.24 20.48 15.36 35.84 15.36h153.6c15.36 0 25.6-5.12 35.84-15.36s15.36-20.48 15.36-35.84-5.12-25.6-15.36-35.84zM752.64 565.76c-10.24-10.24-20.48-15.36-35.84-15.36h-409.6c-15.36 0-25.6 5.12-35.84 15.36s-15.36 20.48-15.36 35.84 5.12 25.6 15.36 35.84c10.24 10.24 20.48 15.36 35.84 15.36h409.6c15.36 0 25.6-5.12 35.84-15.36s15.36-20.48 15.36-35.84-5.12-25.6-15.36-35.84z" />
<glyph unicode="&#xe930;" glyph-name="arrow" d="M640 106.667c-12.8 0-21.333 4.267-29.867 12.8l-298.667 298.667c-17.067 17.067-17.067 42.667 0 59.733l298.667 298.667c17.067 17.067 42.667 17.067 59.733 0s17.067-42.667 0-59.733l-268.8-268.8 268.8-268.8c17.067-17.067 17.067-42.667 0-59.733-8.533-8.533-17.067-12.8-29.867-12.8z" />
<glyph unicode="&#xe931;" glyph-name="bonus-active" d="M512 960c-281.6 0-512-230.4-512-512s230.4-512 512-512 512 230.4 512 512-230.4 512-512 512zM738.743 524.8l-226.743-292.571c-10.971-10.971-21.943-18.286-36.571-21.943-14.629 0-29.257 3.657-40.229 14.629l-142.629 124.343c-21.943 18.286-25.6 54.857-3.657 76.8s54.857 25.6 76.8 3.657l95.086-87.771 190.171 245.029c18.286 25.6 54.857 29.257 76.8 10.971 25.6-14.629 29.257-51.2 10.971-73.143z" />
<glyph unicode="&#xe932;" glyph-name="arrow-small-left" d="M394.588 206.981c-9.602-9.6-22.622-14.991-36.198-14.991s-26.597 5.391-36.198 14.991l-204.8 204.8c-9.598 9.6-14.991 22.62-14.991 36.198 0 13.576 5.392 26.596 14.991 36.198l204.8 204.8c9.656 9.327 22.589 14.488 36.014 14.371s26.266-5.501 35.759-14.994c9.493-9.493 14.878-22.334 14.994-35.759s-5.044-26.357-14.37-36.014l-117.402-117.402h593.204c13.578 0 26.604-5.394 36.204-14.996s14.996-22.625 14.996-36.204c0-13.578-5.396-26.604-14.996-36.204-9.6-9.605-22.625-14.996-36.204-14.996h-593.204l117.402-117.402c9.598-9.6 14.99-22.62 14.99-36.198s-5.392-26.598-14.99-36.198z" />
<glyph unicode="&#xe933;" glyph-name="arrow-left" d="M426.667 106.667c-12.8 0-21.333 4.267-29.867 12.8l-298.667 298.667c-4.267 4.267-8.533 8.533-8.533 12.8-4.267 4.267-4.267 12.8-4.267 17.067v0c0 0 0 0 0 0v0c0 4.267 0 12.8 4.267 17.067 0 4.267 4.267 8.533 8.533 12.8l298.667 298.667c17.067 17.067 42.667 17.067 59.733 0 8.533-8.533 12.8-17.067 12.8-29.867s-4.267-21.333-12.8-29.867l-226.133-226.133h665.6c25.6 0 42.667-17.067 42.667-42.667s-17.067-42.667-42.667-42.667h-665.6l226.133-226.133c8.533-8.533 12.8-21.333 12.8-29.867s-4.267-21.333-12.8-29.867-17.067-12.8-29.867-12.8z" />
<glyph unicode="&#xe934;" glyph-name="arrow-down" d="M210.739 621.212c12.001 11.998 28.277 18.739 45.248 18.739s33.246-6.74 45.248-18.739l210.752-210.752 210.753 210.752c5.901 6.113 12.966 10.988 20.774 14.342s16.205 5.12 24.704 5.194c8.499 0.074 16.922-1.546 24.787-4.764s15.014-7.97 21.024-13.979c6.010-6.010 10.758-13.155 13.978-21.021s4.838-16.292 4.762-24.79c-0.070-8.498-1.837-16.896-5.19-24.704s-8.23-14.87-14.342-20.774l-256.001-256.002c-12.002-11.994-28.278-18.739-45.248-18.739s-33.247 6.746-45.248 18.739l-256 256.002c-11.998 12.002-18.739 28.278-18.739 45.248s6.74 33.246 18.739 45.248z" />
<glyph unicode="&#xe935;" glyph-name="bonus-unactive" d="M512-64c-281.6 0-512 230.4-512 512s230.4 512 512 512 512-230.4 512-512-230.4-512-512-512zM512 923.429c-263.314 0-475.429-212.114-475.429-475.429s212.114-475.429 475.429-475.429c263.314 0 475.429 212.114 475.429 475.429s-212.114 475.429-475.429 475.429z" />
<glyph unicode="&#xe936;" glyph-name="fullscreen" horiz-adv-x="1081" d="M312.89 846.222h-90.453l244.622-244.053c10.77-10.682 16.828-25.222 16.828-40.391s-6.058-29.709-16.828-40.391c-10.682-10.77-25.222-16.828-40.391-16.828s-29.709 6.058-40.391 16.828l-244.053 244.622v-90.453c0-31.419-25.47-56.889-56.889-56.889s-56.889 25.47-56.889 56.889v227.556c0.090 7.434 1.636 14.778 4.551 21.618 5.773 13.901 16.819 24.947 30.72 30.72 6.839 2.915 14.184 4.461 21.618 4.551h227.556c31.419 0 56.889-25.47 56.889-56.889s-25.47-56.889-56.889-56.889zM142.224 220.444v-90.453l244.053 244.622c22.307 22.307 58.475 22.307 80.782 0s22.307-58.476 0-80.782l-244.622-244.053h90.453c31.419 0 56.889-25.469 56.889-56.889s-25.47-56.889-56.889-56.889h-227.556c-7.434 0.091-14.778 1.638-21.618 4.551-13.901 5.774-24.947 16.822-30.72 30.72-2.915 6.838-4.461 14.182-4.551 21.618v227.556c0 31.42 25.47 56.889 56.889 56.889s56.889-25.469 56.889-56.889zM995.557 277.333c-31.42 0-56.889-25.469-56.889-56.889v-90.453l-244.053 244.622c-22.306 22.307-58.476 22.307-80.782 0s-22.307-58.476 0-80.782l244.622-244.053h-90.453c-31.42 0-56.889-25.469-56.889-56.889s25.469-56.889 56.889-56.889h227.556c7.435 0.091 14.78 1.638 21.618 4.551 13.898 5.774 24.946 16.822 30.72 30.72 2.913 6.838 4.46 14.182 4.551 21.618v227.556c0 31.42-25.469 56.889-56.889 56.889zM1017.283 955.449c13.898-5.773 24.946-16.819 30.72-30.72 2.913-6.839 4.46-14.184 4.551-21.618v-227.556c0-31.419-25.469-56.889-56.889-56.889s-56.889 25.47-56.889 56.889v90.453l-244.053-244.622c-10.684-10.77-25.225-16.828-40.391-16.828s-29.707 6.058-40.391 16.828c-10.769 10.682-16.828 25.222-16.828 40.391s6.059 29.709 16.828 40.391l244.622 244.053h-90.453c-31.42 0-56.889 25.47-56.889 56.889s25.469 56.889 56.889 56.889h227.556c7.435-0.090 14.78-1.636 21.618-4.551z" />
<glyph unicode="&#xe937;" glyph-name="screen-4" d="M870.4 960h-716.8c-84.831 0-153.6-68.769-153.6-153.6v-512c0-84.833 68.769-153.6 153.6-153.6h716.8c84.833 0 153.6 68.767 153.6 153.6v512c0 84.831-68.767 153.6-153.6 153.6zM563.2 857.6h307.2c28.278 0 51.2-22.923 51.2-51.2v-204.8h-358.4v256zM563.2 499.2h358.4v-204.8c0-28.278-22.922-51.2-51.2-51.2h-307.2v256zM460.8 857.6v-256h-358.4v204.8c0 28.277 22.923 51.2 51.2 51.2h307.2zM102.4 294.4v204.8h358.4v-256h-307.2c-28.277 0-51.2 22.922-51.2 51.2zM358.4 38.4c-28.277 0-51.2-22.922-51.2-51.2s22.923-51.2 51.2-51.2h307.2c28.278 0 51.2 22.922 51.2 51.2s-22.922 51.2-51.2 51.2h-307.2z" />
<glyph unicode="&#xe938;" glyph-name="screen" d="M870.4 960h-716.8c-84.831 0-153.6-68.769-153.6-153.6v-512c0-84.833 68.769-153.6 153.6-153.6h716.8c84.833 0 153.6 68.767 153.6 153.6v512c0 84.831-68.767 153.6-153.6 153.6zM153.6 857.6h716.8c28.278 0 51.2-22.923 51.2-51.2v-512c0-28.278-22.922-51.2-51.2-51.2h-716.8c-28.277 0-51.2 22.922-51.2 51.2v512c0 28.277 22.923 51.2 51.2 51.2zM358.4 38.4c-28.277 0-51.2-22.922-51.2-51.2s22.923-51.2 51.2-51.2h307.2c28.278 0 51.2 22.922 51.2 51.2s-22.922 51.2-51.2 51.2h-307.2z" />
<glyph unicode="&#xe939;" glyph-name="screen-2" d="M153.6 960h716.8c84.833 0 153.6-68.769 153.6-153.6v-512c0-84.833-68.767-153.6-153.6-153.6h-716.8c-84.831 0-153.6 68.767-153.6 153.6v512c0 84.831 68.769 153.6 153.6 153.6zM870.4 857.6h-307.2v-614.4h307.2c28.278 0 51.2 22.922 51.2 51.2v512c0 28.277-22.922 51.2-51.2 51.2zM153.6 857.6c-28.277 0-51.2-22.923-51.2-51.2v-512c0-28.278 22.923-51.2 51.2-51.2h307.2v614.4h-307.2zM358.4 38.4h307.2c28.278 0 51.2-22.922 51.2-51.2s-22.922-51.2-51.2-51.2h-307.2c-28.277 0-51.2 22.922-51.2 51.2s22.923 51.2 51.2 51.2z" />
<glyph unicode="&#xe93a;" glyph-name="bonuses" d="M849.273 700.708h-99.121c9.624 19.697 14.685 41.317 14.804 63.241 0.045 29.333-8.671 58.015-25.024 82.366s-39.604 43.269-66.778 54.323c-27.173 11.055-57.022 13.752-85.736 7.742-28.71-6.011-54.97-20.458-75.425-41.49-24.27 25.24-56.752 40.984-91.597 44.406s-69.769-5.71-98.484-25.743c-28.714-20.039-49.331-49.666-58.146-83.55s-5.245-69.804 10.070-101.296h-99.12c-33.534-0.035-65.684-13.371-89.395-37.087s-37.047-55.861-37.087-89.395v-42.158c0.035-33.535 13.371-65.686 37.087-89.397s55.861-37.043 89.395-37.085h295.117v-337.276h-210.8c-11.177 0.009-21.895 4.45-29.802 12.357s-12.349 18.622-12.357 29.801v168.637c0 11.179-4.44 21.904-12.347 29.81s-18.631 12.347-29.811 12.347c-11.18 0-21.903-4.442-29.811-12.347s-12.347-18.631-12.347-29.81v-168.637c0.035-33.535 13.371-65.686 37.087-89.397s55.861-37.043 89.395-37.085h505.911c33.535 0.036 65.682 13.37 89.397 37.085 23.709 23.709 37.043 55.862 37.085 89.397v302.887c24.592 8.662 45.896 24.724 60.99 45.973 15.099 21.257 23.245 46.662 23.328 72.734v42.158c-0.036 33.534-13.37 65.684-37.085 89.395s-55.862 37.047-89.397 37.087zM617.396 827.184c16.772 0 32.857-6.662 44.718-18.524s18.522-27.944 18.522-44.716c0-16.773-6.66-32.857-18.522-44.716s-27.946-18.524-44.718-18.524h-63.241v63.241c0.019 16.767 6.688 32.842 18.54 44.694s27.928 18.526 44.695 18.541zM343.362 763.949c0 16.773 6.662 32.857 18.524 44.716s27.944 18.524 44.716 18.524c16.773 0 32.857-6.662 44.716-18.524s18.524-27.944 18.524-44.716v-63.241h-63.241c-16.767 0.020-32.842 6.689-44.694 18.541s-18.526 27.927-18.541 44.694zM174.721 489.909c-11.176 0.014-21.895 4.455-29.797 12.362s-12.35 18.622-12.361 29.797v42.158c0.013 11.176 4.455 21.895 12.361 29.797s18.621 12.349 29.797 12.361h295.117v-126.476h-295.117zM764.955 68.315h-210.8v337.276h252.958v-295.117c-0.009-11.179-4.45-21.895-12.357-29.801s-18.622-12.347-29.801-12.357zM891.432 532.072c-0.014-11.175-4.455-21.895-12.362-29.797s-18.622-12.347-29.797-12.362h-295.117v126.476h295.117c11.175-0.013 21.895-4.455 29.797-12.361s12.347-18.621 12.362-29.797v-42.158z" />
<glyph unicode="&#xe93b;" glyph-name="payments" d="M162.962 802.462h698.077c32.768-0.037 64.181-13.071 87.347-36.242 23.17-23.172 36.198-54.587 36.23-87.354v-461.75c-0.032-32.764-13.064-64.177-36.23-87.347-23.17-23.166-54.583-36.198-87.347-36.23h-698.077c-32.765 0.032-64.178 13.064-87.346 36.23-23.168 23.17-36.198 54.583-36.231 87.347v461.75c0.032 32.767 13.061 64.182 36.229 87.354s54.582 36.205 87.348 36.242zM861.038 723.692h-698.077c-11.881-0.019-23.27-4.749-31.669-13.152s-13.124-19.794-13.139-31.675v-73.327h787.692v73.327c-0.016 11.881-4.738 23.272-13.139 31.675s-19.787 13.133-31.669 13.152zM162.962 172.308h698.077c11.878 0.020 23.264 4.746 31.665 13.143 8.397 8.401 13.123 19.787 13.143 31.665v309.654h-787.692v-309.654c0.019-11.878 4.745-23.264 13.144-31.665 8.399-8.397 19.786-13.123 31.664-13.143zM236.308 448h196.923c10.445 0 20.464-4.151 27.849-11.536s11.536-17.404 11.536-27.849c0-10.445-4.151-20.464-11.536-27.849s-17.404-11.536-27.849-11.536h-196.923c-10.446 0-20.463 4.151-27.849 11.536s-11.535 17.404-11.535 27.849c0 10.445 4.15 20.464 11.535 27.849s17.404 11.536 27.849 11.536z" />
<glyph unicode="&#xe93c;" glyph-name="sports" d="M95.136 539.355l81.769 35.498-32.973 89.085c-22.42-38.134-39.084-80.059-48.797-124.582zM203.327 742.561c2.942-3.579 5.347-7.702 7.045-12.291l54.040-146.005 60.543-24.536 146.029 115.058v59.797l-123.715 89.516c-4.809 3.48-8.678 7.776-11.555 12.561-50.042-22.734-94.92-54.849-132.387-94.1zM433.033 867.373l80.614-58.331 79.919 57.837c-26.402 5.111-53.67 7.788-81.566 7.788-26.982 0-53.376-2.505-78.967-7.293zM690.833 835.493c-2.79-4.316-6.409-8.197-10.825-11.391l-123.691-89.516v-59.801l146.005-115.056 60.54 24.535 54.042 146.005c1.404 3.798 3.294 7.276 5.572 10.391-37.197 39.443-81.822 71.8-131.644 94.832zM882.069 660.495l-32.508-87.83 80.9-40.979c-9.156 46.037-25.715 89.405-48.393 128.809zM938.372 432.026l-143.996 72.934-63.309-25.655-49.707-184.649 35.52-47.979 160.209 0.013c3.622 0 7.138-0.448 10.496-1.297 30.208 55.876 48.307 119.258 50.786 186.633zM828.041 161.353l-89.993-0.009v-75.277c33.374 20.89 63.654 46.268 89.993 75.285zM655.347 46.012c-1.702 4.608-2.633 9.591-2.633 14.793v129.131l-39.411 53.239-199.32 0.013-39.409-53.235 0.012-129.143c0.001-5.594-1.074-10.931-3.028-15.821 43.98-15.326 91.237-23.654 140.44-23.654 50.291 0 98.547 8.7 143.347 24.678zM289.252 84.023l-0.007 77.333h-93.288c27.203-29.973 58.612-56.064 93.295-77.333zM136.859 244.57c4.191 1.378 8.667 2.121 13.318 2.121h160.23l35.518 47.983-49.712 184.631-64.71 26.223-124.912-54.225c-6.936-3.012-14.234-4.036-21.257-3.324 0.004-73.651 18.669-142.946 51.526-203.409zM380.415 494.788l44.767-166.268 176.921-0.009 44.762 166.276-133.218 104.976-133.232-104.976zM0 448c0 282.77 229.23 512 512 512s512-229.23 512-512c0-282.769-229.231-512-512-512s-512 229.231-512 512z" />
<glyph unicode="&#xe93d;" glyph-name="tournaments" d="M837.817 866.91h139.636c6.111 0.001 12.167-1.202 17.812-3.54 5.65-2.339 10.779-5.767 15.104-10.089 4.32-4.322 7.75-9.455 10.087-15.102 2.341-5.648 3.542-11.701 3.542-17.814v-133.568c-0.182-58.357-22.323-114.51-62.017-157.284-39.698-42.775-94.041-69.041-152.221-73.574-25.205-57.195-66.351-105.919-118.518-140.339s-113.147-53.085-175.644-53.76c-62.497-0.675-123.866 16.673-176.764 49.966-52.897 33.289-95.084 81.115-121.512 137.756-58.779 3.808-113.919 29.794-154.262 72.714-40.345 42.915-62.883 99.553-63.057 158.454v133.568c-0.001 6.112 1.202 12.166 3.54 17.814s5.767 10.779 10.089 15.102c4.322 4.323 9.455 7.752 15.102 10.089s11.701 3.541 17.814 3.54h139.636v52.613c-0.001 6.112 1.202 12.166 3.54 17.814s5.767 10.779 10.089 15.102c4.322 4.323 9.453 7.752 15.102 10.089s11.701 3.541 17.814 3.54h558.544c6.111 0.001 12.167-1.202 17.812-3.54 5.65-2.339 10.779-5.767 15.104-10.089 4.32-4.322 7.75-9.455 10.087-15.102 2.341-5.648 3.542-11.701 3.542-17.814v-46.546zM93.091 767.751v-87.023c0.098-29.227 9.385-57.683 26.544-81.343 17.159-23.658 41.322-41.327 69.072-50.501-1.611 12.856-2.455 25.796-2.526 38.754v180.114h-93.090zM347.517 423.155c43.628-43.631 102.783-68.171 164.483-68.245 61.7 0.074 120.855 24.614 164.482 68.245 43.631 43.627 68.171 102.781 68.245 164.482v279.273h-465.454v-279.273c0.072-61.7 24.615-120.855 68.244-164.482zM904.643 605.82c16.984 23.591 26.168 51.905 26.266 80.977v87.023h-93.090v-186.181c0-10.942-0.581-21.745-1.643-32.41 27.541 9.309 51.479 27.001 68.469 50.592zM558.546 29.092h139.636c12.344 0 24.185-4.906 32.912-13.633s13.633-20.568 13.633-32.912c0-12.344-4.906-24.185-13.633-32.912s-20.568-13.633-32.912-13.633h-372.363c-12.345 0-24.184 4.906-32.912 13.633s-13.632 20.568-13.632 32.912c0 12.344 4.905 24.185 13.632 32.912s20.568 13.633 32.912 13.633h139.636v116.364c0 12.344 4.906 24.185 13.633 32.912s20.568 13.633 32.912 13.633c12.344 0 24.185-4.906 32.912-13.633s13.633-20.568 13.633-32.912v-116.364z" />
<glyph unicode="&#xe93e;" glyph-name="loyalty-program" d="M820.008 192.503h-616.022c-19.042-0.026-37.545 6.332-52.553 18.053s-25.654 28.135-30.241 46.62l-119.671 436.058c-2.3 8.383-1.985 17.268 0.905 25.467s8.213 15.319 15.26 20.408c7.046 5.090 15.48 7.904 24.171 8.069s17.225-2.33 24.458-7.149l221.633-147.756 189.341 265.052c4.134 5.25 9.408 9.494 15.421 12.412s12.608 4.434 19.291 4.434c6.687 0 13.278-1.516 19.295-4.434 6.012-2.918 11.281-7.161 15.416-12.412l189.341-265.052 221.633 147.756c7.237 4.819 15.771 7.314 24.457 7.15 8.692-0.165 17.127-2.979 24.171-8.069 7.048-5.089 12.374-12.21 15.263-20.409s3.205-17.084 0.905-25.467l-119.923-437.018c-4.711-18.287-15.386-34.485-30.337-46.022s-33.319-17.763-52.209-17.69zM114.024 605.668l89.671-326.867 616.356-0.918 89.923 327.785-160.966-107.318c-9.212-6.161-20.464-8.491-31.362-6.489-10.902 1.997-20.592 8.171-27.017 17.2l-178.631 250.051-178.631-250.051c-6.424-9.029-16.116-15.199-27.016-17.2s-22.151 0.328-31.362 6.489l-160.965 107.317zM853.345 64.499c0.004 5.606-1.096 11.158-3.243 16.333-2.142 5.18-5.283 9.881-9.247 13.846s-8.67 7.105-13.846 9.251c-5.18 2.142-10.731 3.243-16.333 3.238h-597.357c-11.317 0-22.169-4.493-30.171-12.498-8.002-8.001-12.497-18.851-12.497-30.171 0-11.316 4.496-22.166 12.497-30.171 8.002-8.001 18.855-12.498 30.171-12.498h597.357c5.602 0 11.153 1.101 16.333 3.243 5.175 2.142 9.881 5.287 13.846 9.251 3.964 3.96 7.105 8.666 9.247 13.846 2.146 5.175 3.247 10.727 3.243 16.329z" />
<glyph unicode="&#xe93f;" glyph-name="shop-bag" d="M433.226 447.999c0-21.752-17.632-39.385-39.385-39.385s-39.385 17.632-39.385 39.385c0 21.752 17.633 39.385 39.385 39.385s39.385-17.632 39.385-39.385zM630.149 408.614c21.752 0 39.385 17.632 39.385 39.385s-17.632 39.385-39.385 39.385c-21.752 0-39.385-17.632-39.385-39.385s17.632-39.385 39.385-39.385zM393.849 684.308c0 65.254 52.897 118.154 118.154 118.154 37.246 0 70.447-17.188 92.168-44.218 13.627-16.955 38.416-19.656 55.371-6.031s19.657 38.415 6.034 55.371c-36.029 44.836-91.451 73.647-153.572 73.647-108.757 0-196.923-88.166-196.923-196.923h-14.713c-78.959 0-145.721-58.451-156.156-136.717l-47.262-354.462c-12.592-94.444 60.879-178.361 156.157-178.361h517.784c95.279 0 168.751 83.917 156.16 178.361l-47.262 354.462c-10.437 78.266-77.198 136.717-156.16 136.717h-329.779zM723.628 605.538c39.483 0 72.862-29.226 78.080-68.357l47.262-354.462c6.298-47.222-30.44-89.183-78.080-89.183h-517.784c-47.639 0-84.374 41.96-78.078 89.183l47.262 354.462c5.218 39.131 38.599 68.357 78.078 68.357h423.261z" />
<glyph unicode="&#xe940;" glyph-name="wallet" d="M230.133 609.066c0 22.238 18.029 40.267 40.267 40.267h161.067c22.239 0 40.267-18.029 40.267-40.267s-18.028-40.267-40.267-40.267h-161.067c-22.238 0-40.267 18.028-40.267 40.267zM69.067 649.333v-402.665c0-111.197 90.14-201.333 201.333-201.333h483.2c111.193 0 201.333 90.136 201.333 201.333v402.665c0 111.194-90.141 201.333-201.333 201.333h-483.2c-111.194 0-201.333-90.14-201.333-201.333zM874.4 367.468h-120.8c-44.478 0-80.533 36.056-80.533 80.533 0 44.473 36.056 80.533 80.533 80.533h120.8v-161.067zM874.4 609.066h-120.8c-88.954 0-161.067-72.111-161.067-161.065 0-88.958 72.113-161.067 161.067-161.067h120.8v-40.267c0-66.717-54.083-120.8-120.8-120.8h-483.2c-66.717 0-120.8 54.083-120.8 120.8v402.665c0 66.717 54.083 120.8 120.8 120.8h483.2c66.717 0 120.8-54.083 120.8-120.8v-40.267z" />
<glyph unicode="&#xe941;" glyph-name="camera" d="M1001.519 541.594c-6.929 4.687-14.903 7.605-23.222 8.497s-16.727-0.267-24.496-3.378l-188.158-75.266c-5.582 36.152-23.885 69.119-51.609 92.98-27.729 23.858-63.060 37.040-99.637 37.172h-460.798c-40.736 0-79.805-16.183-108.611-44.988s-44.988-67.873-44.988-108.609v-358.399c0-40.741 16.183-79.806 44.988-108.615 28.806-28.804 67.875-44.986 108.611-44.986h460.798c36.572 0.129 71.894 13.303 99.618 37.151 27.729 23.852 46.032 56.81 51.628 92.948l188.158-75.265c7.769-3.103 16.183-4.255 24.501-3.356 8.319 0.902 16.288 3.825 23.217 8.519s12.596 11.011 16.517 18.404c3.916 7.392 5.964 15.634 5.964 23.999v460.802c0 8.366-2.048 16.603-5.968 23.99-3.916 7.392-9.583 13.71-16.512 18.404zM614.397 38.4h-460.798c-13.579 0-26.601 5.395-36.204 14.999s-14.996 22.624-14.996 36.205v358.399c0 13.575 5.394 26.602 14.996 36.2 9.602 9.602 22.625 14.999 36.204 14.999h460.798c13.58 0 26.602-5.395 36.205-14.999 9.602-9.598 14.999-22.624 14.999-36.2v-358.399c0-13.58-5.395-26.602-14.999-36.205s-22.624-14.999-36.205-14.999zM921.598 114.023l-153.601 61.441v186.673l153.601 61.441v-309.555zM230.895 769.645c40.889 49.208 95.863 76.772 153.122 76.772s112.231-27.564 153.12-76.772c8.896-9.736 20.504-14.897 32.413-14.414s23.211 6.575 31.564 17.011c8.351 10.436 13.112 24.418 13.299 39.046 0.181 14.629-4.226 28.784-12.315 39.53-58.275 69.989-136.558 109.181-218.080 109.181-81.524 0-159.806-39.192-218.082-109.181-8.087-10.747-12.495-24.901-12.313-39.53s4.944-28.61 13.297-39.046c8.351-10.436 19.655-16.528 31.565-17.011s23.516 4.677 32.412 14.414zM272.274 752.741c-4.91-5.157-8.881-11.434-11.67-18.452s-4.34-14.63-4.557-22.373c-0.218-7.745 0.902-15.46 3.291-22.68s5.999-13.791 10.609-19.32c4.61-5.528 10.125-9.895 16.211-12.837s12.615-4.397 19.193-4.279c6.577 0.119 13.066 1.81 19.072 4.971s11.405 7.726 15.869 13.417c11.661 13.518 27.366 21.096 43.727 21.096s32.066-7.577 43.729-21.096c4.46-5.691 9.861-10.256 15.867-13.417s12.492-4.852 19.072-4.971c6.575-0.12 13.108 1.336 19.191 4.279 6.088 2.942 11.603 7.309 16.211 12.837 4.613 5.528 8.222 12.1 10.611 19.32s3.51 14.935 3.29 22.68c-0.215 7.745-1.767 15.356-4.555 22.373s-6.756 13.295-11.671 18.452c-29.864 34.395-69.975 53.654-111.745 53.654s-81.879-19.259-111.746-53.654z" />
<glyph unicode="&#xe942;" glyph-name="lucky-spin" d="M829.103 71.245c74.189 79.398 114.893 184.192 114.893 296.759 0 159.164-77.239 295.144-211.913 373.076-19.119 11.066-43.588 4.534-54.652-14.586-11.068-19.12-4.535-43.59 14.583-54.656 109.295-63.247 171.981-173.991 171.981-303.834 0-197.38-154.615-351.996-351.996-351.996-197.382 0-351.998 154.615-351.998 351.996 0 172.823 110.915 306.858 284.999 348.034l32.363-56.040c7.142-12.374 20.348-19.996 34.637-19.996 14.285 0 27.494 7.622 34.637 19.996l69.329 120.051c10.487 18.164 16.034 38.896 16.034 59.951 0 66.167-53.833 119.999-120 119.999s-120-53.832-120-119.999c0-18.040 4.082-35.836 11.846-51.989-87.963-24.822-163.037-70.638-219.288-134.321-68.398-77.44-104.553-176.229-104.553-285.686 0-112.567 40.708-217.361 114.895-296.759l-38.673-77.346c-9.878-19.759-1.87-43.789 17.888-53.666 5.744-2.871 11.846-4.233 17.858-4.233 14.672 0 28.8 8.102 35.808 22.118l29.242 58.487c72.809-52.331 161.195-80.597 254.979-80.597 93.786 0 182.17 28.267 254.98 80.593l29.239-58.483c7.010-14.020 21.133-22.118 35.81-22.118 6.007 0 12.113 1.357 17.856 4.228 19.759 9.882 27.767 33.907 17.89 53.666l-38.673 77.35zM511.999 880.001c22.059 0 40-17.943 40-40 0-7.13-1.788-13.842-5.312-19.946l-34.688-60.067-34.688 60.067c-3.524 6.104-5.312 12.816-5.312 19.946 0 22.056 17.946 40 40 40zM471.316 567.89v-153.148l-139.149 80.337c-18.005 10.398-41.032 4.228-51.426-13.777-10.397-18.010-4.228-41.033 13.779-51.43l139.147-80.333-139.147-80.337c-18.007-10.398-24.175-33.421-13.779-51.43 6.974-12.079 19.627-18.829 32.638-18.829 6.387 0 12.86 1.63 18.788 5.052l139.149 80.337v-153.148c0-20.791 16.853-37.645 37.649-37.645 20.791 0 37.645 16.853 37.645 37.645v153.148l139.149-80.337c5.931-3.426 12.403-5.052 18.79-5.052 13.009 0 25.664 6.754 32.636 18.829 10.398 18.010 4.228 41.033-13.777 51.43l-139.149 80.337 139.149 80.337c18.005 10.394 24.175 33.421 13.777 51.426s-33.421 24.175-51.426 13.781l-139.149-80.337v153.144c0 20.792-16.853 37.647-37.645 37.647-20.796 0-37.649-16.855-37.649-37.647z" />
<glyph unicode="&#xe943;" glyph-name="heart-secondary" d="M511.999-12.8c-8.903 0-22.259 4.452-31.163 8.903l-62.334 53.427c-231.511 204.797-418.502 365.077-418.502 578.782 0 133.565 111.304 280.487 280.487 280.487 115.756 0 186.99-53.425 231.513-97.948 40.070 44.522 115.756 97.948 235.964 97.948 164.731 0 276.036-146.921 276.036-280.487 0-209.253-186.99-373.985-409.599-560.974-26.716-22.259-48.975-44.523-75.686-66.782-4.456-8.903-17.812-13.355-26.716-13.355zM280.487 819.754c-115.756 0-191.443-102.4-191.443-191.443 0-169.182 173.635-320.558 391.793-507.548l31.163-26.711c13.355 13.355 31.167 26.711 44.523 40.066 209.249 182.538 378.432 325.010 378.432 494.193 0 93.496-75.686 191.443-186.99 191.443-106.853 0-164.731-57.878-200.346-102.4-8.903-8.904-22.264-17.809-35.619-17.809s-26.711 4.453-35.619 17.809c-26.711 31.165-84.589 102.4-195.893 102.4zM258.226 490.292c-13.357 0-31.165 8.909-40.069 22.264-31.165 57.878-40.069 102.399-31.165 142.469s35.618 53.425 44.522 57.878c22.261 13.357 48.974 4.453 62.331-17.809s4.453-44.521-13.356-57.878c-8.904-4.453-13.357-26.713 17.809-75.686 13.356-22.264 4.453-48.975-17.809-62.33-4.453-4.452-13.357-8.909-22.261-8.909z" />
<glyph unicode="&#xe944;" glyph-name="home" d="M849.315-64h-144.565c-53.007 0-96.376 43.369-96.376 96.376v144.565c0 53.007-43.369 96.376-96.376 96.376s-96.376-43.369-96.376-96.376v-144.565c0-53.007-43.369-96.376-96.376-96.376h-144.565c-81.92 0-144.565 62.645-144.565 144.565v438.513c0 38.55 19.276 81.92 48.189 106.014l337.318 298.766c53.007 48.189 134.927 48.189 192.753 0l337.318-298.766c28.913-28.913 48.189-67.463 48.189-106.014v-438.513c0-81.92-62.645-144.565-144.565-144.565zM511.997 369.694c106.014 0 192.753-86.739 192.753-192.753v-144.565h144.565c28.913 0 48.189 19.276 48.189 48.189v438.513c0 14.456-4.819 28.913-14.456 33.732l-337.318 298.766c-19.276 14.456-48.189 14.456-62.645 0l-337.318-298.766c-14.456-9.637-19.276-19.276-19.276-33.732v-438.513c0-28.913 19.276-48.189 48.189-48.189h144.565v144.565c0 106.014 86.739 192.753 192.753 192.753z" />
<glyph unicode="&#xe945;" glyph-name="install-app" d="M232.727 960c-128.532 0-232.727-104.196-232.727-232.727v-558.545c0-128.531 104.196-232.728 232.727-232.728h558.545c128.531 0 232.728 104.196 232.728 232.728v558.545c0 128.532-104.196 232.727-232.728 232.727h-558.545zM93.091 727.273c0 77.118 62.517 139.636 139.636 139.636h558.545c77.118 0 139.635-62.517 139.635-139.636v-558.545c0-77.124-62.516-139.635-139.635-139.635h-558.545c-77.118 0-139.636 62.511-139.636 139.635v558.545zM558.545 634.183c0 25.706-20.835 46.546-46.547 46.546-25.706 0-46.541-20.84-46.541-46.546v-259.995l-106.725 106.728c-18.178 18.173-47.649 18.173-65.826 0-18.176-18.178-18.176-47.651 0-65.828l186.181-186.181c18.178-18.173 47.651-18.173 65.824 0l186.186 186.181c18.173 18.178 18.173 47.651 0 65.828-18.178 18.173-47.651 18.173-65.828 0l-106.723-106.728v259.995z" />
<glyph unicode="&#xe946;" glyph-name="mystery" d="M93.090 448.003c0 230.242 187.553 416.892 418.909 416.892 231.358 0 418.908-186.651 418.908-416.892 0-230.249-187.549-416.896-418.908-416.896-231.357 0-418.909 186.646-418.909 416.896zM511.999 957.539c-282.769 0-511.999-228.128-511.999-509.537s229.23-509.541 511.999-509.541c282.775 0 512.001 228.132 512.001 509.541 0 281.407-229.226 509.537-512.001 509.537zM558.542 679.61c0 25.582-20.835 46.321-46.543 46.321s-46.549-20.739-46.549-46.321c0-42.837-21.984-89.551-59.091-126.477-37.102-36.922-84.042-58.812-127.086-58.812-25.707 0-46.546-20.735-46.546-46.317 0-25.588 20.839-46.323 46.546-46.323 43.044 0 89.984-21.889 127.086-58.813 37.107-36.924 59.091-83.639 59.091-126.474 0-25.582 20.84-46.323 46.549-46.323s46.543 20.74 46.543 46.323c0 42.835 21.995 89.55 59.094 126.474 37.105 36.924 84.049 58.813 127.091 58.813 25.703 0 46.543 20.735 46.543 46.323 0 25.582-20.84 46.317-46.543 46.317-43.041 0-89.986 21.889-127.091 58.812-37.099 36.926-59.094 83.64-59.094 126.477zM472.184 487.627c14.648 14.572 28.101 30.782 39.815 48.245 11.707-17.463 25.166-33.672 39.815-48.245 14.648-14.578 30.937-27.971 48.486-39.624-17.549-11.657-33.837-25.051-48.486-39.624-14.648-14.578-28.107-30.787-39.815-48.25-11.712 17.463-25.166 33.672-39.815 48.25-14.648 14.572-30.937 27.966-48.486 39.624 17.549 11.652 33.837 25.046 48.486 39.624z" />
<glyph unicode="&#xe947;" glyph-name="live-games" d="M687.834 692.802c-11.236 1.37-22.552-1.778-31.463-8.752s-14.689-17.202-16.057-28.435c-1.373-11.233 1.775-22.551 8.75-31.462s17.204-14.688 28.436-16.058c196.874-24 261.165-79.791 261.165-96.313 0-31.896-145.166-106.665-426.664-106.665-281.501 0-426.668 74.77-426.668 106.665 0 16.521 64.292 72.313 261.166 96.313 11.233 1.37 21.462 7.147 28.436 16.058s10.123 20.229 8.752 31.462c-1.37 11.233-7.147 21.462-16.058 28.435s-20.229 10.123-31.462 8.752c-210.501-25.666-336.167-93.354-336.167-181.021v-314.665c0-138.921 321.835-176.001 512.001-176.001 190.163 0 511.999 37.079 511.999 176.001v314.665c0 87.667-125.665 155.354-336.165 181.021zM85.331 197.116v202.513c27.291-14.68 55.993-26.573 85.671-35.499-0.023-0.592-0.338-1.087-0.338-1.682v-212.058c-51.735 16.46-81.602 34.177-85.333 46.726zM511.999 106.446c-85.863-0.592-171.581 6.993-256.002 22.654v213.93c84.409-15.808 170.126-23.592 256.002-23.249 160.562 0 328.64 25.672 426.696 79.868l0.051-201.742c-9.083-31.043-167.958-91.46-426.747-91.46zM426.664 789.114c-0.074 14.998 3.799 29.751 11.242 42.772s18.179 23.853 31.14 31.402c12.961 7.549 27.678 11.549 42.677 11.597s29.744-3.857 42.751-11.322c13.007-7.465 23.818-18.227 31.343-31.201s11.495-27.702 11.514-42.7c0.018-14.998-3.915-29.735-11.403-42.729-7.492-12.994-18.276-23.784-31.26-31.282v-182.539c0-11.317-4.497-22.168-12.498-30.17s-18.854-12.497-30.17-12.497-22.168 4.497-30.17 12.497c-8.002 8.002-12.498 18.853-12.498 30.17v182.539c-12.929 7.431-23.675 18.129-31.163 31.022s-11.454 27.529-11.505 42.439z" />
<glyph unicode="&#xe948;" glyph-name="tabbar-menu-active" d="M130.046 959.99h173.054c72.189 0 130.047-58.88 130.047-131.122v-174.54c0-72.702-57.858-131.069-130.047-131.069h-173.054c-71.679 0-130.047 58.368-130.047 131.069v174.54c0 72.243 58.368 131.122 130.047 131.122zM130.046 372.746h173.054c72.189 0 130.047-58.419 130.047-131.122v-174.54c0-72.192-57.858-131.074-130.047-131.074h-173.054c-71.679 0-130.047 58.882-130.047 131.074v174.54c0 72.702 58.368 131.122 130.047 131.122zM893.95 959.99h-173.057c-72.192 0-130.044-58.88-130.044-131.122v-174.54c0-72.702 57.853-131.069 130.044-131.069h173.057c71.682 0 130.049 58.368 130.049 131.069v174.54c0 72.243-58.368 131.122-130.049 131.122zM720.893 372.746h173.057c71.682 0 130.049-58.419 130.049-131.122v-174.54c0-72.192-58.368-131.074-130.049-131.074h-173.057c-72.192 0-130.044 58.882-130.044 131.074v174.54c0 72.702 57.853 131.122 130.044 131.122zM130.046 959.99h173.054c72.189 0 130.047-58.88 130.047-131.122v-174.54c0-72.702-57.858-131.069-130.047-131.069h-173.054c-71.679 0-130.047 58.368-130.047 131.069v174.54c0 72.243 58.368 131.122 130.047 131.122zM130.046 372.746h173.054c72.189 0 130.047-58.419 130.047-131.122v-174.54c0-72.192-57.858-131.074-130.047-131.074h-173.054c-71.679 0-130.047 58.882-130.047 131.074v174.54c0 72.702 58.368 131.122 130.047 131.122zM893.95 959.99h-173.057c-72.192 0-130.044-58.88-130.044-131.122v-174.54c0-72.702 57.853-131.069 130.044-131.069h173.057c71.682 0 130.049 58.368 130.049 131.069v174.54c0 72.243-58.368 131.122-130.049 131.122zM720.893 372.746h173.057c71.682 0 130.049-58.419 130.049-131.122v-174.54c0-72.192-58.368-131.074-130.049-131.074h-173.057c-72.192 0-130.044 58.882-130.044 131.074v174.54c0 72.702 57.853 131.122 130.044 131.122z" />
<glyph unicode="&#xe949;" glyph-name="tabbar-menu" d="M890.781 888.224c32.376 0 59.707-26.664 59.707-60.86v-176.865c0-34.158-27.351-60.86-59.707-60.86h-175.461c-32.433 0-59.769 26.72-59.769 60.86v176.865c0 34.175 27.318 60.86 59.769 60.86h175.461zM890.781 959.999h-175.461c-72.651 0-131.544-59.38-131.544-132.634v-176.865c0-73.199 58.894-132.634 131.544-132.634h175.461c72.593 0 131.482 59.436 131.482 132.634v176.865c0 73.254-58.889 132.634-131.482 132.634zM308.684 888.224c32.451 0 59.767-26.685 59.767-60.86v-176.865c0-34.139-27.335-60.86-59.767-60.86h-175.407c-32.432 0-59.767 26.72-59.767 60.86v176.865c0 34.175 27.316 60.86 59.767 60.86h175.407zM308.684 959.999h-175.407c-72.65 0-131.54-59.38-131.54-132.634v-176.865c0-73.199 58.891-132.634 131.54-132.634h175.407c72.651 0 131.54 59.436 131.54 132.634v176.865c0 73.254-58.889 132.634-131.54 132.634zM308.684 306.358c32.432 0 59.767-26.662 59.767-60.914v-176.81c0-34.174-27.316-60.86-59.767-60.86h-175.407c-32.451 0-59.767 26.686-59.767 60.86v176.81c0 34.252 27.334 60.914 59.767 60.914h175.407zM308.684 378.134h-175.407c-72.65 0-131.54-59.377-131.54-132.689v-176.81c0-73.254 58.891-132.635 131.54-132.635h175.407c72.651 0 131.54 59.381 131.54 132.635v176.81c0 73.311-58.889 132.689-131.54 132.689zM890.781 306.358c32.356 0 59.707-26.642 59.707-60.914v-176.81c0-34.193-27.331-60.86-59.707-60.86h-175.461c-32.452 0-59.769 26.686-59.769 60.86v176.81c0 34.252 27.336 60.914 59.769 60.914h175.461zM890.781 378.134h-175.461c-72.651 0-131.544-59.377-131.544-132.689v-176.81c0-73.254 58.894-132.635 131.544-132.635h175.461c72.593 0 131.482 59.381 131.482 132.635v176.81c0 73.311-58.889 132.689-131.482 132.689z" />
<glyph unicode="&#xe94a;" glyph-name="apple" d="M508.297 746.459c2.539-0.524 5.077-0.77 7.573-0.77 17.566 0 33.297 12.334 36.941 30.217 4.988 24.516 13.973 44.488 26.692 59.367 22.276 26.036 57.22 38.344 83.883 44.14-0.759-12.751-2.662-27.54-6.763-42.389-5.547-20.093 6.238-40.879 26.334-46.43 3.362-0.931 6.741-1.369 10.069-1.369 16.55 0 31.735 10.975 36.356 27.701 15.356 55.608 8.354 108.273 8.055 110.482-2.611 18.945-19.004 33.015-38.093 32.582-4.672-0.091-115.025-2.984-177.195-75.656 0 0-0.009-0.005-0.013-0.010-21.141-24.732-35.712-56.137-43.29-93.353-4.156-20.425 9.028-40.357 29.449-44.513zM890.202 264.026c-57.63 18.419-96.35 71.479-96.35 132.023 0 53.338 31.198 102.541 79.484 125.355 9.843 4.655 17.199 13.33 20.177 23.806 2.978 10.472 1.284 21.723-4.642 30.861-50.462 77.754-135.147 124.179-226.534 124.179-42.769 0-91.038-16.374-138.078-46.511-47.049 30.141-95.313 46.511-138.078 46.511-138.484 0-278.68-108.982-278.68-317.283 0-197.030 131.214-446.993 278.68-446.993 42.761 0 91.029 16.371 138.078 46.515 47.044-30.144 95.309-46.515 138.078-46.515 114.219 0 210.935 145.677 252.459 281.037 6.063 19.759-4.902 40.721-24.593 47.014zM662.34 11.46c-33.045 0-75.179 17.199-115.588 47.185-6.677 4.954-14.583 7.437-22.49 7.437s-15.812-2.475-22.49-7.433c-40.418-29.99-82.548-47.189-115.587-47.189-83.938 0-203.201 192.141-203.201 371.516 0 166.134 105.334 241.8 203.201 241.8 33.045 0 75.174-17.199 115.587-47.185 13.346-9.903 31.616-9.908 44.979 0.005 40.405 29.981 82.539 47.18 115.588 47.18 52.86 0 102.682-21.718 139.14-59.473-51.554-40.080-83.106-102.57-83.106-169.249 0-80.448 44.271-152.346 113.331-188.975-41.459-110.421-113.741-195.618-169.365-195.618z" />
<glyph unicode="&#xe94b;" glyph-name="lucky-cashback" d="M418.899 448c0-25.707-20.839-46.545-46.545-46.545s-46.545 20.838-46.545 46.545c0 25.707 20.839 46.545 46.545 46.545s46.545-20.838 46.545-46.545zM651.627 401.455c25.707 0 46.545 20.838 46.545 46.545s-20.838 46.545-46.545 46.545c-25.707 0-46.545-20.838-46.545-46.545s20.838-46.545 46.545-46.545zM372.364 727.273c0 77.119 62.518 139.636 139.636 139.636 44.018 0 83.256-20.313 108.926-52.257 16.105-20.039 45.4-23.23 65.438-7.128s23.231 45.4 7.131 65.438c-42.58 52.988-108.079 87.038-181.495 87.038-128.532 0-232.727-104.196-232.727-232.727h-17.388c-93.315 0-172.215-69.079-184.549-161.575l-55.854-418.907c-14.882-111.616 71.948-210.79 184.549-210.79h611.926c112.603 0 199.433 99.174 184.553 210.79l-55.855 418.907c-12.335 92.496-91.234 161.575-184.553 161.575h-389.739zM762.103 634.182c46.662 0 86.109-34.54 92.276-80.788l55.855-418.91c7.443-55.803-35.975-105.393-92.276-105.393h-611.926c-56.3 0-99.715 49.59-92.275 105.393l55.855 418.91c6.166 46.248 45.617 80.788 92.274 80.788h500.217z" />
<glyph unicode="&#xe94c;" glyph-name="halloween-lottery" d="M226.657 343.485c14.128-25.478 41.646-41.307 71.821-41.307h103.918c30.173 0 57.691 15.829 71.818 41.307s12.375 56.123-4.573 79.982l-51.96 73.141c-15.143 21.319-40.281 34.044-67.247 34.044s-52.105-12.725-67.248-34.044l-51.956-73.141c-16.945-23.851-18.699-54.5-4.573-79.982zM350.438 448.835l47.35-66.655h-94.7l47.349 66.655zM797.342 343.485c14.127 25.482 12.371 56.127-4.573 79.982l-51.96 73.141c-15.143 21.319-40.283 34.044-67.249 34.044-26.963 0-52.102-12.725-67.245-34.044l-51.96-73.141c-16.947-23.859-18.7-54.504-4.573-79.982s41.645-41.307 71.818-41.307h103.916c30.18 0 57.698 15.829 71.826 41.307zM626.211 382.18l47.348 66.655 47.352-66.655h-94.7zM331.256 168.936c-16.348 15.624-16.346 40.948 0.002 56.568s42.852 15.624 59.198 0c32.467-31.023 75.629-48.112 121.544-48.112s89.080 17.089 121.545 48.112c16.349 15.62 42.85 15.624 59.195 0 16.349-15.62 16.352-40.948 0.004-56.568-48.278-46.131-112.467-71.542-180.744-71.542s-132.467 25.407-180.744 71.542zM1024 326.254c0-63.649-16.408-126.834-47.451-182.721-10.843-19.515-36.175-26.939-56.6-16.581-20.421 10.358-28.192 34.572-17.353 54.083 24.651 44.383 37.683 94.598 37.683 145.215 0 155.813-121.084 285.165-278.244 307.008-1.946 0.226-4.454 0.538-7.432 0.95-13.021 1.516-26.273 2.298-39.712 2.298h-207.21c-178.634 0-323.963-139.177-323.963-310.252s145.651-310.256 324.68-310.256h207.202c54.965 0 109.253 13.355 157.003 38.617 20.216 10.697 45.698 3.706 56.899-15.62 11.197-19.33 3.879-43.67-16.349-54.37-60.128-31.811-128.441-48.624-197.553-48.624h-207.202c-225.194 0-408.399 175.065-408.399 390.25 0 215.19 182.887 390.255 407.682 390.255h62.46v203.494c0 22.092 18.739 40 41.858 40 19.464 0 35.824-12.694 40.511-29.892 56.218 28.228 127.642 16.544 170.291-31.496 32.729-36.87 37.337-89.52 11.469-131.016-11.827-18.984-37.522-25.204-57.383-13.896-19.862 11.304-26.372 35.856-14.541 54.834 7.558 12.126 6.195 27.53-3.391 38.328-19.468 21.928-54.095 24.708-77.19 6.206-32.768-26.25-36.868-70.1-9.752-104.266 13.769-17.346 56.871-29.854 88.907-34.72 4.399-0.722 18.034-2.296 18.034-2.296 85.024-12.658 163.387-50.462 225.319-109.564 77.206-73.676 119.725-171.681 119.725-275.968z" />
<glyph unicode="&#xe94d;" glyph-name="winter-holidays-lottery" horiz-adv-x="846" d="M400.696 960c-24.589 0-44.522-19.933-44.522-44.522v-512c0-24.589 19.933-44.522 44.522-44.522s44.522 19.932 44.522 44.522v111.304h356.174c16.42 0 31.508 9.037 39.255 23.514s6.896 32.042-2.208 45.704l-72.579 108.869 72.579 108.869c9.105 13.662 9.955 31.228 2.208 45.704s-22.835 23.514-39.255 23.514h-356.174v44.522c0 24.589-19.933 44.522-44.522 44.522zM445.217 603.826v178.087h272.985l-42.901-64.347c-9.968-14.955-9.968-34.438 0-49.392l42.901-64.347h-272.985zM400.696 292.174c-160.791 0-261.879-75.122-321.516-150.452-29.429-37.171-48.674-74.169-60.594-101.852-5.982-13.895-10.185-25.6-12.941-34.019-1.38-4.212-2.402-7.618-3.106-10.080-0.353-1.233-0.626-2.231-0.826-2.979l-0.245-0.931-0.082-0.321-0.031-0.125-0.013-0.049c0 0-0.012-0.049 43.181-10.845l-43.192 10.797c-3.325-13.299-0.337-27.39 8.1-38.195s21.382-17.123 35.092-17.123h712.347c13.708 0 26.655 6.318 35.092 17.123s11.424 24.897 8.103 38.195l-43.195-10.797c43.195 10.797 43.182 10.845 43.182 10.845l-0.013 0.049-0.111 0.445-0.249 0.931c-0.196 0.748-0.472 1.745-0.824 2.979-0.703 2.462-1.727 5.868-3.108 10.080-2.756 8.419-6.959 20.124-12.938 34.019-11.923 27.684-31.165 64.681-60.594 101.852-59.637 75.331-160.728 150.452-321.518 150.452zM652.399 86.452c16.874-21.317 29.656-42.728 39.090-61.409h-581.586c9.434 18.681 22.214 40.092 39.091 61.409 46.102 58.234 123.101 116.678 251.702 116.678s205.601-58.444 251.703-116.678z" />
<glyph unicode="&#xe94e;" glyph-name="bonus-store" d="M604.872 448c0-25.707 20.838-46.545 46.545-46.545s46.545 20.838 46.545 46.545c0 25.707-20.838 46.545-46.545 46.545s-46.545-20.838-46.545-46.545zM372.146 401.455c-25.707 0-46.545 20.838-46.545 46.545s20.839 46.545 46.545 46.545c25.706 0 46.545-20.838 46.545-46.545s-20.839-46.545-46.545-46.545zM651.408 727.273c0 77.119-62.515 139.636-139.636 139.636-44.018 0-83.257-20.313-108.926-52.257-16.102-20.039-45.4-23.23-65.438-7.128s-23.229 45.4-7.128 65.438c42.579 52.988 108.076 87.038 181.492 87.038 128.531 0 232.727-104.196 232.727-232.727h17.389c93.314 0 172.214-69.079 184.548-161.575l55.855-418.907c14.881-111.616-71.95-210.79-184.548-210.79h-611.93c-112.601 0-199.43 99.174-184.549 210.79l55.855 418.907c12.333 92.496 91.234 161.575 184.549 161.575h389.74zM261.668 634.182c-46.657 0-86.108-34.54-92.275-80.788l-55.854-418.91c-7.441-55.803 35.974-105.393 92.274-105.393h611.93c56.301 0 99.714 49.59 92.272 105.393l-55.855 418.91c-6.167 46.248-45.615 80.788-92.272 80.788h-500.221z" />
<glyph unicode="&#xe94f;" glyph-name="group-tournaments" d="M787.692 802.462h118.154c5.171 0.001 10.295-1.017 15.072-2.995 4.781-1.979 9.121-4.88 12.78-8.537 3.655-3.657 6.558-8 8.535-12.779 1.981-4.779 2.997-9.901 2.997-15.073v-113.019c-0.154-49.379-18.889-96.893-52.476-133.087-33.591-36.194-79.573-58.419-128.803-62.255-21.327-48.396-56.143-89.624-100.285-118.749s-95.74-44.918-148.622-45.489c-52.882-0.571-104.81 14.108-149.57 42.279-44.759 28.168-80.456 68.636-102.818 116.563-49.736 3.222-96.393 25.21-130.53 61.527-34.138 36.313-53.209 84.237-53.356 134.077v113.019c-0.001 5.172 1.017 10.294 2.995 15.073s4.88 9.121 8.537 12.779c3.657 3.658 8 6.559 12.779 8.537s9.901 2.996 15.073 2.995h118.154v44.519c-0.001 5.172 1.017 10.294 2.995 15.073s4.88 9.121 8.537 12.779c3.657 3.658 7.999 6.559 12.779 8.537s9.901 2.996 15.073 2.995h472.615c5.171 0.001 10.295-1.017 15.072-2.995 4.781-1.979 9.121-4.88 12.78-8.537 3.655-3.657 6.558-8 8.535-12.779 1.981-4.779 2.997-9.901 2.997-15.073v-39.385zM157.538 718.558v-73.635c0.083-24.731 7.941-48.809 22.46-68.829 14.519-20.018 34.965-34.969 58.446-42.732-1.363 10.878-2.077 21.827-2.137 32.792v152.404h-78.769zM372.822 426.976c36.916-36.919 86.97-57.683 139.178-57.746 52.208 0.063 102.262 20.827 139.177 57.746 36.919 36.915 57.683 86.969 57.746 139.177v236.308h-393.846v-236.308c0.061-52.208 20.828-102.262 57.745-139.177zM844.237 581.539c14.371 19.962 22.142 43.92 22.225 68.519v73.635h-78.769v-157.538c0-9.259-0.492-18.4-1.39-27.424 23.304 7.877 43.559 22.847 57.935 42.809zM551.385 93.538h118.154c10.445 0 20.464-4.151 27.849-11.536s11.536-17.404 11.536-27.849c0-10.445-4.151-20.464-11.536-27.849s-17.404-11.536-27.849-11.536h-315.077c-10.446 0-20.463 4.151-27.849 11.536s-11.535 17.404-11.535 27.849c0 10.445 4.15 20.464 11.535 27.849s17.404 11.536 27.849 11.536h118.154v98.462c0 10.445 4.151 20.464 11.536 27.849s17.404 11.536 27.849 11.536c10.445 0 20.464-4.151 27.849-11.536s11.536-17.404 11.536-27.849v-98.462z" />
<glyph unicode="&#xe950;" glyph-name="football-games" d="M284.49 321.757l-46.473-46.47c-15.573-15.573-40.821-15.573-56.394 0s-15.573 40.822 0 56.395l46.472 46.47-62.112 62.117-46.466-46.466c-15.573-15.577-40.821-15.577-56.394 0-15.573 15.573-15.573 40.818 0 56.391l46.465 46.466-28.72 28.723c-51.574 51.572-48.326 136.136 7.051 183.602l228.702 196.030c15.821 13.561 39.415 12.654 54.149-2.080 26.288-26.288 42.853-50.52 51.549-74.702 8.98-24.973 8.263-46.313 6.018-63.542-0.945-7.239-1.871-12.666-2.635-17.135-1.248-7.289-1.985-11.666-1.922-17.728 0.067-6.122 1.252-13.561 8.862-24.971 2.576-3.866 8.137-8.624 20.677-12.289 12.67-3.704 29.231-5.28 48.514-4.923 32.784 0.607 66.418 6.478 91.518 10.871 4.6 0.805 8.928 1.562 12.887 2.222 18.393 3.065 36.45-7.022 43.488-24.289l138.256-339.361c8.070-19.81 23.072-36.005 42.201-45.572l34.887-17.443c70.302-35.151 114.712-107.008 114.712-185.612 0-59.057-47.876-106.933-106.933-106.933h-743.61c-22.023 0-39.877 17.853-39.877 39.877s17.853 39.877 39.877 39.877h415.969c-2.418 2.257-4.797 4.561-7.144 6.908l-111.332 111.328-46.462-46.458c-15.573-15.573-40.822-15.573-56.394 0s-15.573 40.822 0 56.395l46.459 46.458-85.842 85.843zM381.472 235.914v0zM656.223 469.992v0 0zM605.68 594.065v0zM625.81 523.768l-52.066-26.029c-19.7-9.85-43.65-1.867-53.5 17.833-9.85 19.696-1.867 43.65 17.833 53.498l57.549 28.776-7.66 18.812c-23.757-3.916-54.433-8.193-84.657-8.752-23.383-0.433-48.896 1.25-72.373 8.114-23.584 6.895-48.258 20.005-64.655 44.6-16.096 24.144-22.020 46.632-22.251 68.362-0.143 13.411 2.327 28.253 3.959 38.057l0.028 0.164 0.118 0.709c0.49 2.937 0.882 5.291 1.117 7.096 1.308 10.029 1.185 17.43-1.982 26.236-1.64 4.559-4.379 10.244-9.072 17.225l-76.943-65.951c21.214-32.263 39.867-76.379 50.41-126.452 12.932-61.42 14.273-134.561-8.71-209.982l291.502-291.497c40.456-40.46 95.303-63.22 152.513-63.303h125.877c15.013 0 27.179 12.17 27.179 27.179 0 48.396-27.341 92.637-70.624 114.278l-34.887 17.443c-36.447 18.223-65.020 49.077-80.392 86.816l-37.77 92.707-38.609-19.302c-19.7-9.85-43.65-1.867-53.5 17.833s-1.867 43.65 17.833 53.5l44.095 22.048-20.362 49.983zM241.699 466.204v0.004c0 0 0-0.004 0-0.004zM236.698 482.339c7.47 45.442 4.989 88.987-3.077 127.294-7.866 37.358-20.728 68.344-33.623 90.379l-60.177-51.581c-20.104-17.232-21.283-47.933-2.56-66.656l99.437-99.436z" />
<glyph unicode="&#xe951;" glyph-name="flag" d="M679.552 597.333l156.971 215.854c7.083 9.728 8.107 22.614 2.645 33.323s-16.469 17.489-28.501 17.489h-469.333c-103.168 0-160-56.832-160-160v-638.208c0-17.664 14.336-32 32-32s32 14.336 32 32v264.875h565.333c12.032 0 23.083 6.737 28.501 17.489s4.437 23.595-2.645 33.323l-156.971 215.855zM245.333 394.667v309.333c0 67.285 28.715 96 96 96h406.485l-133.717-183.854c-8.149-11.221-8.149-26.404 0-37.625l133.717-183.854h-502.485z" />
<glyph unicode="&#xe952;" glyph-name="lottery" d="M988.152 289.245v5.155c-0.165 17.759-6.227 34.958-17.231 48.9-11.004 13.938-26.325 23.832-43.555 28.121-16.778 4.592-31.583 14.572-42.134 28.4-10.555 13.832-16.27 30.744-16.27 48.14s5.715 34.312 16.27 48.14c10.551 13.828 25.356 23.808 42.134 28.404 17.231 4.289 32.551 14.178 43.555 28.121 11.004 13.939 17.065 31.138 17.231 48.896v5.158c-0.063 52.599-20.984 103.025-58.179 140.219-37.191 37.193-87.619 58.116-140.217 58.179h-634.871c-31.571 0-61.849-12.542-84.173-34.866s-34.865-52.602-34.865-84.173v-84.517c0.169-17.758 6.23-34.957 17.233-48.896 11.002-13.942 26.323-23.832 43.556-28.121 16.778-4.596 31.582-14.576 42.134-28.404s16.268-30.744 16.268-48.14c0-17.396-5.716-34.308-16.268-48.14-10.552-13.828-25.356-23.808-42.134-28.4-17.233-4.289-32.554-14.182-43.556-28.121-11.003-13.942-17.064-31.141-17.233-48.896v-84.519c0-31.571 12.541-61.85 34.865-84.173s52.602-34.867 84.173-34.867h634.871c52.598 0.063 103.026 20.988 140.217 58.179 37.195 37.195 58.116 87.623 58.179 140.221v0zM115.205 209.885l2.5 85.031c33.671 9.322 63.327 29.491 84.368 57.383 21.041 27.888 32.291 61.944 32.006 96.878-0.285 34.938-12.089 68.805-33.581 96.347-21.493 27.544-51.473 47.228-85.292 55.997v84.517c0 10.524 4.18 20.616 11.622 28.058s17.534 11.622 28.058 11.622h158.718v-79.359c0-10.524 4.181-20.616 11.622-28.058s17.534-11.622 28.058-11.622c10.524 0 20.616 4.181 28.058 11.622s11.622 17.534 11.622 28.058v79.359h396.794c31.571 0 61.85-12.541 84.173-34.866s34.867-52.602 34.867-84.173l-2.501-5.674c-33.465-9.294-62.972-29.283-84.015-56.919-21.043-27.632-32.465-61.393-32.524-96.126 0.299-35.202 12.091-69.341 33.579-97.225s51.495-47.986 85.461-57.246v-4.246c0-31.571-12.544-61.85-34.867-84.173s-52.602-34.867-84.173-34.867h-396.794v79.36c0 10.524-4.181 20.614-11.622 28.058-7.441 7.44-17.534 11.622-28.058 11.622s-20.616-4.183-28.058-11.622c-7.441-7.444-11.622-17.534-11.622-28.058v-79.36h-158.718c-10.524 0-20.616 4.183-28.058 11.622s-11.622 17.534-11.622 28.058zM392.923 408.348v79.356c0 10.524-4.18 20.618-11.622 28.058-7.441 7.444-17.534 11.622-28.058 11.622s-20.616-4.179-28.058-11.622c-7.441-7.44-11.622-17.534-11.622-28.058v-79.356c0-10.524 4.18-20.618 11.622-28.058 7.442-7.444 17.534-11.622 28.058-11.622s20.616 4.179 28.058 11.622c7.442 7.44 11.622 17.534 11.622 28.058z" />
<glyph unicode="&#xe953;" glyph-name="caret" horiz-adv-x="1067" d="M418.267 246.902c-7.996 8-12.489 18.85-12.489 30.165s4.493 22.165 12.489 30.165l140.501 140.501-140.501 140.501c-4.075 3.936-7.322 8.644-9.562 13.849-2.236 5.206-3.413 10.804-3.46 16.47-0.051 5.665 1.028 11.284 3.174 16.527s5.316 10.007 9.318 14.013c4.006 4.006 8.772 7.174 14.016 9.32s10.863 3.225 16.525 3.176c5.666-0.049 11.264-1.226 16.469-3.462 5.21-2.236 9.916-5.487 13.85-9.562l170.667-170.666c8-8 12.493-18.85 12.493-30.165s-4.493-22.165-12.493-30.165l-170.667-170.667c-8-8-18.85-12.493-30.165-12.493-11.311 0-22.161 4.493-30.165 12.493z" />
<glyph unicode="&#xe954;" glyph-name="mystery-drops" d="M157.538 448.002c0 195.762 158.698 354.46 354.46 354.46 195.767 0 354.462-158.698 354.462-354.46 0-195.767-158.694-354.462-354.462-354.462-195.762 0-354.46 158.694-354.46 354.462zM511.998 881.231c-239.265 0-433.229-193.964-433.229-433.229 0-239.27 193.964-433.233 433.229-433.233 239.27 0 433.233 193.963 433.233 433.233 0 239.265-193.963 433.229-433.233 433.229zM551.384 644.924c0 21.751-17.634 39.384-39.386 39.384s-39.381-17.633-39.381-39.384c0-36.422-18.607-76.14-50.004-107.536-31.396-31.398-71.114-50.004-107.536-50.004-21.751 0-39.384-17.63-39.384-39.381s17.633-39.386 39.384-39.386c36.422 0 76.14-18.607 107.536-50.005 31.398-31.394 50.004-71.113 50.004-107.533 0-21.751 17.63-39.386 39.381-39.386s39.386 17.634 39.386 39.386c0 36.42 18.607 76.139 50.005 107.533 31.394 31.398 71.113 50.005 107.533 50.005 21.751 0 39.386 17.634 39.386 39.386s-17.634 39.381-39.386 39.381c-36.42 0-76.139 18.607-107.533 50.004-31.398 31.396-50.005 71.114-50.005 107.536zM478.308 481.692c12.395 12.39 23.782 26.176 33.69 41.024 9.911-14.848 21.295-28.634 33.69-41.024 12.395-12.395 26.176-23.782 41.024-33.69-14.848-9.911-28.629-21.295-41.024-33.69s-23.778-26.176-33.69-41.024c-9.907 14.848-21.295 28.629-33.69 41.024-12.39 12.395-26.176 23.778-41.024 33.69 14.848 9.907 28.634 21.295 41.024 33.69z" />
<glyph unicode="&#xe955;" glyph-name="played-games" d="M781.129 795.897c43.5 0 78.769-35.266 78.769-78.769v-538.257c0-43.504-35.269-78.769-78.769-78.769h-538.258c-43.503 0-78.769 35.265-78.769 78.769v538.257c0 43.503 35.266 78.769 78.769 78.769h538.258zM242.871 874.666c-87.006 0-157.538-70.532-157.538-157.538v-538.257c0-87.005 70.532-157.538 157.538-157.538h538.258c87.005 0 157.538 70.534 157.538 157.538v538.257c0 87.006-70.534 157.538-157.538 157.538h-538.258zM433.217 605.512c0 21.751 17.632 39.385 39.385 39.385s39.385-17.633 39.385-39.385v-177.983l133.262-57.112c19.992-8.57 29.251-31.72 20.685-51.716-8.57-19.992-31.72-29.251-51.716-20.685l-144.801 62.058c-7.621 3.265-13.682 8.653-17.79 15.175-11.059 6.975-18.408 19.298-18.408 33.339v196.923z" />
<glyph unicode="&#xe956;" glyph-name="responsible-game" d="M896 490.667c0-236.8-163.84-458.24-384-512-220.16 53.76-384 275.2-384 512v256l384 170.667 384-170.667v-256zM512 64c160 42.667 298.667 232.96 298.667 417.28v209.92l-298.667 133.12-298.667-133.12v-209.92c0-184.32 138.667-374.613 298.667-417.28zM469.333 661.333h85.333v-256h-85.333v256zM469.333 320h85.333v-85.333h-85.333v85.333z" />
<glyph unicode="&#xe957;" glyph-name="top-casino-games" d="M511.989-21.39c-90.527 0-177.347 35.959-241.359 99.972s-99.974 150.835-99.974 241.361c0.677 92.139 32.562 181.329 90.453 253.012 67.485 87.369 105.571 193.863 108.8 304.213 0.396 6.954 2.487 13.705 6.093 19.664s8.615 10.945 14.591 14.522c5.976 3.577 12.737 5.637 19.693 6s13.894-0.983 20.21-3.92c71.59-30.814 133.632-80.216 179.695-143.085s74.47-136.915 82.278-214.461c9.856 13.306 18.291 27.606 25.173 42.667 2.637 7.286 7.206 13.718 13.218 18.604s13.244 8.042 20.915 9.13c7.71 1.058 15.561-0.013 22.703-3.097 7.147-3.083 13.312-8.062 17.83-14.397 6.4-7.68 61.013-89.599 61.013-288.852 0.516-44.966-7.962-89.583-24.934-131.23s-42.095-79.479-73.894-111.279c-31.799-31.795-69.632-56.922-111.275-73.89-41.647-16.973-86.263-25.451-131.23-24.934zM448.416 806.342c-14.238-102.248-54.328-199.171-116.48-281.599-48.489-57.284-75.363-129.754-75.947-204.8 0-67.895 26.971-133.009 74.981-181.022 48.009-48.009 113.124-74.978 181.019-74.978 33.826-0.759 67.456 5.346 98.854 17.941 31.403 12.599 59.93 31.428 83.853 55.351s42.752 52.45 55.351 83.849c12.595 31.403 18.701 65.033 17.941 98.859 0.887 57.446-5.419 114.782-18.773 170.667-22.417-28.254-49.212-52.74-79.36-72.533-6.933-4.484-15.014-6.857-23.27-6.835s-16.329 2.436-23.236 6.95c-6.912 4.518-12.361 10.94-15.693 18.492s-4.403 15.91-3.081 24.060c12.506 66.662 4.233 135.562-23.697 197.373s-74.167 113.552-132.463 148.227z" />
<glyph unicode="&#xe958;" glyph-name="angle-right-small" d="M426.689 650.683c8.192 0 16.384-3.113 22.613-9.385l170.667-170.665c12.501-12.501 12.501-32.772 0-45.274l-170.667-170.667c-12.501-12.501-32.768-12.501-45.27 0s-12.501 32.772 0 45.274l148.054 148.049-148.054 148.053c-12.501 12.502-12.501 32.77 0 45.271 6.272 6.229 14.464 9.344 22.656 9.344z" />
<glyph unicode="&#xe959;" glyph-name="login" d="M149.834 490.666c-23.564 0-42.667-19.103-42.667-42.667v0c0-23.564 19.103-42.667 42.667-42.667v0h513.75c23.564 0 42.667 19.103 42.667 42.667v0c0 23.564-19.103 42.667-42.667 42.667v0zM538.584 615.083c-11.793-0.026-22.458-4.831-30.165-12.581l-0.002-0.002c-7.67-7.712-12.411-18.344-12.411-30.083 0-11.822 4.808-22.521 12.575-30.248l0.002-0.002 94.584-94.167-94.583-94.167c-7.769-7.729-12.577-18.428-12.577-30.25 0-11.739 4.741-22.371 12.413-30.085l-0.002 0.002c7.729-7.769 18.428-12.577 30.25-12.577 11.739 0 22.371 4.741 30.085 12.413l-0.002-0.002 124.917 124.417c7.768 7.73 12.575 18.428 12.575 30.25s-4.807 22.52-12.574 30.248l-0.002 0.002-124.917 124.416c-7.713 7.673-18.347 12.417-30.090 12.417-0.027 0-0.054 0-0.081 0h0.004zM509 885.333c-109.907 0-199.917-89.958-199.917-199.833v-39.833c0-23.564 19.103-42.667 42.667-42.667v0c23.564 0 42.667 19.103 42.667 42.667v0 39.833c0 63.778 50.752 114.5 114.583 114.5h208.333c63.563 0 114.167-50.603 114.167-114.167v-475.25c0-63.764-50.82-114.583-114.583-114.583h-208.417c-63.495 0-114.083 50.657-114.083 114.167v40.167c0 23.564-19.103 42.667-42.667 42.667v0c-23.564 0-42.667-19.102-42.667-42.667v0-40.167c0-109.631 89.771-199.5 199.417-199.5h208.417c109.89 0 199.917 90.027 199.917 199.917v475.25c0 109.663-89.837 199.5-199.5 199.5z" />
<glyph unicode="&#xe95a;" glyph-name="register" d="M287.090 693.32c0 112.911 91.533 204.444 204.445 204.444 112.909 0 204.442-91.533 204.442-204.444s-91.533-204.444-204.442-204.444c-112.913 0-204.445 91.532-204.445 204.444zM491.536 815.987c-67.75 0-122.668-54.92-122.668-122.667s54.918-122.667 122.668-122.667c67.746 0 122.667 54.92 122.667 122.667s-54.921 122.667-122.667 122.667zM166.982 80.014c20.122 161.361 157.769 286.221 324.579 286.221 47.607 0 92.736-10.142 133.436-28.352l37.321-16.7 33.399 74.65-37.325 16.7c-50.995 22.814-107.486 35.482-166.831 35.482-225.822 0-408.888-183.070-408.888-408.887v-40.892h505.148v81.779h-420.84zM818.661 325.348v-122.667h122.667v-81.779h-122.667v-122.667h-81.779v122.667h-122.667v81.779h122.667v122.667h81.779z" />
<glyph unicode="&#xe95b;" glyph-name="support" horiz-adv-x="989" d="M983.245 326.491c-10.265-121.697-112.898-214.8-235.326-213.335h-131.958l-244.122-160.549v160.549l248.521 160.549h131.958c37.387 0 68.912 28.591 72.577 65.981 8.796 123.159 6.596 246.321 0 371.681-3.665 34.456-31.525 60.847-65.981 61.581-174.479 10.997-348.954 10.997-523.433 0-35.189-0.733-63.78-28.591-65.979-63.78-8.797-123.161-8.797-246.323 0-369.482 3.666-37.39 35.189-65.981 72.577-65.981h131.96v-160.549h-131.96c-122.428-1.465-225.062 91.637-235.326 213.335-8.797 131.958-8.797 263.915 0 395.873 9.53 113.63 99.702 203.069 213.333 211.133 183.275 13.196 366.55 13.196 549.828 0 112.163-9.53 201.601-98.969 211.131-211.133 8.799-131.958 10.996-263.915 2.2-395.873z" />
<glyph unicode="&#xe95c;" glyph-name="info-rounded" d="M512 128c-176.731 0-320 143.27-320 320s143.269 320 320 320c176.73 0 320-143.269 320-320s-143.27-320-320-320zM512 64c212.079 0 384 171.921 384 384 0 212.077-171.921 384-384 384-212.077 0-384-171.923-384-384 0-212.079 171.923-384 384-384zM512 533.333c23.565 0 42.667 19.103 42.667 42.667s-19.102 42.667-42.667 42.667c-23.565 0-42.667-19.103-42.667-42.667s19.102-42.667 42.667-42.667zM544 448c0 17.673-14.327 32-32 32s-32-14.327-32-32v-170.667c0-17.673 14.327-32 32-32s32 14.327 32 32v170.667z" />
<glyph unicode="&#xe95d;" glyph-name="favorite-add" d="M512.62 773.534c106.914 77.978 254.711 66.386 348.16-27.307 103.706-104.339 103.706-272.835 0-377.172l-264.96-265.387c-46.165-45.436-120.235-45.436-166.4 0l-264.96 265.387c-99.599 98.901-105.821 257.965-14.252 364.347s249.786 123.902 362.412 40.131zM535.677 162.958l264.96 264.964v1.276c68.659 72.068 67.145 185.791-3.413 256.002-70.955 70.055-185.041 70.055-256 0-8.009-8.077-18.914-12.621-30.293-12.621-11.375 0-22.281 4.544-30.293 12.621-70.954 70.055-185.043 70.055-255.999 0-69.597-71.142-69.597-184.855 0-256.002l264.959-266.24c6.093-6.148 14.387-9.609 23.040-9.609 8.657 0 16.951 3.46 23.040 9.609z" />
<glyph unicode="&#xe95e;" glyph-name="favorite" d="M860.78 746.227c-93.449 93.693-241.246 105.285-348.16 27.307-112.625 83.77-270.843 66.25-362.412-40.131s-85.347-265.446 14.252-364.347l264.96-265.387c46.165-45.436 120.235-45.436 166.4 0l264.96 265.387c103.706 104.337 103.706 272.832 0 377.172z" />
<glyph unicode="&#xe95f;" glyph-name="power-off" d="M512 490.666c-23.595 0-42.667 19.115-42.667 42.667v298.667c0 23.552 19.072 42.667 42.667 42.667s42.667-19.115 42.667-42.667v-298.667c0-23.552-19.072-42.667-42.667-42.667zM896 405.332c0 136.277-73.562 263.721-191.876 332.542-20.395 11.861-46.502 4.956-58.321-15.396-11.861-20.395-4.945-46.515 15.407-58.333 92.203-53.632 149.457-152.829 149.457-258.813 0-164.693-134.016-298.667-298.667-298.667s-298.667 133.973-298.667 298.667c0 105.984 57.256 205.181 149.458 258.813 20.395 11.819 27.31 37.981 15.406 58.333s-38.013 27.343-58.323 15.396c-118.315-68.864-191.875-196.265-191.875-332.542 0-211.712 172.245-384 384-384s384 172.288 384 384z" />
</font>
</defs>
</svg>
