<svg width="36" height="36" fill="none" xmlns="http://www.w3.org/2000/svg"><g filter="url(#filter0_i_8813_35947)"><circle cx="18" cy="18" r="15" fill="#F585FF"/><path d="M33 18a15 15 0 11-.734-4.635L18 18h15z" fill="#FFD900"/><path d="M33 18a15 15 0 11-2.865-8.817L18 18h15z" fill="#F26A86"/><path d="M33 18a15 15 0 11-2.865-8.817L18 18h15z" fill="#F26A86"/><path d="M33 18a15 15 0 11-6.183-12.135L18 18h15z" fill="#3158FF"/><path d="M33 18A15 15 0 1122.635 3.734L18 18h15z" fill="#00948B"/><path d="M33 18A15 15 0 1118 3v15h15z" fill="#2EDFFE"/><path d="M33 18A15 15 0 1113.365 3.734L18 18h15z" fill="#FF1AD3"/><path d="M33 18A15 15 0 119.183 5.865L18 18h15z" fill="#B2169E"/><path d="M33 18A15 15 0 115.865 9.183L18 18h15z" fill="#4EFDCF"/><path d="M33 18a15 15 0 11-29.266-4.635L18 18h15z" fill="#DF961E"/><path d="M33 18a15 15 0 01-30 0h30z" fill="#851DFF"/><path d="M33 18a15 15 0 01-29.266 4.635L18 18h15z" fill="#3386FF"/><path d="M33 18a15 15 0 01-27.135 8.817L18 18h15z" fill="#29EEED"/><path d="M33 18A15 15 0 019.183 30.135L18 18h15z" fill="#00DCC0"/><path d="M33 18a15 15 0 01-19.635 14.266L18 18h15z" fill="#BC0038"/><path d="M33 18a15 15 0 01-15 15V18h15z" fill="#DE332A"/><path d="M33 18a15 15 0 01-10.365 14.266L18 18h15z" fill="#3AA5CC"/><path d="M33 18a15 15 0 01-6.183 12.135L18 18h15z" fill="#FF9B2E"/><path d="M33 18a15 15 0 01-2.865 8.817L18 18h15z" fill="#5A2692"/><path d="M33 18c0 1.574-.248 3.138-.734 4.635L18 18h15z" fill="#FA23EA"/></g><g filter="url(#filter1_i_8813_35947)"><path d="M34 18c0 8.837-7.163 16-16 16S2 26.837 2 18 9.163 2 18 2s16 7.163 16 16zM4.004 18c0 7.73 6.266 13.996 13.996 13.996S31.996 25.73 31.996 18 25.73 4.004 18 4.004 4.004 10.27 4.004 18z" fill="url(#paint0_radial_8813_35947)"/></g><defs><filter id="filter0_i_8813_35947" x="3" y="3" width="30" height="30" filterUnits="userSpaceOnUse" color-interpolation-filters="sRGB"><feFlood flood-opacity="0" result="BackgroundImageFix"/><feBlend in="SourceGraphic" in2="BackgroundImageFix" result="shape"/><feColorMatrix in="SourceAlpha" values="0 0 0 0 0 0 0 0 0 0 0 0 0 0 0 0 0 0 127 0" result="hardAlpha"/><feOffset/><feGaussianBlur stdDeviation="2.5"/><feComposite in2="hardAlpha" operator="arithmetic" k2="-1" k3="1"/><feColorMatrix values="0 0 0 0 0 0 0 0 0 0 0 0 0 0 0 0 0 0 1 0"/><feBlend in2="shape" result="effect1_innerShadow_8813_35947"/></filter><filter id="filter1_i_8813_35947" x="2" y="2" width="32" height="32" filterUnits="userSpaceOnUse" color-interpolation-filters="sRGB"><feFlood flood-opacity="0" result="BackgroundImageFix"/><feBlend in="SourceGraphic" in2="BackgroundImageFix" result="shape"/><feColorMatrix in="SourceAlpha" values="0 0 0 0 0 0 0 0 0 0 0 0 0 0 0 0 0 0 127 0" result="hardAlpha"/><feOffset/><feGaussianBlur stdDeviation=".5"/><feComposite in2="hardAlpha" operator="arithmetic" k2="-1" k3="1"/><feColorMatrix values="0 0 0 0 0 0 0 0 0 0 0 0 0 0 0 0 0 0 0.3 0"/><feBlend in2="shape" result="effect1_innerShadow_8813_35947"/></filter><radialGradient id="paint0_radial_8813_35947" cx="0" cy="0" r="1" gradientUnits="userSpaceOnUse" gradientTransform="matrix(-32.54413 148.98599 -76.80146 -16.77632 31.717 -31.709)"><stop stop-color="#DE6B00"/><stop offset=".284" stop-color="#FFE9C8"/><stop offset=".577" stop-color="#FCAE00"/><stop offset=".917" stop-color="#DB5736"/><stop offset="1" stop-color="#C4195D"/></radialGradient></defs></svg>