<svg width="36" height="23" viewBox="0 0 36 23" fill="none" xmlns="http://www.w3.org/2000/svg">
<path fill-rule="evenodd" clip-rule="evenodd" d="M12.9319 20.4071H22.5181V3.18042H12.9319V20.4071Z" fill="#FF5F00"/>
<path fill-rule="evenodd" clip-rule="evenodd" d="M13.5407 11.7936C13.5407 8.29874 15.177 5.18671 17.7251 3.1803C15.7964 1.65945 13.4107 0.834105 10.9545 0.837904C4.90451 0.837904 0 5.74302 0 11.7936C0 17.8442 4.90451 22.7493 10.9548 22.7493C13.411 22.7531 15.7967 21.9278 17.7254 20.4069C15.1773 18.4008 13.5407 15.2882 13.5407 11.7936Z" fill="#EB001B"/>
<path fill-rule="evenodd" clip-rule="evenodd" d="M35.1086 18.5826V18.1575H34.9975L34.8697 18.4496L34.7422 18.1575H34.6311V18.5826H34.7093V18.2615L34.8292 18.5379H34.9104L35.0304 18.2606V18.5823L35.1086 18.5826ZM34.4056 18.5826V18.2296H34.5477V18.1581H34.1855V18.2299H34.3277V18.5826H34.4056Z" fill="#231F20"/>
<path fill-rule="evenodd" clip-rule="evenodd" d="M35.4508 11.7936C35.4508 17.8442 30.5457 22.7493 24.4954 22.7493C22.0393 22.7531 19.6538 21.9278 17.7251 20.4069C20.2732 18.4008 21.9096 15.2882 21.9096 11.7936C21.9096 8.29875 20.2732 5.18671 17.7251 3.1803C19.6538 1.6594 22.0395 0.834058 24.4957 0.837904C30.546 0.837904 35.4508 5.74302 35.4508 11.7936Z" fill="#F79E1B"/>
</svg>
