<svg width="93" height="12" viewBox="0 0 93 12" fill="none" xmlns="http://www.w3.org/2000/svg">
<path d="M26.0228 2.77891C26.0652 2.82099 26.1076 2.90514 26.15 2.94722C26.0652 2.56854 25.8956 2.18985 25.7261 1.81117C24.1574 -1.04998 19.7907 -0.208466 15.4663 3.03137C14.3216 3.87288 13.3041 4.8827 12.4138 5.97667C12.9226 6.2712 13.4313 6.64989 13.8977 7.02857C14.1944 7.23895 14.4912 7.40725 14.8304 7.57555C15.1271 7.23895 15.3815 6.94442 15.6783 6.64989C19.4939 2.73684 24.4542 0.7172 26.0228 2.77891Z" fill="white"/>
<path d="M26.2775 5.21911L26.3623 5.17704C26.4895 4.29345 26.4471 3.49401 26.1079 2.94702C26.2775 3.70439 26.3623 4.46175 26.2775 5.21911Z" fill="white"/>
<path d="M26.1074 2.94687C26.065 2.90479 26.0226 2.82064 25.9802 2.77856C26.0226 2.90479 26.065 2.98894 26.065 3.11517C26.1074 3.19932 26.1498 3.28347 26.1922 3.36763C26.1922 3.19932 26.1498 3.0731 26.1074 2.94687Z" fill="white"/>
<path d="M15.3815 3.24134C19.7059 0.00150698 24.0727 -0.882085 25.6413 1.97907C25.7685 2.23152 25.8957 2.48398 25.9805 2.77851C26.0229 2.82058 26.0653 2.90474 26.1077 2.94681C26.0229 2.56813 25.8533 2.18945 25.6837 1.81076C24.1151 -1.05039 19.7483 -0.166796 15.4239 3.11512C13.8129 4.29324 12.4986 5.76589 11.4387 7.44892C11.4387 7.44892 11.4387 7.44892 11.4811 7.491C12.4986 5.85004 13.8129 4.41946 15.3815 3.24134Z" fill="white"/>
<path d="M14.1519 6.10284C13.7704 5.76623 13.3464 5.42962 12.9649 5.09302C12.2017 5.97661 11.3962 6.77605 10.4635 7.53341C6.6055 10.7312 2.40832 11.7831 1.13644 9.88966C1.13644 9.84758 1.09405 9.84758 1.09405 9.80551C0.839674 9.42682 0.670091 9.04814 0.542904 8.62738C0.330925 7.82794 0.330925 6.98643 0.5853 6.22906C-0.0082409 7.40719 -0.177824 8.58531 0.203738 9.59513C1.17884 12.2038 5.588 12.6246 9.99716 10.5208C12.0746 9.55305 13.7704 8.16455 14.9151 6.73397C14.6607 6.5236 14.4063 6.31322 14.1519 6.10284Z" fill="white"/>
<path d="M4.74008 2.10547C4.5281 2.10547 4.31612 2.14754 4.14654 2.2317V2.27377H4.10414C3.25622 2.86283 3.21383 2.90491 4.14654 2.27377C3.59539 2.5683 3.08664 2.94698 2.62028 3.40982C1.85715 4.12511 1.22121 4.96662 0.712463 5.89229C0.670067 5.97644 0.627671 6.10267 0.542879 6.18682C0.288503 6.98626 0.288503 7.82778 0.500483 8.58514C0.627671 9.0059 0.797255 9.38458 1.05163 9.76326C0.712463 9.1742 0.542879 8.50099 0.542879 7.82777C0.542879 6.14474 1.98434 3.9568 2.95945 3.11529C3.38341 2.73661 3.89216 2.48415 4.48571 2.44207C4.5705 2.31585 4.65529 2.18962 4.74008 2.10547Z" fill="white"/>
<path opacity="0.71" d="M8.42871 8.96383C10.2517 7.82779 11.8628 6.31306 12.3715 5.63985L12.6683 5.30324C12.8803 5.09286 13.177 4.6721 13.4314 4.46172C14.0249 4.16719 15.0848 3.40983 16.2295 2.65247C16.6959 2.31586 17.2046 2.02133 17.459 1.85303L18.7733 4.04097C17.9677 4.58795 15.848 6.35513 15.0848 6.98627C14.8305 7.19665 15.1272 6.73382 14.9152 6.9442L13.3466 8.37477C12.2443 9.30044 11.0572 10.0578 9.74298 10.6469L8.42871 8.96383Z" fill="white"/>
<path d="M25.3867 1.43233C28.6088 7.49125 21.2743 10.3524 17.4163 6.14482C15.8052 4.12518 15.5933 3.11537 14.6181 2.06347C10.2938 -2.10203 4.0192 0.506666 0.797119 5.72406C1.22108 5.21915 3.9768 2.10555 7.96201 2.61046C11.0569 2.98914 11.5657 6.90219 16.102 9.21635C21.2743 11.8251 30.559 8.29069 25.3867 1.43233Z" fill="white"/>
<path opacity="0.57" d="M16.2294 9.04799C11.693 6.73383 11.1843 2.82078 8.08938 2.44209C4.27375 1.97926 1.60282 4.75626 1.00928 5.47155C1.8148 4.58796 4.40094 2.14756 7.96219 2.6104C11.0571 2.98908 11.5658 6.90213 16.1022 9.2163C19.3243 10.8573 24.0726 10.0999 26.0228 7.65949C24.0302 9.97366 19.3667 10.6469 16.2294 9.04799Z" fill="white"/>
<path d="M25.5565 1.60076C25.5141 1.51661 25.4717 1.47453 25.3869 1.39038C28.5242 7.32307 21.5713 10.1842 17.6709 6.35532C21.5289 10.3104 28.5666 7.53345 25.5565 1.60076Z" fill="white"/>
<path d="M41.9634 0.422406C41.921 0.38033 41.8363 0.380331 41.7939 0.380331C41.3275 0.254103 40.2252 0.212027 39.8437 0.506558C39.8013 0.548634 39.7165 0.632785 39.7165 0.716937C38.6566 2.10544 37.6815 3.53601 36.7912 5.05074L34.0778 0.716937V0.67486C34.0354 0.590708 33.993 0.548633 33.9506 0.464481C33.6539 0.212026 32.6788 0.212027 32.17 0.296179C32.0428 0.296179 31.9157 0.338255 31.8309 0.380331C31.6189 0.464482 31.4917 0.67486 31.4917 0.885239V10.0157C31.4917 10.184 31.5765 10.5206 32.1276 10.6047C32.2972 10.6468 32.5092 10.6468 32.6788 10.6468C33.0603 10.6468 33.9083 10.6468 33.9083 10.0157V4.79829C34.0778 5.09282 34.417 5.6398 34.7986 6.31302C35.3073 7.28076 35.6465 7.86982 35.8585 8.16435L35.9432 8.37473C36.028 8.50096 36.1552 8.62718 36.2824 8.75341C36.5792 8.92171 36.9183 8.96379 37.2575 8.92172C37.3423 8.87964 37.4271 8.87964 37.4695 8.79549C37.6391 8.71134 37.7663 8.58511 37.8511 8.41681L38.1054 7.99605C38.2326 7.78567 38.487 7.32284 38.9109 6.5234C39.3349 5.72396 39.6741 5.17697 39.886 4.79829C40.2252 4.2513 39.886 5.76603 39.886 5.85018V10.0998C39.886 10.731 40.6916 10.731 41.1155 10.731C41.4971 10.731 42.345 10.731 42.345 10.0998V0.927316C42.2602 0.716937 42.133 0.548633 41.9634 0.422406Z" fill="white"/>
<path d="M44.9313 4.04102C44.1258 4.04102 44.041 4.16724 44.041 4.33555V10.142C44.041 10.3103 44.1682 10.4365 44.9313 10.4365C45.6945 10.4365 45.8217 10.3103 45.8217 10.142V4.33555C45.8217 4.20932 45.6945 4.04102 44.9313 4.04102Z" fill="white"/>
<path d="M44.9314 10.8152C44.5498 10.8152 43.7019 10.8152 43.7019 10.184V4.33548C43.7019 3.70435 44.5074 3.70435 44.9314 3.70435C45.3129 3.70435 46.1609 3.70435 46.1609 4.33548V10.1419C46.1185 10.8152 45.3129 10.8152 44.9314 10.8152ZM44.3802 10.0999C44.7618 10.1419 45.101 10.1419 45.4825 10.0999V4.41963C45.101 4.37756 44.7618 4.37756 44.3802 4.41963V10.0999Z" fill="white"/>
<path d="M53.8343 0.759033H48.7044C48.1533 0.759033 47.8989 0.843185 47.8989 1.05356V10.184C47.8989 10.3523 48.0261 10.4785 48.7892 10.4785C49.5524 10.4785 49.6795 10.3523 49.6795 10.184V6.43927H53.3256C53.6224 6.43927 53.7919 6.10266 53.7919 5.63983C53.7919 5.13492 53.6224 4.84039 53.3256 4.84039H49.6795V2.44206H53.8343C54.1311 2.44206 54.3007 2.10546 54.3007 1.64263C54.3007 1.09564 54.1311 0.759033 53.8343 0.759033Z" fill="white"/>
<path d="M48.8315 10.8153C48.45 10.8153 47.6021 10.8153 47.6021 10.1842V1.05374C47.6021 0.464683 48.2804 0.464683 48.7467 0.422607H53.8766C54.2582 0.422607 54.6822 0.717138 54.6822 1.55865C54.6822 2.40017 54.2582 2.6947 53.8766 2.6947H50.061V4.41981H53.3679C53.7495 4.41981 54.1734 4.71434 54.1734 5.55585C54.1734 6.39737 53.7495 6.6919 53.3679 6.6919H50.061V10.1421C50.0186 10.8153 49.2131 10.8153 48.8315 10.8153ZM48.2804 10.1C48.6619 10.1421 49.0011 10.1421 49.3827 10.1V6.10284H53.3679C53.4103 6.10284 53.4951 5.93454 53.4951 5.64001C53.4951 5.34548 53.4103 5.17717 53.3679 5.17717H49.3827V2.10564H53.8766C53.919 2.10564 54.0038 1.97941 54.0038 1.64281C54.0038 1.3062 53.8766 1.17997 53.8766 1.17997H48.7467C48.5772 1.17997 48.4076 1.17997 48.2804 1.22205V10.1Z" fill="white"/>
<path d="M67.1891 0.759319C66.426 0.759319 66.2988 0.927623 66.2988 1.05385V7.07069L62.1016 0.927623V0.885546C61.8896 0.675167 60.8297 0.717244 60.5753 0.843471C60.4906 0.885547 60.4058 0.969698 60.4058 1.05385V10.1422C60.4058 10.2264 60.4058 10.4367 61.2961 10.4367C62.1864 10.4367 62.1864 10.2264 62.1864 10.1422V4.12538L66.3836 10.2684C66.4684 10.3947 66.8499 10.4367 67.1891 10.4367C67.4011 10.4367 67.6554 10.4367 67.8674 10.3526C68.037 10.3105 68.0794 10.1843 68.0794 10.1001V1.05385C68.0794 0.927623 67.9946 0.759319 67.1891 0.759319Z" fill="white"/>
<path d="M67.1894 10.8153C66.4263 10.8153 66.2143 10.647 66.0871 10.4787L62.5258 5.21925V10.1421C62.5258 10.7733 61.7203 10.7733 61.2964 10.7733C60.9148 10.7733 60.0669 10.7733 60.0669 10.1421V1.05374C60.0669 0.801289 60.2365 0.632986 60.4485 0.548834C60.7028 0.464683 61.9747 0.338455 62.3563 0.675061L62.3987 0.759213L65.9599 6.01869V1.05374C65.9599 0.422607 66.8078 0.422607 67.1894 0.422607C67.5709 0.422607 68.4189 0.422607 68.4189 1.05374V10.1421C68.4189 10.3946 68.2069 10.647 67.9525 10.6891C67.7405 10.7733 67.4438 10.8153 67.1894 10.8153ZM66.6382 10.058C66.8078 10.1 67.0198 10.1421 67.1894 10.1421C67.4014 10.1421 67.5709 10.1421 67.7405 10.1V1.1379C67.359 1.09582 67.0198 1.09582 66.6382 1.1379V8.16455L61.8475 1.1379C61.466 1.05374 61.0844 1.05374 60.7028 1.1379V10.1C61.0844 10.1421 61.4236 10.1421 61.8051 10.1V3.07338L66.6382 10.058Z" fill="white"/>
<path d="M71.3014 0.759033C70.5383 0.759033 70.4111 0.885261 70.4111 1.05356V10.184C70.4111 10.3523 70.5383 10.4785 71.3014 10.4785C72.0646 10.4785 72.1917 10.3523 72.1917 10.184V1.05356C72.1917 0.885261 72.1069 0.759033 71.3014 0.759033Z" fill="white"/>
<path d="M71.3015 10.8153C70.9199 10.8153 70.072 10.8153 70.072 10.1842V1.05374C70.072 0.422607 70.8775 0.422607 71.3015 0.422607C71.6831 0.422607 72.531 0.422607 72.531 1.05374V10.1842C72.531 10.8153 71.7255 10.8153 71.3015 10.8153ZM70.7503 10.1C71.1319 10.1421 71.4711 10.1421 71.8526 10.1V1.1379C71.6831 1.09582 71.4711 1.09582 71.3015 1.09582C71.1319 1.09582 70.9199 1.09582 70.7503 1.1379V10.1Z" fill="white"/>
<path d="M57.1838 0.759033C56.4206 0.759033 56.2935 0.885261 56.2935 1.05356V10.184C56.2935 10.3523 56.4206 10.4785 57.1838 10.4785C57.9469 10.4785 58.0741 10.3523 58.0741 10.184V1.05356C58.0741 0.885261 57.9469 0.759033 57.1838 0.759033Z" fill="white"/>
<path d="M57.1838 10.8153C56.8023 10.8153 55.9543 10.8153 55.9543 10.1842V1.05374C55.9543 0.422607 56.7599 0.422607 57.1838 0.422607C57.5654 0.422607 58.4133 0.422607 58.4133 1.05374V10.1842C58.3709 10.8153 57.5654 10.8153 57.1838 10.8153ZM56.6327 10.1C57.0142 10.1421 57.3534 10.1421 57.735 10.1V1.1379C57.3534 1.09582 57.0142 1.09582 56.6327 1.1379V10.1Z" fill="white"/>
<path d="M81.6463 0.759033H74.4813C74.3118 0.759033 74.1846 0.885262 74.1846 1.64263C74.1846 2.39999 74.3118 2.52622 74.4813 2.52622H77.1947V10.184C77.1947 10.3523 77.3219 10.4785 78.085 10.4785C78.8481 10.4785 78.9753 10.3523 78.9753 10.184V2.52622H81.6886C81.8582 2.52622 81.9854 2.39999 81.9854 1.64263C81.943 0.885262 81.7734 0.759033 81.6463 0.759033Z" fill="white"/>
<path d="M78.0426 10.8153C77.661 10.8153 76.8131 10.8153 76.8131 10.1842V2.863H74.4389C73.803 2.863 73.803 2.06356 73.803 1.64281C73.803 1.22205 73.803 0.422607 74.4389 0.422607H81.6038C82.2397 0.422607 82.2397 1.22205 82.2397 1.64281C82.2397 2.06356 82.2397 2.863 81.6038 2.863H79.2296V10.1842C79.272 10.8153 78.4665 10.8153 78.0426 10.8153ZM77.5338 10.1C77.9154 10.1421 78.2545 10.1421 78.6361 10.1V2.18979H81.5614C81.6038 1.81111 81.6038 1.4745 81.5614 1.09582H74.5661C74.5237 1.4745 74.5237 1.81111 74.5661 2.18979H77.4914V10.1H77.5338Z" fill="white"/>
<path d="M91.8636 0.843566C91.5244 0.717338 90.2949 0.717338 90.083 0.969793L87.836 4.42001L85.589 0.969793C85.3771 0.675262 84.1476 0.717339 83.8084 0.801491C83.6388 0.843566 83.5964 0.969793 83.5964 1.05394V1.09602L86.9457 6.27134V10.0582C86.9457 10.1423 86.9457 10.3948 87.836 10.3948C88.7263 10.3948 88.7263 10.1423 88.7263 10.0582V6.27134L92.0756 1.09602V1.05394C92.0756 1.01187 92.0332 0.927717 91.8636 0.843566Z" fill="white"/>
<path d="M87.8361 10.8151C87.5393 10.8151 86.6066 10.8151 86.6066 10.1419V6.43921L83.2573 1.26389V1.13766C83.2573 0.885207 83.4693 0.632753 83.7237 0.590677C84.0628 0.46445 85.5043 0.380298 85.8859 0.843131L87.8361 3.83051L89.7863 0.801056C90.1679 0.338222 91.6517 0.422373 91.9485 0.5486C92.2029 0.632752 92.3724 0.84313 92.3724 1.09559V1.22181L89.0232 6.39714V10.0998C89.0656 10.8151 88.1329 10.8151 87.8361 10.8151ZM87.2849 10.0577C87.6665 10.1419 88.0057 10.1419 88.3872 10.0577V6.22883L91.6941 1.13766C91.3549 1.05351 90.5494 1.09559 90.3374 1.22181L87.8361 5.09278L85.3347 1.26389C85.1651 1.13766 84.3596 1.13766 83.9781 1.17974L87.2425 6.27091L87.2849 10.0577Z" fill="white"/>
<path d="M44.5498 0.506592H45.1857C45.7369 0.506592 46.1608 0.927349 46.1608 1.47433V2.14755C46.1608 2.69453 45.7369 3.11529 45.1857 3.11529H44.5498C43.9987 3.11529 43.5747 2.69453 43.5747 2.14755V1.47433C43.5747 0.927349 43.9987 0.506592 44.5498 0.506592Z" fill="white"/>
</svg>
