<svg width="67" height="17" viewBox="0 0 67 17" fill="none" xmlns="http://www.w3.org/2000/svg">
<g clip-path="url(#clip0_428_5538)">
<path fill-rule="evenodd" clip-rule="evenodd" d="M3.4326 9.6159V10.8413C3.4326 12.5472 3.42539 14.2539 3.4382 15.9598C3.44141 16.3479 3.34372 16.5504 2.90974 16.5384C2.09927 16.5207 1.28852 16.5199 0.478021 16.5359C0.120109 16.5408 -0.000796752 16.3913 3.94672e-06 16.0361C0.00801093 12.2274 0.00801093 8.41863 0.00240604 4.60987C0.00240604 4.10365 0.260231 3.74527 0.61494 3.44395C1.61661 2.593 3.3261 2.88147 3.96746 4.02812C4.84503 5.59983 5.63292 7.21895 6.40959 8.8437C6.51128 9.05503 6.62818 9.25913 6.74108 9.47126C6.97328 9.366 6.8748 9.1836 6.8756 9.05101C6.88361 7.36439 6.8812 5.67858 6.8812 3.99196C6.8812 3.2053 6.88121 3.20449 7.69391 3.20449C8.30645 3.20449 8.92218 3.24306 9.53152 3.19324C10.1208 3.14503 10.3178 3.3202 10.3066 3.94214C10.2674 6.08356 10.2914 8.22659 10.2914 10.3688C10.2914 11.8562 10.2938 13.3443 10.2914 14.8325C10.289 15.7019 9.84779 16.3825 9.12236 16.6517C8.34728 16.9385 7.57861 16.7143 6.99731 16.0321C6.66021 15.6368 6.4176 15.182 6.183 14.724C5.30863 13.0165 4.43827 11.3057 3.56711 9.59742L3.4326 9.6159ZM17.7867 8.48131C17.3572 8.25316 16.8582 8.19451 16.3877 8.31688C15.9173 8.43926 15.5095 8.7338 15.2445 9.14262C14.5863 10.147 14.6256 11.5862 15.3374 12.5576C15.9539 13.3973 17.0973 13.6312 18.107 13.1153C18.7235 12.8011 19.1799 12.3214 19.529 11.7252C20.0655 10.8075 19.9078 10.9233 20.8102 11.366C21.3234 11.6183 21.8294 11.8883 22.3395 12.1462C22.6037 12.2796 22.7334 12.4387 22.5861 12.7601C21.3442 15.4697 18.8597 17.2848 15.5688 16.6975C14.6651 16.5384 13.8318 16.1051 13.1811 15.456C11.5533 13.8441 10.7518 11.906 11.3739 9.62876C12.0241 7.25029 13.6095 5.70349 16.066 5.2985C17.8396 5.00602 19.4249 5.57572 20.69 6.90638C21.1424 7.38207 21.4907 7.93731 21.8511 8.48291C22.0424 8.77219 22.0048 8.96343 21.7077 9.16833C20.1775 10.2229 18.6562 11.2903 17.1438 12.3704C16.7794 12.6316 16.548 12.6549 16.3118 12.2202C16.0455 11.7339 15.7483 11.2653 15.4223 10.8172C15.1716 10.4701 15.2581 10.2547 15.5792 10.0442C16.1749 9.65447 16.765 9.25672 17.3519 8.85334C17.5073 8.74648 17.7155 8.69264 17.7867 8.48131ZM30.1559 11.0382C30.1367 9.69063 29.4497 8.90316 28.3087 8.92245C27.2117 8.94093 26.3398 9.91723 26.3494 11.1161C26.3582 12.2893 27.1949 13.1683 28.2935 13.1595C29.1606 13.1523 30.3168 12.4942 30.1559 11.0382ZM28.2102 16.7722C25.6456 17.0888 22.6646 14.2893 22.6918 10.9948C22.7158 7.9574 25.1764 5.21253 28.2983 5.24788C31.6532 5.28565 33.904 8.11249 33.8487 11.2423C33.7847 14.7971 30.6523 17.0197 28.2102 16.7722ZM42.4522 9.33627C42.4522 8.24507 42.465 7.15387 42.445 6.06347C42.4378 5.67697 42.5731 5.53957 42.9535 5.5476C43.803 5.56448 44.6533 5.56849 45.5029 5.54519C45.9281 5.53394 46.0337 5.7075 46.0313 6.10767C46.0153 8.09159 46.0193 10.0747 46.0273 12.0578C46.0297 12.6975 46.3965 13.1282 46.9401 13.1804C47.4662 13.2302 47.917 12.8365 48.0347 12.2226C48.0491 12.1454 48.0587 12.0659 48.0619 11.9863C48.0819 11.4528 48.1132 10.9176 48.1156 10.3833C48.1236 8.97548 48.1316 7.56689 48.1124 6.15909C48.1068 5.71233 48.2389 5.51546 48.7129 5.53153C49.5216 5.55885 50.3335 5.54921 51.1438 5.53394C51.5474 5.52671 51.7443 5.62795 51.7395 6.09963C51.7155 8.18239 51.8012 10.2676 51.7107 12.3463C51.593 15.0526 49.7266 16.8959 47.2236 16.777C46.4934 16.7425 45.7663 16.7818 45.0713 16.4749C43.4139 15.7429 42.4714 14.1952 42.4226 12.2507C42.3986 11.28 42.4186 10.3077 42.4186 9.33627H42.4522ZM59.3614 10.2017C59.3614 8.39854 59.3574 6.59461 59.3614 4.79147C59.3678 2.54961 61.0637 0.848526 63.2976 0.83808C63.9302 0.83567 64.5619 0.857365 65.1929 0.839687C65.5564 0.829241 65.7389 0.916827 65.7261 1.33145C65.7039 2.18305 65.7034 3.03507 65.7245 3.88669C65.7325 4.23543 65.5868 4.33989 65.2681 4.32944C64.8542 4.31658 64.4394 4.32623 64.0246 4.32944C63.7844 4.33105 63.5482 4.36078 63.3721 4.55122C63.2752 4.65187 63.2072 4.77687 63.1752 4.91306C63.1432 5.04924 63.1485 5.19156 63.1903 5.32502C63.2632 5.55403 63.533 5.45118 63.7172 5.45519C64.2296 5.46805 64.7445 5.47609 65.2569 5.4576C65.6204 5.44394 65.7373 5.5918 65.7293 5.94776C65.7109 6.78012 65.7103 7.61277 65.7277 8.44515C65.7357 8.80594 65.5988 8.94495 65.2425 8.9337C64.7092 8.91763 64.1744 8.957 63.6435 8.92165C63.1943 8.89111 63.067 9.05825 63.0702 9.49617C63.0886 11.5966 63.0574 13.6979 63.091 15.7983C63.1006 16.3961 62.9421 16.6042 62.328 16.5617C61.5225 16.5062 60.7089 16.5311 59.9002 16.556C59.5015 16.5681 59.3318 16.4556 59.3358 16.0273C59.3518 14.0852 59.343 12.1438 59.343 10.2017H59.3614ZM36.5158 16.5327C35.8833 16.5327 35.2507 16.5143 34.6198 16.5392C34.2379 16.5552 34.0833 16.4226 34.0913 16.0345C34.1073 15.2816 34.1073 14.5279 34.0913 13.775C34.0833 13.4182 34.217 13.2864 34.5758 13.2945C35.4045 13.3138 36.234 13.3001 37.0635 13.3001C37.202 13.3001 37.3406 13.3025 37.4783 13.2961C37.6865 13.2864 37.8906 13.2214 37.9499 13.01C38.018 12.7642 37.805 12.6725 37.6272 12.5842C37.0283 12.2812 36.4182 12.0008 35.8337 11.6754C34.5045 10.9361 33.984 9.67456 34.2747 7.97428C34.4677 6.84692 35.6279 5.7742 36.9394 5.59983C38.2341 5.42707 39.5417 5.54599 40.8436 5.53555C41.1175 5.53394 41.2384 5.66893 41.2376 5.93571C41.236 6.72799 41.236 7.52028 41.2376 8.31337C41.2392 8.63237 41.0598 8.70308 40.778 8.69907C40.0085 8.68782 39.2382 8.69585 38.4679 8.69585C38.2277 8.69585 37.9475 8.68139 37.885 8.97468C37.8186 9.27842 38.1052 9.36279 38.3134 9.4576C39.0316 9.78705 39.7355 10.143 40.4032 10.5665C41.5466 11.2897 42.1087 12.6276 41.8045 13.8947C41.4449 15.3901 40.4249 16.3158 39.0004 16.4676C38.1725 16.556 37.3446 16.5359 36.5158 16.5327ZM55.8807 6.76817C56.6198 5.88589 57.3909 5.45278 58.4061 5.52751C58.8025 5.55644 58.9722 5.66411 58.9602 6.08517C58.939 6.89713 58.9385 7.7095 58.9586 8.52148C58.9666 8.88468 58.8665 9.05342 58.4694 9.07914C56.888 9.1836 56.3411 9.23743 56.3483 11.513C56.3532 12.9787 56.3315 14.4451 56.362 15.9108C56.3732 16.4194 56.1906 16.5576 55.7134 16.5416C54.8253 16.518 53.9368 16.5164 53.0487 16.5368C52.6996 16.5424 52.5562 16.4259 52.557 16.057C52.5669 12.709 52.5669 9.3609 52.557 6.01285C52.5562 5.63117 52.7364 5.53635 53.0631 5.53876C53.7741 5.54358 54.4859 5.56287 55.1945 5.52992C55.7166 5.50582 55.9856 5.65367 55.8839 6.22337C55.8639 6.33748 55.8815 6.45801 55.8815 6.76737" fill="#F60099"/>
</g>
<defs>
<clipPath id="clip0_428_5538">
<rect width="66.458" height="16.0707" fill="white" transform="translate(0 0.837891)"/>
</clipPath>
</defs>
</svg>
