<svg width="82" height="15" viewBox="0 0 82 15" fill="none" xmlns="http://www.w3.org/2000/svg">
<g clip-path="url(#clip0_428_5533)">
<path d="M72.2948 6.73523C71.8848 7.00953 71.2015 7.14668 70.3815 7.14668H69.5615L70.1082 3.58084H70.7915C71.4748 3.58084 72.0215 3.71799 72.4315 3.85514C72.7048 4.12943 72.9781 4.40373 72.9781 5.22661C72.9781 6.0495 72.7048 6.46094 72.2948 6.73523ZM20.6361 11.2611H13.9396L14.3496 8.79245H18.5862L18.9962 6.18664H14.8963L15.3063 3.85514H22.0028L20.6361 11.2611ZM75.9847 1.79792C74.8914 1.11219 73.3881 0.837891 71.4748 0.837891H66.4183L64.505 11.2611H57.8085L58.2185 8.79245H62.1817L62.7284 6.18664H58.6285L59.1751 3.85514H63.275L63.8217 0.837891H55.3486L53.5719 10.7125H50.4287L52.342 0.837891H47.8321L46.0555 10.7125H43.0489L44.8255 0.837891H40.4523L38.539 11.2611H31.8425L32.2525 8.79245H36.2157L36.7624 6.18664H32.6625L33.0725 3.85514H37.309L37.8557 0.837891H11.4797L9.97641 9.06674L7.10648 0.837891H2.45994L0 14.2783H4.37322L5.87651 5.7752L8.74644 14.2783H24.4627L26.376 3.85514H28.8359L26.9226 14.2783H68.1949L69.4249 7.69527L71.3382 14.2783H75.7114L73.6614 8.92959L74.2081 8.79245C75.1647 8.51815 75.9847 8.10671 76.5314 7.42097C77.078 6.73523 77.3513 5.7752 77.3513 4.67802C77.3513 3.44369 76.9413 2.48366 75.9847 1.79792ZM79.5379 12.6326H80.4946C80.4946 12.4954 80.4946 12.4954 80.6312 12.4954V12.2211C80.6312 12.084 80.6312 12.084 80.4946 11.9468H79.5379V12.6326ZM79.2646 13.8669V11.8097L80.0846 11.6725H80.6312C80.6312 11.8097 80.7679 11.8097 80.7679 11.9468C80.9046 11.9468 80.9046 12.084 80.9046 12.2211C80.9046 12.3583 80.9046 12.4954 80.7679 12.6326C80.7679 12.7697 80.4946 12.7697 80.3579 12.9069H80.4946L80.7679 13.1812L81.1779 13.7298H80.7679L80.4946 13.3183C80.4946 13.1812 80.3579 13.1812 80.3579 13.044C80.2213 13.044 80.2213 12.9069 80.2213 12.9069H79.5379V13.8669H79.2646Z" fill="#8CC540"/>
<path d="M78.4447 12.7697C78.4447 12.3583 78.5813 11.9469 78.8546 11.6726C79.128 11.3983 79.538 11.124 79.948 11.124C80.9046 11.124 81.5879 11.8097 81.7246 12.6326V12.7697C81.7246 13.5926 81.0413 14.2784 80.0846 14.4155C79.2646 14.4155 78.4447 13.7298 78.4447 12.7697ZM79.948 10.8497C79.4013 10.8497 78.9913 10.9868 78.5813 11.3983C78.1713 11.8097 78.0347 12.3583 78.0347 12.9069C78.1713 14.0041 78.9913 14.8269 80.0846 14.6898C81.1779 14.6898 81.9979 13.7298 81.9979 12.6326C81.9979 11.5354 81.0413 10.7125 79.948 10.8497Z" fill="#8CC540"/>
</g>
<defs>
<clipPath id="clip0_428_5533">
<rect width="81.9979" height="13.989" fill="white" transform="translate(0 0.837891)"/>
</clipPath>
</defs>
</svg>
