<svg width="32" height="32" viewBox="0 0 32 32" fill="none" xmlns="http://www.w3.org/2000/svg">
<g clip-path="url(#clip0_26569_8143)">
<path d="M31.6004 0.400391C31.6004 1.4432 31.558 2.48601 31.4733 3.50775C31.3885 4.55055 31.2614 5.59335 31.1025 6.61511C30.933 7.66847 30.7211 8.70071 30.4668 9.72247C30.2126 10.7758 29.9053 11.8081 29.5663 12.8298H9.04527C8.63211 11.8186 8.26131 10.7864 7.95407 9.72247H27.3097C27.5852 8.70071 27.8182 7.66847 27.9984 6.61511C28.1785 5.59335 28.3162 4.56111 28.401 3.50775H3.61044C3.70579 4.56111 3.83292 5.59335 4.01303 6.61511C4.19311 7.66847 4.42619 8.70071 4.70163 9.72247C4.98771 10.7758 5.31611 11.8186 5.68691 12.8298C5.98355 13.6198 6.30139 14.3993 6.65099 15.1683C6.76751 15.4211 6.88407 15.6844 7.01119 15.9372C7.51971 17.0011 8.09179 18.0439 8.70627 19.0446C9.04527 19.6134 9.40547 20.1611 9.77627 20.6983C10.1153 21.1934 10.4649 21.6779 10.8251 22.1519C11.09 22.4995 11.3548 22.8366 11.6303 23.1737C12.0329 23.6687 12.4566 24.1638 12.891 24.6378C13.0817 24.8485 13.283 25.0592 13.4843 25.2698C13.5584 25.3436 13.6326 25.4278 13.7068 25.5016C14.4378 26.2494 15.2005 26.9657 15.9951 27.6504L16.0163 27.6714V27.6293C16.8003 26.9552 17.5524 26.2494 18.2729 25.5121C18.347 25.4384 18.4212 25.3541 18.4953 25.2804C18.7072 25.0592 18.9297 24.8274 19.131 24.5957C19.5442 24.1427 19.9573 23.6687 20.3493 23.1947C20.6248 22.8577 20.9002 22.5206 21.1545 22.173C21.5359 21.6779 21.9067 21.1723 22.2563 20.6456C22.6059 20.1295 22.9555 19.6028 23.2839 19.0656H12.4248C11.7362 18.065 11.09 17.0327 10.5179 15.9583H28.3798C27.9136 17.0222 27.4051 18.0544 26.8542 19.0656C26.3986 19.8978 25.9219 20.6983 25.4134 21.4883C25.265 21.72 25.1167 21.9412 24.9684 22.173C24.301 23.1631 23.5806 24.1217 22.8284 25.0486C22.7648 25.1224 22.7012 25.2066 22.6377 25.2804L22.2881 25.6912C21.7902 26.2705 21.2816 26.8393 20.7413 27.3976C20.4235 27.7346 20.0845 28.0717 19.756 28.3982C19.5548 28.5878 19.3641 28.7774 19.1628 28.9565C18.9297 29.1777 18.6966 29.3884 18.4636 29.599C17.7114 30.2626 16.938 30.8947 16.1434 31.5056L16.0163 31.6004L15.8892 31.5056C15.084 30.8947 14.3106 30.2626 13.569 29.599C13.3466 29.4094 13.1347 29.2093 12.9122 29.0092C12.6897 28.809 12.4778 28.6089 12.2659 28.3982C11.9269 28.0717 11.5985 27.7346 11.2701 27.3976C10.7616 26.8603 10.2636 26.3126 9.77627 25.7544C9.63855 25.5964 9.51143 25.4384 9.37371 25.2804C9.31015 25.2066 9.24659 25.1224 9.18299 25.0486C8.43083 24.1217 7.71039 23.1631 7.04299 22.173C6.90523 21.9728 6.77811 21.7727 6.64039 21.5726C6.11067 20.7615 5.61275 19.9188 5.14659 19.0656C4.59571 18.0544 4.08719 17.0222 3.62103 15.9583C3.58925 15.874 3.54687 15.8003 3.51509 15.716C3.11251 14.7785 2.75231 13.82 2.42389 12.8509C2.08487 11.8292 1.77764 10.7969 1.52338 9.74355C1.26912 8.72179 1.05723 7.68951 0.887727 6.63619C0.728811 5.61443 0.601683 4.57163 0.516927 3.52882C0.442767 2.47547 0.400391 1.4432 0.400391 0.400391H31.6004Z" fill="url(#paint0_linear_26569_8143)"/>
</g>
<defs>
<linearGradient id="paint0_linear_26569_8143" x1="0.400391" y1="16.0004" x2="31.6004" y2="16.0004" gradientUnits="userSpaceOnUse">
<stop stop-color="#4241E5"/>
<stop offset="1" stop-color="#DB33E4"/>
</linearGradient>
<clipPath id="clip0_26569_8143">
<rect width="32" height="32" fill="white"/>
</clipPath>
</defs>
</svg>
