<svg width="47" height="16" viewBox="0 0 47 16" fill="none" xmlns="http://www.w3.org/2000/svg">
<path fill-rule="evenodd" clip-rule="evenodd" d="M0 5.56772C0 10.2724 5.54755 10.0372 6.40703 10.3508C7.50092 10.7429 7.42278 12.7032 4.92248 12.7032C3.59419 12.7032 2.50031 12.5463 1.25015 12.1543C0.937615 12.0759 0.625077 11.919 0.312538 11.8406V15.3691C1.25015 15.8396 4.45367 15.918 5.78196 15.918C9.21988 15.918 12.3453 13.5657 11.4858 10.0372C10.6263 6.19501 5.62569 6.58707 4.92248 6.19501C4.063 5.80296 4.063 4.7052 5.00061 4.31314C6.25077 3.76426 8.75107 4.31314 10.0012 4.7052C10.3919 4.86202 10.7826 5.01884 11.0951 5.09725V1.72556C10.5482 1.56874 10.2356 1.41192 9.14174 1.17668C7.57905 0.863037 6.95398 0.863037 5.39128 0.863037C2.57844 0.863037 0 2.74491 0 5.56772Z" fill="white"/>
<path fill-rule="evenodd" clip-rule="evenodd" d="M12.5796 1.64715V15.7612H16.6426V11.527C16.7207 11.6838 16.6426 11.6054 16.7207 11.7622L17.1114 12.4679C17.2677 12.7816 17.4239 13.0952 17.5802 13.4873C17.7365 13.8793 18.2053 15.2907 18.2053 15.7612H23.1278C23.0496 15.6044 22.9715 15.2907 22.8934 15.0555L21.9557 12.9384C20.0024 8.93941 20.393 11.0565 22.112 7.68483C22.4245 7.21436 23.284 5.4109 23.3622 4.78361H18.7522C18.596 5.56772 17.1114 8.1553 16.6426 8.54735V0.863037C15.8612 0.863037 13.2047 1.64715 12.5796 1.64715Z" fill="white"/>
<path fill-rule="evenodd" clip-rule="evenodd" d="M36.8794 1.56874V15.7612H40.7861V0.863037C40.161 0.863037 37.7389 1.49033 36.8794 1.56874Z" fill="white"/>
<path fill-rule="evenodd" clip-rule="evenodd" d="M42.5054 1.56874V15.7612H46.4121V0.863037C45.9433 0.863037 42.9742 1.56874 42.5054 1.56874Z" fill="white"/>
<path fill-rule="evenodd" clip-rule="evenodd" d="M23.8308 9.48836V15.7613H27.7375V11.0566C27.7375 8.86106 28.0501 7.99854 30.2378 7.99854V4.70526C29.5346 4.70526 30.1597 4.62685 28.9877 4.70526C27.8157 4.86208 26.9562 4.86208 25.706 5.6462C24.6122 6.3519 23.8308 7.68489 23.8308 9.48836Z" fill="white"/>
<path fill-rule="evenodd" clip-rule="evenodd" d="M31.4102 15.7612H35.3169V4.86206H31.4102V15.7612Z" fill="white"/>
<path fill-rule="evenodd" clip-rule="evenodd" d="M31.488 1.80393C31.488 2.43122 31.5662 2.82327 32.035 3.29374C33.7539 5.01879 36.4886 2.43122 34.6916 0.549344C33.5195 -0.705239 31.488 0.392521 31.488 1.80393Z" fill="white"/>
</svg>
