<svg width="48" height="16" viewBox="0 0 48 16" fill="none" xmlns="http://www.w3.org/2000/svg">
<g clip-path="url(#clip0_428_5229)">
<path fill-rule="evenodd" clip-rule="evenodd" d="M16.6387 15.1037L19.004 1.07501H22.8374L20.4721 15.1037H16.6387ZM34.2561 1.40126C33.5221 1.15657 32.3802 0.830322 30.8305 0.830322C27.0787 0.830322 24.4687 2.70625 24.3871 5.47936C24.3871 7.43685 26.3446 8.57872 27.7312 9.23122C29.2808 9.96528 29.7702 10.3731 29.7702 11.0256C29.7702 11.9228 28.5468 12.3306 27.4865 12.3306C25.9368 12.3306 25.1212 12.1675 23.8977 11.5965L23.3268 11.4334L22.8374 14.5328C23.7346 14.9406 25.3659 15.2668 27.0787 15.2668C31.0752 15.2668 33.6852 13.3909 33.7668 10.5362C33.7668 8.90497 32.7065 7.68154 30.5043 6.7028C29.1993 6.0503 28.3837 5.64249 28.3837 4.98999C28.3837 4.41906 29.1177 3.76656 30.5858 3.76656C31.8093 3.76656 32.7065 4.01125 33.4405 4.25593L33.7668 4.41906L34.2561 1.40126ZM44.1252 1.07501H41.1074C40.2102 1.07501 39.5577 1.31969 39.1499 2.21688L33.4405 15.1037H37.4371C37.4371 15.1037 38.0896 13.3909 38.2527 12.9831H43.1464C43.3095 13.4725 43.6358 15.1037 43.6358 15.1037H47.1429L44.1252 1.07501ZM39.3945 10.1284C39.7208 9.31278 40.8627 6.21342 40.8627 6.21342C40.8627 6.21342 41.1889 5.3978 41.4336 4.82687L41.6783 6.0503C41.6783 6.0503 42.4123 9.39435 42.5755 10.1284H39.3945ZM13.3762 1.07501L9.70593 10.6178L9.29812 8.66029C8.56406 6.45811 6.44345 4.01125 3.99658 2.78781L7.42219 15.1037H11.4187L17.4543 1.07501H13.3762Z" fill="white"/>
<path fill-rule="evenodd" clip-rule="evenodd" d="M6.19872 1.07495H0.0815621L0 1.4012C4.81217 2.54307 7.99309 5.31618 9.29808 8.66023L7.91153 2.29838C7.7484 1.4012 7.01434 1.07495 6.19872 1.07495Z" fill="white"/>
</g>
<defs>
<clipPath id="clip0_428_5229">
<rect width="47.1429" height="14.4572" fill="white" transform="translate(0 0.820068)"/>
</clipPath>
</defs>
</svg>
